<svg width="100" height="100" viewBox="0 0 100 100" fill="none" xmlns="http://www.w3.org/2000/svg">
<path d="M77.926 94.924H8.217C6.441 94.924 5 93.484 5 91.706V21.997C5 20.22 6.441 18.78 8.217 18.78H43.071C44.848 18.78 46.288 20.221 46.288 21.997C46.288 23.773 44.847 25.214 43.071 25.214H11.435V88.489H74.709V56.851C74.709 55.074 76.15 53.634 77.926 53.634C79.703 53.634 81.143 55.075 81.143 56.851V91.706C81.144 93.484 79.703 94.924 77.926 94.924Z" fill="white"/>
<path d="M94.059 16.034L84.032 6.01699C82.777 4.76199 80.74 4.76199 79.485 6.01699L70.423 15.09L35.396 50.116C35.106 50.406 34.871 50.749 34.71 51.124L27.214 68.637C26.688 69.849 26.967 71.254 27.89 72.176C28.512 72.798 29.327 73.12 30.164 73.12C30.593 73.12 31.022 73.034 31.44 72.863L48.953 65.367C49.328 65.206 49.672 64.97 49.961 64.681L84.987 29.655L94.06 20.593C95.314 19.326 95.314 17.289 94.059 16.034ZM36.286 63.79L39.214 56.969L43.107 60.862L36.286 63.79ZM46.925 58.621L41.456 53.152L73.007 21.6L78.477 27.069L46.925 58.621ZM81.511 24.034L76.042 18.565L81.758 12.849L87.227 18.308L81.511 24.034Z" fill="white"/>
</svg>
