%TF.GenerationSoftware,KiCad,Pcbnew,(6.0.11)*%
%TF.CreationDate,2023-02-17T23:10:17-08:00*%
%TF.ProjectId,badger,62616467-6572-42e6-9b69-6361645f7063,Original*%
%TF.SameCoordinates,Original*%
%TF.FileFunction,Copper,L2,Bot*%
%TF.FilePolarity,Positive*%
%FSLAX46Y46*%
G04 Gerber Fmt 4.6, Leading zero omitted, Abs format (unit mm)*
G04 Created by KiCad (PCBNEW (6.0.11)) date 2023-02-17 23:10:17*
%MOMM*%
%LPD*%
G01*
G04 APERTURE LIST*
%TA.AperFunction,ComponentPad*%
%ADD10C,1.400000*%
%TD*%
%TA.AperFunction,ComponentPad*%
%ADD11O,1.400000X1.400000*%
%TD*%
%TA.AperFunction,ComponentPad*%
%ADD12R,1.800000X1.800000*%
%TD*%
%TA.AperFunction,ComponentPad*%
%ADD13C,1.800000*%
%TD*%
%TA.AperFunction,ComponentPad*%
%ADD14R,1.130000X1.130000*%
%TD*%
%TA.AperFunction,ComponentPad*%
%ADD15C,1.130000*%
%TD*%
%TA.AperFunction,ComponentPad*%
%ADD16R,1.408000X1.408000*%
%TD*%
%TA.AperFunction,ComponentPad*%
%ADD17C,1.408000*%
%TD*%
%TA.AperFunction,ComponentPad*%
%ADD18R,1.905000X2.000000*%
%TD*%
%TA.AperFunction,ComponentPad*%
%ADD19O,1.905000X2.000000*%
%TD*%
%TA.AperFunction,ComponentPad*%
%ADD20C,6.000000*%
%TD*%
%TA.AperFunction,ComponentPad*%
%ADD21C,1.700000*%
%TD*%
%TA.AperFunction,ComponentPad*%
%ADD22C,1.524000*%
%TD*%
%TA.AperFunction,ViaPad*%
%ADD23C,0.800000*%
%TD*%
%TA.AperFunction,Conductor*%
%ADD24C,0.250000*%
%TD*%
G04 APERTURE END LIST*
D10*
%TO.P,R3,1*%
%TO.N,Net-(IC0-Pad4)*%
X165100000Y-76200000D03*
D11*
%TO.P,R3,2*%
%TO.N,Net-(LED1-Pad2)*%
X157480000Y-76200000D03*
%TD*%
D12*
%TO.P,LED2,1,K*%
%TO.N,Net-(CTRL0-Pad24)*%
X212760000Y-126960000D03*
D13*
%TO.P,LED2,2,A*%
%TO.N,Net-(LED2-Pad2)*%
X215300000Y-126960000D03*
%TD*%
D14*
%TO.P,IC0,1,QB*%
%TO.N,Net-(IC0-Pad1)*%
X168750000Y-67310000D03*
D15*
%TO.P,IC0,2,QC*%
%TO.N,Net-(IC0-Pad2)*%
X168750000Y-69850000D03*
%TO.P,IC0,3,QD*%
%TO.N,Net-(IC0-Pad3)*%
X168750000Y-72390000D03*
%TO.P,IC0,4,QE*%
%TO.N,Net-(IC0-Pad4)*%
X168750000Y-74930000D03*
%TO.P,IC0,5,QF*%
%TO.N,Net-(IC0-Pad5)*%
X168750000Y-77470000D03*
%TO.P,IC0,6,QG*%
%TO.N,unconnected-(IC0-Pad6)*%
X168750000Y-80010000D03*
%TO.P,IC0,7,QH*%
%TO.N,unconnected-(IC0-Pad7)*%
X168750000Y-82550000D03*
%TO.P,IC0,8,GND*%
%TO.N,Net-(CTRL0-Pad24)*%
X168750000Y-85090000D03*
%TO.P,IC0,9,QH'*%
%TO.N,unconnected-(IC0-Pad9)*%
X176690000Y-85090000D03*
%TO.P,IC0,10,~{SRCLR}*%
%TO.N,Net-(CTRL0-Pad25)*%
X176690000Y-82550000D03*
%TO.P,IC0,11,SRCLK*%
%TO.N,Net-(CTRL0-Pad29)*%
X176690000Y-80010000D03*
%TO.P,IC0,12,RCLK*%
%TO.N,Net-(CTRL0-Pad27)*%
X176690000Y-77470000D03*
%TO.P,IC0,13,~{OE}*%
%TO.N,Net-(CTRL0-Pad24)*%
X176690000Y-74930000D03*
%TO.P,IC0,14,SER*%
%TO.N,Net-(CTRL0-Pad26)*%
X176690000Y-72390000D03*
%TO.P,IC0,15,QA*%
%TO.N,unconnected-(IC0-Pad15)*%
X176690000Y-69850000D03*
%TO.P,IC0,16,VCC*%
%TO.N,Net-(CTRL0-Pad25)*%
X176690000Y-67310000D03*
%TD*%
D12*
%TO.P,LED1,1,K*%
%TO.N,Net-(CTRL0-Pad24)*%
X202860000Y-126960000D03*
D13*
%TO.P,LED1,2,A*%
%TO.N,Net-(LED1-Pad2)*%
X205400000Y-126960000D03*
%TD*%
%TO.P,LED0,1,RA*%
%TO.N,Net-(LED0-Pad1)*%
X189900000Y-126960000D03*
D12*
%TO.P,LED0,2,K*%
%TO.N,Net-(CTRL0-Pad24)*%
X192059000Y-126960000D03*
D13*
%TO.P,LED0,3,GA*%
%TO.N,Net-(LED0-Pad3)*%
X194218000Y-126960000D03*
%TO.P,LED0,4,BA*%
%TO.N,Net-(LED0-Pad4)*%
X196377000Y-126960000D03*
%TD*%
D16*
%TO.P,PSW0,1*%
%TO.N,Net-(PSW0-Pad1)*%
X127000000Y-63580000D03*
D17*
%TO.P,PSW0,2*%
%TO.N,Net-(PSW0-Pad2)*%
X127000000Y-66080000D03*
%TO.P,PSW0,3*%
%TO.N,unconnected-(PSW0-Pad3)*%
X127000000Y-68580000D03*
%TD*%
D18*
%TO.P,VR0,1,IN*%
%TO.N,Net-(PSW0-Pad2)*%
X139700000Y-68580000D03*
D19*
%TO.P,VR0,2,GND*%
%TO.N,Net-(CTRL0-Pad14)*%
X142240000Y-68580000D03*
%TO.P,VR0,3,OUT*%
%TO.N,Net-(CTRL0-Pad15)*%
X144780000Y-68580000D03*
%TD*%
D10*
%TO.P,R1,1*%
%TO.N,Net-(IC0-Pad2)*%
X140140000Y-81020000D03*
D11*
%TO.P,R1,2*%
%TO.N,Net-(LED0-Pad3)*%
X132520000Y-81020000D03*
%TD*%
D20*
%TO.P,IC1,*%
%TO.N,*%
X166400000Y-94760000D03*
X129400000Y-98760000D03*
X129400000Y-124760000D03*
X166400000Y-128760000D03*
D21*
%TO.P,IC1,1,SDA*%
%TO.N,Net-(CTRL0-Pad28)*%
X180340000Y-120650000D03*
%TO.P,IC1,2,SCK*%
%TO.N,Net-(CTRL0-Pad23)*%
X180340000Y-118110000D03*
%TO.P,IC1,3,MOSI*%
%TO.N,Net-(CTRL0-Pad21)*%
X180340000Y-115570000D03*
%TO.P,IC1,4,MISO*%
%TO.N,Net-(CTRL0-Pad22)*%
X180340000Y-113030000D03*
%TO.P,IC1,5,IRQ*%
%TO.N,unconnected-(IC1-Pad5)*%
X180340000Y-110490000D03*
%TO.P,IC1,6,GND*%
%TO.N,Net-(CTRL0-Pad24)*%
X180340000Y-107950000D03*
%TO.P,IC1,7,RST*%
%TO.N,unconnected-(IC1-Pad7)*%
X180340000Y-105410000D03*
%TO.P,IC1,8,3.3V*%
%TO.N,Net-(CTRL0-Pad25)*%
X180340000Y-102870000D03*
%TD*%
D10*
%TO.P,R4,1*%
%TO.N,Net-(IC0-Pad5)*%
X165100000Y-81280000D03*
D11*
%TO.P,R4,2*%
%TO.N,Net-(LED2-Pad2)*%
X157480000Y-81280000D03*
%TD*%
D22*
%TO.P,CTRL0,1,A0(ADC0)*%
%TO.N,unconnected-(CTRL0-Pad1)*%
X217170000Y-106680000D03*
%TO.P,CTRL0,2,RSV*%
%TO.N,unconnected-(CTRL0-Pad2)*%
X217170000Y-104140000D03*
%TO.P,CTRL0,3,RSV*%
%TO.N,unconnected-(CTRL0-Pad3)*%
X217170000Y-101600000D03*
%TO.P,CTRL0,4,SD3(GPIO10)*%
%TO.N,unconnected-(CTRL0-Pad4)*%
X217170000Y-99060000D03*
%TO.P,CTRL0,5,SD2(GPIO9)*%
%TO.N,unconnected-(CTRL0-Pad5)*%
X217170000Y-96520000D03*
%TO.P,CTRL0,6,SD1(MOSI)*%
%TO.N,unconnected-(CTRL0-Pad6)*%
X217170000Y-93980000D03*
%TO.P,CTRL0,7,CMD(CS)*%
%TO.N,unconnected-(CTRL0-Pad7)*%
X217170000Y-91440000D03*
%TO.P,CTRL0,8,SDO(MISO)*%
%TO.N,unconnected-(CTRL0-Pad8)*%
X217170000Y-88900000D03*
%TO.P,CTRL0,9,CLK(SCLK)*%
%TO.N,unconnected-(CTRL0-Pad9)*%
X217170000Y-86360000D03*
%TO.P,CTRL0,10,GND*%
%TO.N,unconnected-(CTRL0-Pad10)*%
X217170000Y-83820000D03*
%TO.P,CTRL0,11,3.3V*%
%TO.N,unconnected-(CTRL0-Pad11)*%
X217170000Y-81280000D03*
%TO.P,CTRL0,12,EN*%
%TO.N,unconnected-(CTRL0-Pad12)*%
X217170000Y-78740000D03*
%TO.P,CTRL0,13,RST*%
%TO.N,unconnected-(CTRL0-Pad13)*%
X217170000Y-76200000D03*
%TO.P,CTRL0,14,GND*%
%TO.N,Net-(CTRL0-Pad14)*%
X217170000Y-73660000D03*
%TO.P,CTRL0,15,VIN*%
%TO.N,Net-(CTRL0-Pad15)*%
X217170000Y-71120000D03*
%TO.P,CTRL0,16,3.3V*%
%TO.N,unconnected-(CTRL0-Pad16)*%
X189230000Y-71120000D03*
%TO.P,CTRL0,17,GND*%
%TO.N,unconnected-(CTRL0-Pad17)*%
X189230000Y-73660000D03*
%TO.P,CTRL0,18,TX(GPIO1)*%
%TO.N,unconnected-(CTRL0-Pad18)*%
X189230000Y-76200000D03*
%TO.P,CTRL0,19,RX(DPIO3)*%
%TO.N,unconnected-(CTRL0-Pad19)*%
X189230000Y-78740000D03*
%TO.P,CTRL0,20,D8(GPIO15)*%
%TO.N,unconnected-(CTRL0-Pad20)*%
X189230000Y-81280000D03*
%TO.P,CTRL0,21,D7(GPIO13)*%
%TO.N,Net-(CTRL0-Pad21)*%
X189230000Y-83820000D03*
%TO.P,CTRL0,22,D6(GPIO12)*%
%TO.N,Net-(CTRL0-Pad22)*%
X189230000Y-86360000D03*
%TO.P,CTRL0,23,D5(GPIO14)*%
%TO.N,Net-(CTRL0-Pad23)*%
X189230000Y-88900000D03*
%TO.P,CTRL0,24,GND*%
%TO.N,Net-(CTRL0-Pad24)*%
X189230000Y-91440000D03*
%TO.P,CTRL0,25,3.3V*%
%TO.N,Net-(CTRL0-Pad25)*%
X189230000Y-93980000D03*
%TO.P,CTRL0,26,D4(GPIO2)*%
%TO.N,Net-(CTRL0-Pad26)*%
X189230000Y-96520000D03*
%TO.P,CTRL0,27,D3(GPIO0)*%
%TO.N,Net-(CTRL0-Pad27)*%
X189230000Y-99060000D03*
%TO.P,CTRL0,28,D2(GPIO4)*%
%TO.N,Net-(CTRL0-Pad28)*%
X189230000Y-101600000D03*
%TO.P,CTRL0,29,D1(GPIO5)*%
%TO.N,Net-(CTRL0-Pad29)*%
X189230000Y-104140000D03*
%TO.P,CTRL0,30,D0(GPIO16)*%
%TO.N,unconnected-(CTRL0-Pad30)*%
X189230000Y-106680000D03*
%TD*%
D10*
%TO.P,R2,1*%
%TO.N,Net-(IC0-Pad3)*%
X140140000Y-86100000D03*
D11*
%TO.P,R2,2*%
%TO.N,Net-(LED0-Pad4)*%
X132520000Y-86100000D03*
%TD*%
D10*
%TO.P,R0,1*%
%TO.N,Net-(IC0-Pad1)*%
X140140000Y-75940000D03*
D11*
%TO.P,R0,2*%
%TO.N,Net-(LED0-Pad1)*%
X132520000Y-75940000D03*
%TD*%
D23*
%TO.N,Net-(CTRL0-Pad21)*%
X203200000Y-83820000D03*
X185420000Y-124460000D03*
%TO.N,Net-(CTRL0-Pad22)*%
X203200000Y-86360000D03*
%TO.N,Net-(CTRL0-Pad23)*%
X203200000Y-88900000D03*
%TO.N,Net-(CTRL0-Pad24)*%
X175260000Y-91440000D03*
X182880000Y-93980000D03*
%TO.N,Net-(CTRL0-Pad27)*%
X198120000Y-71120000D03*
%TD*%
D24*
%TO.N,Net-(CTRL0-Pad21)*%
X177800000Y-116840000D02*
X179070000Y-115570000D01*
X180340000Y-124460000D02*
X177800000Y-121920000D01*
X177800000Y-121920000D02*
X177800000Y-116840000D01*
X185420000Y-124460000D02*
X180340000Y-124460000D01*
X179070000Y-115570000D02*
X180340000Y-115570000D01*
X189230000Y-83820000D02*
X203200000Y-83820000D01*
%TO.N,Net-(CTRL0-Pad22)*%
X189230000Y-86360000D02*
X203200000Y-86360000D01*
%TO.N,Net-(CTRL0-Pad23)*%
X189230000Y-88900000D02*
X203200000Y-88900000D01*
%TO.N,Net-(CTRL0-Pad24)*%
X189479000Y-129540000D02*
X184783604Y-129540000D01*
X184783604Y-129540000D02*
X177350000Y-122106396D01*
X177350000Y-122106396D02*
X177350000Y-109670000D01*
X182880000Y-93980000D02*
X182880000Y-106680000D01*
X179070000Y-107950000D02*
X180340000Y-107950000D01*
X182880000Y-93980000D02*
X180340000Y-91440000D01*
X192059000Y-126960000D02*
X189479000Y-129540000D01*
X181610000Y-107950000D02*
X180340000Y-107950000D01*
X182880000Y-106680000D02*
X181610000Y-107950000D01*
X177350000Y-109670000D02*
X179070000Y-107950000D01*
X180340000Y-91440000D02*
X175260000Y-91440000D01*
%TO.N,Net-(CTRL0-Pad25)*%
X172720000Y-78580000D02*
X176690000Y-82550000D01*
X176690000Y-67310000D02*
X172720000Y-71280000D01*
X172720000Y-71280000D02*
X172720000Y-78580000D01*
%TO.N,Net-(CTRL0-Pad26)*%
X197670000Y-65590000D02*
X187773604Y-65590000D01*
X198120000Y-96520000D02*
X205740000Y-88900000D01*
X187773604Y-65590000D02*
X180973604Y-72390000D01*
X205740000Y-88900000D02*
X205740000Y-73660000D01*
X180973604Y-72390000D02*
X176690000Y-72390000D01*
X189230000Y-96520000D02*
X198120000Y-96520000D01*
X205740000Y-73660000D02*
X197670000Y-65590000D01*
%TO.N,Net-(CTRL0-Pad27)*%
X195580000Y-66040000D02*
X187960000Y-66040000D01*
X185420000Y-76200000D02*
X184150000Y-77470000D01*
X185420000Y-68580000D02*
X185420000Y-76200000D01*
X187960000Y-66040000D02*
X185420000Y-68580000D01*
X198120000Y-71120000D02*
X198120000Y-68580000D01*
X198120000Y-68580000D02*
X195580000Y-66040000D01*
X184150000Y-77470000D02*
X176690000Y-77470000D01*
%TO.N,Net-(LED0-Pad1)*%
X184520000Y-117212792D02*
X189900000Y-122592792D01*
X132343604Y-89800000D02*
X182507208Y-89800000D01*
X129090000Y-86546396D02*
X132343604Y-89800000D01*
X129090000Y-79370000D02*
X129090000Y-86546396D01*
X132520000Y-75940000D02*
X129090000Y-79370000D01*
X189900000Y-122592792D02*
X189900000Y-126960000D01*
X182507208Y-89800000D02*
X184520000Y-91812792D01*
X184520000Y-91812792D02*
X184520000Y-117212792D01*
%TO.N,Net-(LED0-Pad3)*%
X129540000Y-84000000D02*
X129540000Y-86360000D01*
X184970000Y-117026396D02*
X190313604Y-122370000D01*
X182693604Y-89350000D02*
X184970000Y-91626396D01*
X129540000Y-86360000D02*
X132530000Y-89350000D01*
X193040000Y-122370000D02*
X194218000Y-123548000D01*
X132520000Y-81020000D02*
X129540000Y-84000000D01*
X190313604Y-122370000D02*
X193040000Y-122370000D01*
X184970000Y-91626396D02*
X184970000Y-117026396D01*
X194218000Y-123548000D02*
X194218000Y-126960000D01*
X132530000Y-89350000D02*
X182693604Y-89350000D01*
%TO.N,Net-(LED0-Pad4)*%
X195580000Y-121920000D02*
X196377000Y-122717000D01*
X196377000Y-122717000D02*
X196377000Y-126960000D01*
X135320000Y-88900000D02*
X182880000Y-88900000D01*
X185420000Y-91440000D02*
X185420000Y-116840000D01*
X185420000Y-116840000D02*
X190500000Y-121920000D01*
X182880000Y-88900000D02*
X185420000Y-91440000D01*
X190500000Y-121920000D02*
X195580000Y-121920000D01*
X132520000Y-86100000D02*
X135320000Y-88900000D01*
%TO.N,Net-(LED1-Pad2)*%
X152400000Y-81280000D02*
X152400000Y-86360000D01*
X154490000Y-88450000D02*
X183066396Y-88450000D01*
X185870000Y-91253604D02*
X185870000Y-116653604D01*
X183066396Y-88450000D02*
X185870000Y-91253604D01*
X157480000Y-76200000D02*
X152400000Y-81280000D01*
X152400000Y-86360000D02*
X154490000Y-88450000D01*
X190686396Y-121470000D02*
X202750000Y-121470000D01*
X202750000Y-121470000D02*
X205400000Y-124120000D01*
X205400000Y-124120000D02*
X205400000Y-126960000D01*
X185870000Y-116653604D02*
X190686396Y-121470000D01*
%TO.N,Net-(LED2-Pad2)*%
X159120000Y-88000000D02*
X183252792Y-88000000D01*
X212460000Y-121020000D02*
X215300000Y-123860000D01*
X183252792Y-88000000D02*
X186320000Y-91067208D01*
X157480000Y-81280000D02*
X157480000Y-86360000D01*
X190872792Y-121020000D02*
X212460000Y-121020000D01*
X157480000Y-86360000D02*
X159120000Y-88000000D01*
X215300000Y-123860000D02*
X215300000Y-126960000D01*
X186320000Y-91067208D02*
X186320000Y-116467208D01*
X186320000Y-116467208D02*
X190872792Y-121020000D01*
%TD*%
M02*
