%TF.GenerationSoftware,KiCad,Pcbnew,(6.0.11)*%
%TF.CreationDate,2023-02-17T23:10:17-08:00*%
%TF.ProjectId,badger,62616467-6572-42e6-9b69-6361645f7063,Original*%
%TF.SameCoordinates,Original*%
%TF.FileFunction,Legend,Top*%
%TF.FilePolarity,Positive*%
%FSLAX46Y46*%
G04 Gerber Fmt 4.6, Leading zero omitted, Abs format (unit mm)*
G04 Created by KiCad (PCBNEW (6.0.11)) date 2023-02-17 23:10:17*
%MOMM*%
%LPD*%
G01*
G04 APERTURE LIST*
%ADD10C,0.150000*%
%ADD11C,0.120000*%
%ADD12C,0.127000*%
%ADD13C,0.200000*%
%ADD14C,1.524000*%
G04 APERTURE END LIST*
D10*
X121348571Y-68032380D02*
X121539047Y-68032380D01*
X121634285Y-68080000D01*
X121729523Y-68175238D01*
X121777142Y-68365714D01*
X121777142Y-68699047D01*
X121729523Y-68889523D01*
X121634285Y-68984761D01*
X121539047Y-69032380D01*
X121348571Y-69032380D01*
X121253333Y-68984761D01*
X121158095Y-68889523D01*
X121110476Y-68699047D01*
X121110476Y-68365714D01*
X121158095Y-68175238D01*
X121253333Y-68080000D01*
X121348571Y-68032380D01*
X122539047Y-68508571D02*
X122205714Y-68508571D01*
X122205714Y-69032380D02*
X122205714Y-68032380D01*
X122681904Y-68032380D01*
X123396190Y-68508571D02*
X123062857Y-68508571D01*
X123062857Y-69032380D02*
X123062857Y-68032380D01*
X123539047Y-68032380D01*
X124107380Y-85232380D02*
X123107380Y-85232380D01*
X123107380Y-84851428D01*
X123155000Y-84756190D01*
X123202619Y-84708571D01*
X123297857Y-84660952D01*
X123440714Y-84660952D01*
X123535952Y-84708571D01*
X123583571Y-84756190D01*
X123631190Y-84851428D01*
X123631190Y-85232380D01*
X124107380Y-83660952D02*
X123631190Y-83994285D01*
X124107380Y-84232380D02*
X123107380Y-84232380D01*
X123107380Y-83851428D01*
X123155000Y-83756190D01*
X123202619Y-83708571D01*
X123297857Y-83660952D01*
X123440714Y-83660952D01*
X123535952Y-83708571D01*
X123583571Y-83756190D01*
X123631190Y-83851428D01*
X123631190Y-84232380D01*
X123107380Y-83041904D02*
X123107380Y-82851428D01*
X123155000Y-82756190D01*
X123250238Y-82660952D01*
X123440714Y-82613333D01*
X123774047Y-82613333D01*
X123964523Y-82660952D01*
X124059761Y-82756190D01*
X124107380Y-82851428D01*
X124107380Y-83041904D01*
X124059761Y-83137142D01*
X123964523Y-83232380D01*
X123774047Y-83280000D01*
X123440714Y-83280000D01*
X123250238Y-83232380D01*
X123155000Y-83137142D01*
X123107380Y-83041904D01*
X123107380Y-82327619D02*
X123107380Y-81756190D01*
X124107380Y-82041904D02*
X123107380Y-82041904D01*
X123107380Y-81232380D02*
X123107380Y-81041904D01*
X123155000Y-80946666D01*
X123250238Y-80851428D01*
X123440714Y-80803809D01*
X123774047Y-80803809D01*
X123964523Y-80851428D01*
X124059761Y-80946666D01*
X124107380Y-81041904D01*
X124107380Y-81232380D01*
X124059761Y-81327619D01*
X123964523Y-81422857D01*
X123774047Y-81470476D01*
X123440714Y-81470476D01*
X123250238Y-81422857D01*
X123155000Y-81327619D01*
X123107380Y-81232380D01*
X123107380Y-80518095D02*
X123107380Y-79946666D01*
X124107380Y-80232380D02*
X123107380Y-80232380D01*
X123631190Y-79422857D02*
X124107380Y-79422857D01*
X123107380Y-79756190D02*
X123631190Y-79422857D01*
X123107380Y-79089523D01*
X124107380Y-78756190D02*
X123107380Y-78756190D01*
X123107380Y-78375238D01*
X123155000Y-78280000D01*
X123202619Y-78232380D01*
X123297857Y-78184761D01*
X123440714Y-78184761D01*
X123535952Y-78232380D01*
X123583571Y-78280000D01*
X123631190Y-78375238D01*
X123631190Y-78756190D01*
X123583571Y-77756190D02*
X123583571Y-77422857D01*
X124107380Y-77280000D02*
X124107380Y-77756190D01*
X123107380Y-77756190D01*
X123107380Y-77280000D01*
X125717380Y-86994285D02*
X124717380Y-86994285D01*
X125193571Y-86994285D02*
X125193571Y-86422857D01*
X125717380Y-86422857D02*
X124717380Y-86422857D01*
X125717380Y-85518095D02*
X125193571Y-85518095D01*
X125098333Y-85565714D01*
X125050714Y-85660952D01*
X125050714Y-85851428D01*
X125098333Y-85946666D01*
X125669761Y-85518095D02*
X125717380Y-85613333D01*
X125717380Y-85851428D01*
X125669761Y-85946666D01*
X125574523Y-85994285D01*
X125479285Y-85994285D01*
X125384047Y-85946666D01*
X125336428Y-85851428D01*
X125336428Y-85613333D01*
X125288809Y-85518095D01*
X125669761Y-84613333D02*
X125717380Y-84708571D01*
X125717380Y-84899047D01*
X125669761Y-84994285D01*
X125622142Y-85041904D01*
X125526904Y-85089523D01*
X125241190Y-85089523D01*
X125145952Y-85041904D01*
X125098333Y-84994285D01*
X125050714Y-84899047D01*
X125050714Y-84708571D01*
X125098333Y-84613333D01*
X125717380Y-84184761D02*
X124717380Y-84184761D01*
X125336428Y-84089523D02*
X125717380Y-83803809D01*
X125050714Y-83803809D02*
X125431666Y-84184761D01*
X125717380Y-83375238D02*
X124717380Y-83375238D01*
X125431666Y-83041904D01*
X124717380Y-82708571D01*
X125717380Y-82708571D01*
X125669761Y-81851428D02*
X125717380Y-81946666D01*
X125717380Y-82137142D01*
X125669761Y-82232380D01*
X125574523Y-82280000D01*
X125193571Y-82280000D01*
X125098333Y-82232380D01*
X125050714Y-82137142D01*
X125050714Y-81946666D01*
X125098333Y-81851428D01*
X125193571Y-81803809D01*
X125288809Y-81803809D01*
X125384047Y-82280000D01*
X125717380Y-81375238D02*
X125050714Y-81375238D01*
X125241190Y-81375238D02*
X125145952Y-81327619D01*
X125098333Y-81280000D01*
X125050714Y-81184761D01*
X125050714Y-81089523D01*
X125669761Y-80327619D02*
X125717380Y-80422857D01*
X125717380Y-80613333D01*
X125669761Y-80708571D01*
X125622142Y-80756190D01*
X125526904Y-80803809D01*
X125241190Y-80803809D01*
X125145952Y-80756190D01*
X125098333Y-80708571D01*
X125050714Y-80613333D01*
X125050714Y-80422857D01*
X125098333Y-80327619D01*
X125669761Y-79518095D02*
X125717380Y-79613333D01*
X125717380Y-79803809D01*
X125669761Y-79899047D01*
X125574523Y-79946666D01*
X125193571Y-79946666D01*
X125098333Y-79899047D01*
X125050714Y-79803809D01*
X125050714Y-79613333D01*
X125098333Y-79518095D01*
X125193571Y-79470476D01*
X125288809Y-79470476D01*
X125384047Y-79946666D01*
X125717380Y-78613333D02*
X124717380Y-78613333D01*
X125669761Y-78613333D02*
X125717380Y-78708571D01*
X125717380Y-78899047D01*
X125669761Y-78994285D01*
X125622142Y-79041904D01*
X125526904Y-79089523D01*
X125241190Y-79089523D01*
X125145952Y-79041904D01*
X125098333Y-78994285D01*
X125050714Y-78899047D01*
X125050714Y-78708571D01*
X125098333Y-78613333D01*
X124717380Y-77518095D02*
X125717380Y-77184761D01*
X124717380Y-76851428D01*
X125717380Y-76518095D02*
X124717380Y-76518095D01*
X125717380Y-76041904D02*
X124717380Y-76041904D01*
X125717380Y-75565714D02*
X124717380Y-75565714D01*
X165437684Y-60659485D02*
X165437684Y-59659485D01*
X165437684Y-60135676D02*
X166009112Y-60135676D01*
X166009112Y-60659485D02*
X166009112Y-59659485D01*
X166913874Y-60659485D02*
X166913874Y-60135676D01*
X166866255Y-60040438D01*
X166771017Y-59992819D01*
X166580541Y-59992819D01*
X166485303Y-60040438D01*
X166913874Y-60611866D02*
X166818636Y-60659485D01*
X166580541Y-60659485D01*
X166485303Y-60611866D01*
X166437684Y-60516628D01*
X166437684Y-60421390D01*
X166485303Y-60326152D01*
X166580541Y-60278533D01*
X166818636Y-60278533D01*
X166913874Y-60230914D01*
X167818636Y-60611866D02*
X167723398Y-60659485D01*
X167532922Y-60659485D01*
X167437684Y-60611866D01*
X167390064Y-60564247D01*
X167342445Y-60469009D01*
X167342445Y-60183295D01*
X167390064Y-60088057D01*
X167437684Y-60040438D01*
X167532922Y-59992819D01*
X167723398Y-59992819D01*
X167818636Y-60040438D01*
X168247207Y-60659485D02*
X168247207Y-59659485D01*
X168342445Y-60278533D02*
X168628160Y-60659485D01*
X168628160Y-59992819D02*
X168247207Y-60373771D01*
X169437684Y-60611866D02*
X169342445Y-60659485D01*
X169151969Y-60659485D01*
X169056731Y-60611866D01*
X169009112Y-60516628D01*
X169009112Y-60135676D01*
X169056731Y-60040438D01*
X169151969Y-59992819D01*
X169342445Y-59992819D01*
X169437684Y-60040438D01*
X169485303Y-60135676D01*
X169485303Y-60230914D01*
X169009112Y-60326152D01*
X169913874Y-60659485D02*
X169913874Y-59992819D01*
X169913874Y-60183295D02*
X169961493Y-60088057D01*
X170009112Y-60040438D01*
X170104350Y-59992819D01*
X170199588Y-59992819D01*
X170532922Y-60659485D02*
X170532922Y-59659485D01*
X170913874Y-59659485D01*
X171009112Y-59707105D01*
X171056731Y-59754724D01*
X171104350Y-59849962D01*
X171104350Y-59992819D01*
X171056731Y-60088057D01*
X171009112Y-60135676D01*
X170913874Y-60183295D01*
X170532922Y-60183295D01*
X171961493Y-60659485D02*
X171961493Y-60135676D01*
X171913874Y-60040438D01*
X171818636Y-59992819D01*
X171628160Y-59992819D01*
X171532922Y-60040438D01*
X171961493Y-60611866D02*
X171866255Y-60659485D01*
X171628160Y-60659485D01*
X171532922Y-60611866D01*
X171485303Y-60516628D01*
X171485303Y-60421390D01*
X171532922Y-60326152D01*
X171628160Y-60278533D01*
X171866255Y-60278533D01*
X171961493Y-60230914D01*
X172390064Y-60611866D02*
X172485303Y-60659485D01*
X172675779Y-60659485D01*
X172771017Y-60611866D01*
X172818636Y-60516628D01*
X172818636Y-60469009D01*
X172771017Y-60373771D01*
X172675779Y-60326152D01*
X172532922Y-60326152D01*
X172437684Y-60278533D01*
X172390064Y-60183295D01*
X172390064Y-60135676D01*
X172437684Y-60040438D01*
X172532922Y-59992819D01*
X172675779Y-59992819D01*
X172771017Y-60040438D01*
X173199588Y-60611866D02*
X173294826Y-60659485D01*
X173485303Y-60659485D01*
X173580541Y-60611866D01*
X173628160Y-60516628D01*
X173628160Y-60469009D01*
X173580541Y-60373771D01*
X173485303Y-60326152D01*
X173342445Y-60326152D01*
X173247207Y-60278533D01*
X173199588Y-60183295D01*
X173199588Y-60135676D01*
X173247207Y-60040438D01*
X173342445Y-59992819D01*
X173485303Y-59992819D01*
X173580541Y-60040438D01*
X175247207Y-60659485D02*
X175247207Y-60135676D01*
X175199588Y-60040438D01*
X175104350Y-59992819D01*
X174913874Y-59992819D01*
X174818636Y-60040438D01*
X175247207Y-60611866D02*
X175151969Y-60659485D01*
X174913874Y-60659485D01*
X174818636Y-60611866D01*
X174771017Y-60516628D01*
X174771017Y-60421390D01*
X174818636Y-60326152D01*
X174913874Y-60278533D01*
X175151969Y-60278533D01*
X175247207Y-60230914D01*
X175580541Y-59992819D02*
X175961493Y-59992819D01*
X175723398Y-59659485D02*
X175723398Y-60516628D01*
X175771017Y-60611866D01*
X175866255Y-60659485D01*
X175961493Y-60659485D01*
X177056731Y-60659485D02*
X177056731Y-59659485D01*
X177056731Y-60135676D02*
X177628160Y-60135676D01*
X177628160Y-60659485D02*
X177628160Y-59659485D01*
X178532922Y-60659485D02*
X178532922Y-60135676D01*
X178485303Y-60040438D01*
X178390064Y-59992819D01*
X178199588Y-59992819D01*
X178104350Y-60040438D01*
X178532922Y-60611866D02*
X178437684Y-60659485D01*
X178199588Y-60659485D01*
X178104350Y-60611866D01*
X178056731Y-60516628D01*
X178056731Y-60421390D01*
X178104350Y-60326152D01*
X178199588Y-60278533D01*
X178437684Y-60278533D01*
X178532922Y-60230914D01*
X179437684Y-60611866D02*
X179342445Y-60659485D01*
X179151969Y-60659485D01*
X179056731Y-60611866D01*
X179009112Y-60564247D01*
X178961493Y-60469009D01*
X178961493Y-60183295D01*
X179009112Y-60088057D01*
X179056731Y-60040438D01*
X179151969Y-59992819D01*
X179342445Y-59992819D01*
X179437684Y-60040438D01*
X179866255Y-60659485D02*
X179866255Y-59659485D01*
X179961493Y-60278533D02*
X180247207Y-60659485D01*
X180247207Y-59992819D02*
X179866255Y-60373771D01*
X180675779Y-60659485D02*
X180675779Y-59659485D01*
X181009112Y-60373771D01*
X181342445Y-59659485D01*
X181342445Y-60659485D01*
X182199588Y-60611866D02*
X182104350Y-60659485D01*
X181913874Y-60659485D01*
X181818636Y-60611866D01*
X181771017Y-60516628D01*
X181771017Y-60135676D01*
X181818636Y-60040438D01*
X181913874Y-59992819D01*
X182104350Y-59992819D01*
X182199588Y-60040438D01*
X182247207Y-60135676D01*
X182247207Y-60230914D01*
X181771017Y-60326152D01*
X182675779Y-60659485D02*
X182675779Y-59992819D01*
X182675779Y-60183295D02*
X182723398Y-60088057D01*
X182771017Y-60040438D01*
X182866255Y-59992819D01*
X182961493Y-59992819D01*
X183723398Y-60611866D02*
X183628160Y-60659485D01*
X183437684Y-60659485D01*
X183342445Y-60611866D01*
X183294826Y-60564247D01*
X183247207Y-60469009D01*
X183247207Y-60183295D01*
X183294826Y-60088057D01*
X183342445Y-60040438D01*
X183437684Y-59992819D01*
X183628160Y-59992819D01*
X183723398Y-60040438D01*
X184532922Y-60611866D02*
X184437684Y-60659485D01*
X184247207Y-60659485D01*
X184151969Y-60611866D01*
X184104350Y-60516628D01*
X184104350Y-60135676D01*
X184151969Y-60040438D01*
X184247207Y-59992819D01*
X184437684Y-59992819D01*
X184532922Y-60040438D01*
X184580541Y-60135676D01*
X184580541Y-60230914D01*
X184104350Y-60326152D01*
X185437684Y-60659485D02*
X185437684Y-59659485D01*
X185437684Y-60611866D02*
X185342445Y-60659485D01*
X185151969Y-60659485D01*
X185056731Y-60611866D01*
X185009112Y-60564247D01*
X184961493Y-60469009D01*
X184961493Y-60183295D01*
X185009112Y-60088057D01*
X185056731Y-60040438D01*
X185151969Y-59992819D01*
X185342445Y-59992819D01*
X185437684Y-60040438D01*
X164961493Y-61269485D02*
X165199588Y-62269485D01*
X165390064Y-61555200D01*
X165580541Y-62269485D01*
X165818636Y-61269485D01*
X166628160Y-62269485D02*
X166628160Y-61745676D01*
X166580541Y-61650438D01*
X166485303Y-61602819D01*
X166294826Y-61602819D01*
X166199588Y-61650438D01*
X166628160Y-62221866D02*
X166532922Y-62269485D01*
X166294826Y-62269485D01*
X166199588Y-62221866D01*
X166151969Y-62126628D01*
X166151969Y-62031390D01*
X166199588Y-61936152D01*
X166294826Y-61888533D01*
X166532922Y-61888533D01*
X166628160Y-61840914D01*
X167104350Y-61602819D02*
X167104350Y-62269485D01*
X167104350Y-61698057D02*
X167151969Y-61650438D01*
X167247207Y-61602819D01*
X167390064Y-61602819D01*
X167485303Y-61650438D01*
X167532922Y-61745676D01*
X167532922Y-62269485D01*
X167866255Y-61602819D02*
X168247207Y-61602819D01*
X168009112Y-61269485D02*
X168009112Y-62126628D01*
X168056731Y-62221866D01*
X168151969Y-62269485D01*
X168247207Y-62269485D01*
X169675779Y-61745676D02*
X169818636Y-61793295D01*
X169866255Y-61840914D01*
X169913874Y-61936152D01*
X169913874Y-62079009D01*
X169866255Y-62174247D01*
X169818636Y-62221866D01*
X169723398Y-62269485D01*
X169342445Y-62269485D01*
X169342445Y-61269485D01*
X169675779Y-61269485D01*
X169771017Y-61317105D01*
X169818636Y-61364724D01*
X169866255Y-61459962D01*
X169866255Y-61555200D01*
X169818636Y-61650438D01*
X169771017Y-61698057D01*
X169675779Y-61745676D01*
X169342445Y-61745676D01*
X170771017Y-62269485D02*
X170771017Y-61745676D01*
X170723398Y-61650438D01*
X170628160Y-61602819D01*
X170437684Y-61602819D01*
X170342445Y-61650438D01*
X170771017Y-62221866D02*
X170675779Y-62269485D01*
X170437684Y-62269485D01*
X170342445Y-62221866D01*
X170294826Y-62126628D01*
X170294826Y-62031390D01*
X170342445Y-61936152D01*
X170437684Y-61888533D01*
X170675779Y-61888533D01*
X170771017Y-61840914D01*
X171675779Y-62269485D02*
X171675779Y-61269485D01*
X171675779Y-62221866D02*
X171580541Y-62269485D01*
X171390064Y-62269485D01*
X171294826Y-62221866D01*
X171247207Y-62174247D01*
X171199588Y-62079009D01*
X171199588Y-61793295D01*
X171247207Y-61698057D01*
X171294826Y-61650438D01*
X171390064Y-61602819D01*
X171580541Y-61602819D01*
X171675779Y-61650438D01*
X172580541Y-61602819D02*
X172580541Y-62412343D01*
X172532922Y-62507581D01*
X172485303Y-62555200D01*
X172390064Y-62602819D01*
X172247207Y-62602819D01*
X172151969Y-62555200D01*
X172580541Y-62221866D02*
X172485303Y-62269485D01*
X172294826Y-62269485D01*
X172199588Y-62221866D01*
X172151969Y-62174247D01*
X172104350Y-62079009D01*
X172104350Y-61793295D01*
X172151969Y-61698057D01*
X172199588Y-61650438D01*
X172294826Y-61602819D01*
X172485303Y-61602819D01*
X172580541Y-61650438D01*
X173437684Y-62221866D02*
X173342445Y-62269485D01*
X173151969Y-62269485D01*
X173056731Y-62221866D01*
X173009112Y-62126628D01*
X173009112Y-61745676D01*
X173056731Y-61650438D01*
X173151969Y-61602819D01*
X173342445Y-61602819D01*
X173437684Y-61650438D01*
X173485303Y-61745676D01*
X173485303Y-61840914D01*
X173009112Y-61936152D01*
X173913874Y-62269485D02*
X173913874Y-61602819D01*
X173913874Y-61793295D02*
X173961493Y-61698057D01*
X174009112Y-61650438D01*
X174104350Y-61602819D01*
X174199588Y-61602819D01*
X175723398Y-62269485D02*
X175723398Y-61745676D01*
X175675779Y-61650438D01*
X175580541Y-61602819D01*
X175390064Y-61602819D01*
X175294826Y-61650438D01*
X175723398Y-62221866D02*
X175628160Y-62269485D01*
X175390064Y-62269485D01*
X175294826Y-62221866D01*
X175247207Y-62126628D01*
X175247207Y-62031390D01*
X175294826Y-61936152D01*
X175390064Y-61888533D01*
X175628160Y-61888533D01*
X175723398Y-61840914D01*
X176056731Y-61602819D02*
X176437684Y-61602819D01*
X176199588Y-61269485D02*
X176199588Y-62126628D01*
X176247207Y-62221866D01*
X176342445Y-62269485D01*
X176437684Y-62269485D01*
X177437684Y-61602819D02*
X177675779Y-62269485D01*
X177913874Y-61602819D02*
X177675779Y-62269485D01*
X177580541Y-62507581D01*
X177532922Y-62555200D01*
X177437684Y-62602819D01*
X178437684Y-62269485D02*
X178342445Y-62221866D01*
X178294826Y-62174247D01*
X178247207Y-62079009D01*
X178247207Y-61793295D01*
X178294826Y-61698057D01*
X178342445Y-61650438D01*
X178437684Y-61602819D01*
X178580541Y-61602819D01*
X178675779Y-61650438D01*
X178723398Y-61698057D01*
X178771017Y-61793295D01*
X178771017Y-62079009D01*
X178723398Y-62174247D01*
X178675779Y-62221866D01*
X178580541Y-62269485D01*
X178437684Y-62269485D01*
X179628160Y-61602819D02*
X179628160Y-62269485D01*
X179199588Y-61602819D02*
X179199588Y-62126628D01*
X179247207Y-62221866D01*
X179342445Y-62269485D01*
X179485303Y-62269485D01*
X179580541Y-62221866D01*
X179628160Y-62174247D01*
X180104350Y-62269485D02*
X180104350Y-61602819D01*
X180104350Y-61793295D02*
X180151969Y-61698057D01*
X180199588Y-61650438D01*
X180294826Y-61602819D01*
X180390064Y-61602819D01*
X181866255Y-62221866D02*
X181771017Y-62269485D01*
X181580541Y-62269485D01*
X181485303Y-62221866D01*
X181437684Y-62126628D01*
X181437684Y-61745676D01*
X181485303Y-61650438D01*
X181580541Y-61602819D01*
X181771017Y-61602819D01*
X181866255Y-61650438D01*
X181913874Y-61745676D01*
X181913874Y-61840914D01*
X181437684Y-61936152D01*
X182247207Y-61602819D02*
X182485303Y-62269485D01*
X182723398Y-61602819D01*
X183485303Y-62221866D02*
X183390064Y-62269485D01*
X183199588Y-62269485D01*
X183104350Y-62221866D01*
X183056731Y-62126628D01*
X183056731Y-61745676D01*
X183104350Y-61650438D01*
X183199588Y-61602819D01*
X183390064Y-61602819D01*
X183485303Y-61650438D01*
X183532922Y-61745676D01*
X183532922Y-61840914D01*
X183056731Y-61936152D01*
X183961493Y-61602819D02*
X183961493Y-62269485D01*
X183961493Y-61698057D02*
X184009112Y-61650438D01*
X184104350Y-61602819D01*
X184247207Y-61602819D01*
X184342445Y-61650438D01*
X184390064Y-61745676D01*
X184390064Y-62269485D01*
X184723398Y-61602819D02*
X185104350Y-61602819D01*
X184866255Y-61269485D02*
X184866255Y-62126628D01*
X184913874Y-62221866D01*
X185009112Y-62269485D01*
X185104350Y-62269485D01*
X185580541Y-62174247D02*
X185628160Y-62221866D01*
X185580541Y-62269485D01*
X185532922Y-62221866D01*
X185580541Y-62174247D01*
X185580541Y-62269485D01*
X185390064Y-61317105D02*
X185485303Y-61269485D01*
X185723398Y-61269485D01*
X185818636Y-61317105D01*
X185866255Y-61412343D01*
X185866255Y-61507581D01*
X185818636Y-61602819D01*
X185771017Y-61650438D01*
X185675779Y-61698057D01*
X185628160Y-61745676D01*
X185580541Y-61840914D01*
X185580541Y-61888533D01*
X167104350Y-63784247D02*
X167056731Y-63831866D01*
X166913874Y-63879485D01*
X166818636Y-63879485D01*
X166675779Y-63831866D01*
X166580541Y-63736628D01*
X166532922Y-63641390D01*
X166485303Y-63450914D01*
X166485303Y-63308057D01*
X166532922Y-63117581D01*
X166580541Y-63022343D01*
X166675779Y-62927105D01*
X166818636Y-62879485D01*
X166913874Y-62879485D01*
X167056731Y-62927105D01*
X167104350Y-62974724D01*
X167675779Y-63879485D02*
X167580541Y-63831866D01*
X167532922Y-63784247D01*
X167485303Y-63689009D01*
X167485303Y-63403295D01*
X167532922Y-63308057D01*
X167580541Y-63260438D01*
X167675779Y-63212819D01*
X167818636Y-63212819D01*
X167913874Y-63260438D01*
X167961493Y-63308057D01*
X168009112Y-63403295D01*
X168009112Y-63689009D01*
X167961493Y-63784247D01*
X167913874Y-63831866D01*
X167818636Y-63879485D01*
X167675779Y-63879485D01*
X168437684Y-63212819D02*
X168437684Y-63879485D01*
X168437684Y-63308057D02*
X168485303Y-63260438D01*
X168580541Y-63212819D01*
X168723398Y-63212819D01*
X168818636Y-63260438D01*
X168866255Y-63355676D01*
X168866255Y-63879485D01*
X169199588Y-63212819D02*
X169580541Y-63212819D01*
X169342445Y-62879485D02*
X169342445Y-63736628D01*
X169390064Y-63831866D01*
X169485303Y-63879485D01*
X169580541Y-63879485D01*
X170342445Y-63879485D02*
X170342445Y-63355676D01*
X170294826Y-63260438D01*
X170199588Y-63212819D01*
X170009112Y-63212819D01*
X169913874Y-63260438D01*
X170342445Y-63831866D02*
X170247207Y-63879485D01*
X170009112Y-63879485D01*
X169913874Y-63831866D01*
X169866255Y-63736628D01*
X169866255Y-63641390D01*
X169913874Y-63546152D01*
X170009112Y-63498533D01*
X170247207Y-63498533D01*
X170342445Y-63450914D01*
X171247207Y-63831866D02*
X171151969Y-63879485D01*
X170961493Y-63879485D01*
X170866255Y-63831866D01*
X170818636Y-63784247D01*
X170771017Y-63689009D01*
X170771017Y-63403295D01*
X170818636Y-63308057D01*
X170866255Y-63260438D01*
X170961493Y-63212819D01*
X171151969Y-63212819D01*
X171247207Y-63260438D01*
X171532922Y-63212819D02*
X171913874Y-63212819D01*
X171675779Y-62879485D02*
X171675779Y-63736628D01*
X171723398Y-63831866D01*
X171818636Y-63879485D01*
X171913874Y-63879485D01*
X173009112Y-63879485D02*
X173009112Y-63212819D01*
X173009112Y-63308057D02*
X173056731Y-63260438D01*
X173151969Y-63212819D01*
X173294826Y-63212819D01*
X173390064Y-63260438D01*
X173437684Y-63355676D01*
X173437684Y-63879485D01*
X173437684Y-63355676D02*
X173485303Y-63260438D01*
X173580541Y-63212819D01*
X173723398Y-63212819D01*
X173818636Y-63260438D01*
X173866255Y-63355676D01*
X173866255Y-63879485D01*
X174723398Y-63831866D02*
X174628160Y-63879485D01*
X174437684Y-63879485D01*
X174342445Y-63831866D01*
X174294826Y-63736628D01*
X174294826Y-63355676D01*
X174342445Y-63260438D01*
X174437684Y-63212819D01*
X174628160Y-63212819D01*
X174723398Y-63260438D01*
X174771017Y-63355676D01*
X174771017Y-63450914D01*
X174294826Y-63546152D01*
X175818636Y-63403295D02*
X175771017Y-63355676D01*
X175675779Y-63308057D01*
X175580541Y-63308057D01*
X175485303Y-63355676D01*
X175437684Y-63403295D01*
X175390064Y-63498533D01*
X175390064Y-63593771D01*
X175437684Y-63689009D01*
X175485303Y-63736628D01*
X175580541Y-63784247D01*
X175675779Y-63784247D01*
X175771017Y-63736628D01*
X175818636Y-63689009D01*
X175818636Y-63308057D02*
X175818636Y-63689009D01*
X175866255Y-63736628D01*
X175913874Y-63736628D01*
X176009112Y-63689009D01*
X176056731Y-63593771D01*
X176056731Y-63355676D01*
X175961493Y-63212819D01*
X175818636Y-63117581D01*
X175628160Y-63069962D01*
X175437684Y-63117581D01*
X175294826Y-63212819D01*
X175199588Y-63355676D01*
X175151969Y-63546152D01*
X175199588Y-63736628D01*
X175294826Y-63879485D01*
X175437684Y-63974724D01*
X175628160Y-64022343D01*
X175818636Y-63974724D01*
X175961493Y-63879485D01*
X176437684Y-63831866D02*
X176532922Y-63879485D01*
X176723398Y-63879485D01*
X176818636Y-63831866D01*
X176866255Y-63736628D01*
X176866255Y-63689009D01*
X176818636Y-63593771D01*
X176723398Y-63546152D01*
X176580541Y-63546152D01*
X176485303Y-63498533D01*
X176437684Y-63403295D01*
X176437684Y-63355676D01*
X176485303Y-63260438D01*
X176580541Y-63212819D01*
X176723398Y-63212819D01*
X176818636Y-63260438D01*
X177294826Y-63879485D02*
X177294826Y-62879485D01*
X177723398Y-63879485D02*
X177723398Y-63355676D01*
X177675779Y-63260438D01*
X177580541Y-63212819D01*
X177437684Y-63212819D01*
X177342445Y-63260438D01*
X177294826Y-63308057D01*
X178628160Y-63879485D02*
X178628160Y-63355676D01*
X178580541Y-63260438D01*
X178485303Y-63212819D01*
X178294826Y-63212819D01*
X178199588Y-63260438D01*
X178628160Y-63831866D02*
X178532922Y-63879485D01*
X178294826Y-63879485D01*
X178199588Y-63831866D01*
X178151969Y-63736628D01*
X178151969Y-63641390D01*
X178199588Y-63546152D01*
X178294826Y-63498533D01*
X178532922Y-63498533D01*
X178628160Y-63450914D01*
X179009112Y-63212819D02*
X179199588Y-63879485D01*
X179390064Y-63403295D01*
X179580541Y-63879485D01*
X179771017Y-63212819D01*
X180151969Y-63212819D02*
X180151969Y-63879485D01*
X180151969Y-63308057D02*
X180199588Y-63260438D01*
X180294826Y-63212819D01*
X180437684Y-63212819D01*
X180532922Y-63260438D01*
X180580541Y-63355676D01*
X180580541Y-63879485D01*
X181485303Y-63879485D02*
X181485303Y-62879485D01*
X181485303Y-63831866D02*
X181390064Y-63879485D01*
X181199588Y-63879485D01*
X181104350Y-63831866D01*
X181056731Y-63784247D01*
X181009112Y-63689009D01*
X181009112Y-63403295D01*
X181056731Y-63308057D01*
X181104350Y-63260438D01*
X181199588Y-63212819D01*
X181390064Y-63212819D01*
X181485303Y-63260438D01*
X181961493Y-63784247D02*
X182009112Y-63831866D01*
X181961493Y-63879485D01*
X181913874Y-63831866D01*
X181961493Y-63784247D01*
X181961493Y-63879485D01*
X182342445Y-63879485D02*
X182866255Y-63212819D01*
X182342445Y-63212819D02*
X182866255Y-63879485D01*
X183151969Y-63212819D02*
X183390064Y-63879485D01*
X183628160Y-63212819D02*
X183390064Y-63879485D01*
X183294826Y-64117581D01*
X183247207Y-64165200D01*
X183151969Y-64212819D01*
X183913874Y-63212819D02*
X184437684Y-63212819D01*
X183913874Y-63879485D01*
X184437684Y-63879485D01*
X121681904Y-62952380D02*
X121872380Y-62952380D01*
X121967619Y-63000000D01*
X122062857Y-63095238D01*
X122110476Y-63285714D01*
X122110476Y-63619047D01*
X122062857Y-63809523D01*
X121967619Y-63904761D01*
X121872380Y-63952380D01*
X121681904Y-63952380D01*
X121586666Y-63904761D01*
X121491428Y-63809523D01*
X121443809Y-63619047D01*
X121443809Y-63285714D01*
X121491428Y-63095238D01*
X121586666Y-63000000D01*
X121681904Y-62952380D01*
X122539047Y-63952380D02*
X122539047Y-62952380D01*
X123110476Y-63952380D01*
X123110476Y-62952380D01*
%TO.C,PWR-0*%
X147431428Y-61414380D02*
X147431428Y-60414380D01*
X147812380Y-60414380D01*
X147907619Y-60462000D01*
X147955238Y-60509619D01*
X148002857Y-60604857D01*
X148002857Y-60747714D01*
X147955238Y-60842952D01*
X147907619Y-60890571D01*
X147812380Y-60938190D01*
X147431428Y-60938190D01*
X148336190Y-60414380D02*
X148574285Y-61414380D01*
X148764761Y-60700095D01*
X148955238Y-61414380D01*
X149193333Y-60414380D01*
X150145714Y-61414380D02*
X149812380Y-60938190D01*
X149574285Y-61414380D02*
X149574285Y-60414380D01*
X149955238Y-60414380D01*
X150050476Y-60462000D01*
X150098095Y-60509619D01*
X150145714Y-60604857D01*
X150145714Y-60747714D01*
X150098095Y-60842952D01*
X150050476Y-60890571D01*
X149955238Y-60938190D01*
X149574285Y-60938190D01*
X150574285Y-61033428D02*
X151336190Y-61033428D01*
X152002857Y-60414380D02*
X152098095Y-60414380D01*
X152193333Y-60462000D01*
X152240952Y-60509619D01*
X152288571Y-60604857D01*
X152336190Y-60795333D01*
X152336190Y-61033428D01*
X152288571Y-61223904D01*
X152240952Y-61319142D01*
X152193333Y-61366761D01*
X152098095Y-61414380D01*
X152002857Y-61414380D01*
X151907619Y-61366761D01*
X151860000Y-61319142D01*
X151812380Y-61223904D01*
X151764761Y-61033428D01*
X151764761Y-60795333D01*
X151812380Y-60604857D01*
X151860000Y-60509619D01*
X151907619Y-60462000D01*
X152002857Y-60414380D01*
%TO.C,R3*%
X161123333Y-78572380D02*
X160790000Y-78096190D01*
X160551904Y-78572380D02*
X160551904Y-77572380D01*
X160932857Y-77572380D01*
X161028095Y-77620000D01*
X161075714Y-77667619D01*
X161123333Y-77762857D01*
X161123333Y-77905714D01*
X161075714Y-78000952D01*
X161028095Y-78048571D01*
X160932857Y-78096190D01*
X160551904Y-78096190D01*
X161456666Y-77572380D02*
X162075714Y-77572380D01*
X161742380Y-77953333D01*
X161885238Y-77953333D01*
X161980476Y-78000952D01*
X162028095Y-78048571D01*
X162075714Y-78143809D01*
X162075714Y-78381904D01*
X162028095Y-78477142D01*
X161980476Y-78524761D01*
X161885238Y-78572380D01*
X161599523Y-78572380D01*
X161504285Y-78524761D01*
X161456666Y-78477142D01*
%TO.C,LED2*%
X212910952Y-123452380D02*
X212434761Y-123452380D01*
X212434761Y-122452380D01*
X213244285Y-122928571D02*
X213577619Y-122928571D01*
X213720476Y-123452380D02*
X213244285Y-123452380D01*
X213244285Y-122452380D01*
X213720476Y-122452380D01*
X214149047Y-123452380D02*
X214149047Y-122452380D01*
X214387142Y-122452380D01*
X214530000Y-122500000D01*
X214625238Y-122595238D01*
X214672857Y-122690476D01*
X214720476Y-122880952D01*
X214720476Y-123023809D01*
X214672857Y-123214285D01*
X214625238Y-123309523D01*
X214530000Y-123404761D01*
X214387142Y-123452380D01*
X214149047Y-123452380D01*
X215101428Y-122547619D02*
X215149047Y-122500000D01*
X215244285Y-122452380D01*
X215482380Y-122452380D01*
X215577619Y-122500000D01*
X215625238Y-122547619D01*
X215672857Y-122642857D01*
X215672857Y-122738095D01*
X215625238Y-122880952D01*
X215053809Y-123452380D01*
X215672857Y-123452380D01*
%TO.C,IC0*%
X170318809Y-65817380D02*
X170318809Y-64817380D01*
X171366428Y-65722142D02*
X171318809Y-65769761D01*
X171175952Y-65817380D01*
X171080714Y-65817380D01*
X170937857Y-65769761D01*
X170842619Y-65674523D01*
X170795000Y-65579285D01*
X170747380Y-65388809D01*
X170747380Y-65245952D01*
X170795000Y-65055476D01*
X170842619Y-64960238D01*
X170937857Y-64865000D01*
X171080714Y-64817380D01*
X171175952Y-64817380D01*
X171318809Y-64865000D01*
X171366428Y-64912619D01*
X171985476Y-64817380D02*
X172080714Y-64817380D01*
X172175952Y-64865000D01*
X172223571Y-64912619D01*
X172271190Y-65007857D01*
X172318809Y-65198333D01*
X172318809Y-65436428D01*
X172271190Y-65626904D01*
X172223571Y-65722142D01*
X172175952Y-65769761D01*
X172080714Y-65817380D01*
X171985476Y-65817380D01*
X171890238Y-65769761D01*
X171842619Y-65722142D01*
X171795000Y-65626904D01*
X171747380Y-65436428D01*
X171747380Y-65198333D01*
X171795000Y-65007857D01*
X171842619Y-64912619D01*
X171890238Y-64865000D01*
X171985476Y-64817380D01*
%TO.C,LED1*%
X203010952Y-123452380D02*
X202534761Y-123452380D01*
X202534761Y-122452380D01*
X203344285Y-122928571D02*
X203677619Y-122928571D01*
X203820476Y-123452380D02*
X203344285Y-123452380D01*
X203344285Y-122452380D01*
X203820476Y-122452380D01*
X204249047Y-123452380D02*
X204249047Y-122452380D01*
X204487142Y-122452380D01*
X204630000Y-122500000D01*
X204725238Y-122595238D01*
X204772857Y-122690476D01*
X204820476Y-122880952D01*
X204820476Y-123023809D01*
X204772857Y-123214285D01*
X204725238Y-123309523D01*
X204630000Y-123404761D01*
X204487142Y-123452380D01*
X204249047Y-123452380D01*
X205772857Y-123452380D02*
X205201428Y-123452380D01*
X205487142Y-123452380D02*
X205487142Y-122452380D01*
X205391904Y-122595238D01*
X205296666Y-122690476D01*
X205201428Y-122738095D01*
%TO.C,LED0*%
X192019452Y-123452380D02*
X191543261Y-123452380D01*
X191543261Y-122452380D01*
X192352785Y-122928571D02*
X192686119Y-122928571D01*
X192828976Y-123452380D02*
X192352785Y-123452380D01*
X192352785Y-122452380D01*
X192828976Y-122452380D01*
X193257547Y-123452380D02*
X193257547Y-122452380D01*
X193495642Y-122452380D01*
X193638500Y-122500000D01*
X193733738Y-122595238D01*
X193781357Y-122690476D01*
X193828976Y-122880952D01*
X193828976Y-123023809D01*
X193781357Y-123214285D01*
X193733738Y-123309523D01*
X193638500Y-123404761D01*
X193495642Y-123452380D01*
X193257547Y-123452380D01*
X194448023Y-122452380D02*
X194543261Y-122452380D01*
X194638500Y-122500000D01*
X194686119Y-122547619D01*
X194733738Y-122642857D01*
X194781357Y-122833333D01*
X194781357Y-123071428D01*
X194733738Y-123261904D01*
X194686119Y-123357142D01*
X194638500Y-123404761D01*
X194543261Y-123452380D01*
X194448023Y-123452380D01*
X194352785Y-123404761D01*
X194305166Y-123357142D01*
X194257547Y-123261904D01*
X194209928Y-123071428D01*
X194209928Y-122833333D01*
X194257547Y-122642857D01*
X194305166Y-122547619D01*
X194352785Y-122500000D01*
X194448023Y-122452380D01*
%TO.C,PSW0*%
X130235923Y-63539857D02*
X129595923Y-63539857D01*
X129595923Y-63296047D01*
X129626400Y-63235095D01*
X129656876Y-63204619D01*
X129717828Y-63174142D01*
X129809257Y-63174142D01*
X129870209Y-63204619D01*
X129900685Y-63235095D01*
X129931161Y-63296047D01*
X129931161Y-63539857D01*
X130205447Y-62930333D02*
X130235923Y-62838904D01*
X130235923Y-62686523D01*
X130205447Y-62625571D01*
X130174971Y-62595095D01*
X130114019Y-62564619D01*
X130053066Y-62564619D01*
X129992114Y-62595095D01*
X129961638Y-62625571D01*
X129931161Y-62686523D01*
X129900685Y-62808428D01*
X129870209Y-62869380D01*
X129839733Y-62899857D01*
X129778780Y-62930333D01*
X129717828Y-62930333D01*
X129656876Y-62899857D01*
X129626400Y-62869380D01*
X129595923Y-62808428D01*
X129595923Y-62656047D01*
X129626400Y-62564619D01*
X129595923Y-62351285D02*
X130235923Y-62198904D01*
X129778780Y-62077000D01*
X130235923Y-61955095D01*
X129595923Y-61802714D01*
X129595923Y-61437000D02*
X129595923Y-61376047D01*
X129626400Y-61315095D01*
X129656876Y-61284619D01*
X129717828Y-61254142D01*
X129839733Y-61223666D01*
X129992114Y-61223666D01*
X130114019Y-61254142D01*
X130174971Y-61284619D01*
X130205447Y-61315095D01*
X130235923Y-61376047D01*
X130235923Y-61437000D01*
X130205447Y-61497952D01*
X130174971Y-61528428D01*
X130114019Y-61558904D01*
X129992114Y-61589380D01*
X129839733Y-61589380D01*
X129717828Y-61558904D01*
X129656876Y-61528428D01*
X129626400Y-61497952D01*
X129595923Y-61437000D01*
%TO.C,VR0*%
X140930476Y-63762380D02*
X141263809Y-64762380D01*
X141597142Y-63762380D01*
X142501904Y-64762380D02*
X142168571Y-64286190D01*
X141930476Y-64762380D02*
X141930476Y-63762380D01*
X142311428Y-63762380D01*
X142406666Y-63810000D01*
X142454285Y-63857619D01*
X142501904Y-63952857D01*
X142501904Y-64095714D01*
X142454285Y-64190952D01*
X142406666Y-64238571D01*
X142311428Y-64286190D01*
X141930476Y-64286190D01*
X143120952Y-63762380D02*
X143216190Y-63762380D01*
X143311428Y-63810000D01*
X143359047Y-63857619D01*
X143406666Y-63952857D01*
X143454285Y-64143333D01*
X143454285Y-64381428D01*
X143406666Y-64571904D01*
X143359047Y-64667142D01*
X143311428Y-64714761D01*
X143216190Y-64762380D01*
X143120952Y-64762380D01*
X143025714Y-64714761D01*
X142978095Y-64667142D01*
X142930476Y-64571904D01*
X142882857Y-64381428D01*
X142882857Y-64143333D01*
X142930476Y-63952857D01*
X142978095Y-63857619D01*
X143025714Y-63810000D01*
X143120952Y-63762380D01*
%TO.C,R1*%
X136163333Y-83392380D02*
X135830000Y-82916190D01*
X135591904Y-83392380D02*
X135591904Y-82392380D01*
X135972857Y-82392380D01*
X136068095Y-82440000D01*
X136115714Y-82487619D01*
X136163333Y-82582857D01*
X136163333Y-82725714D01*
X136115714Y-82820952D01*
X136068095Y-82868571D01*
X135972857Y-82916190D01*
X135591904Y-82916190D01*
X137115714Y-83392380D02*
X136544285Y-83392380D01*
X136830000Y-83392380D02*
X136830000Y-82392380D01*
X136734761Y-82535238D01*
X136639523Y-82630476D01*
X136544285Y-82678095D01*
%TO.C,IC1*%
X151423809Y-111212380D02*
X151423809Y-110212380D01*
X152471428Y-111117142D02*
X152423809Y-111164761D01*
X152280952Y-111212380D01*
X152185714Y-111212380D01*
X152042857Y-111164761D01*
X151947619Y-111069523D01*
X151900000Y-110974285D01*
X151852380Y-110783809D01*
X151852380Y-110640952D01*
X151900000Y-110450476D01*
X151947619Y-110355238D01*
X152042857Y-110260000D01*
X152185714Y-110212380D01*
X152280952Y-110212380D01*
X152423809Y-110260000D01*
X152471428Y-110307619D01*
X153423809Y-111212380D02*
X152852380Y-111212380D01*
X153138095Y-111212380D02*
X153138095Y-110212380D01*
X153042857Y-110355238D01*
X152947619Y-110450476D01*
X152852380Y-110498095D01*
%TO.C,R4*%
X161123333Y-83652380D02*
X160790000Y-83176190D01*
X160551904Y-83652380D02*
X160551904Y-82652380D01*
X160932857Y-82652380D01*
X161028095Y-82700000D01*
X161075714Y-82747619D01*
X161123333Y-82842857D01*
X161123333Y-82985714D01*
X161075714Y-83080952D01*
X161028095Y-83128571D01*
X160932857Y-83176190D01*
X160551904Y-83176190D01*
X161980476Y-82985714D02*
X161980476Y-83652380D01*
X161742380Y-82604761D02*
X161504285Y-83319047D01*
X162123333Y-83319047D01*
%TO.C,CTRL0*%
X201747619Y-86717142D02*
X201700000Y-86764761D01*
X201557142Y-86812380D01*
X201461904Y-86812380D01*
X201319047Y-86764761D01*
X201223809Y-86669523D01*
X201176190Y-86574285D01*
X201128571Y-86383809D01*
X201128571Y-86240952D01*
X201176190Y-86050476D01*
X201223809Y-85955238D01*
X201319047Y-85860000D01*
X201461904Y-85812380D01*
X201557142Y-85812380D01*
X201700000Y-85860000D01*
X201747619Y-85907619D01*
X202033333Y-85812380D02*
X202604761Y-85812380D01*
X202319047Y-86812380D02*
X202319047Y-85812380D01*
X203509523Y-86812380D02*
X203176190Y-86336190D01*
X202938095Y-86812380D02*
X202938095Y-85812380D01*
X203319047Y-85812380D01*
X203414285Y-85860000D01*
X203461904Y-85907619D01*
X203509523Y-86002857D01*
X203509523Y-86145714D01*
X203461904Y-86240952D01*
X203414285Y-86288571D01*
X203319047Y-86336190D01*
X202938095Y-86336190D01*
X204414285Y-86812380D02*
X203938095Y-86812380D01*
X203938095Y-85812380D01*
X204938095Y-85812380D02*
X205033333Y-85812380D01*
X205128571Y-85860000D01*
X205176190Y-85907619D01*
X205223809Y-86002857D01*
X205271428Y-86193333D01*
X205271428Y-86431428D01*
X205223809Y-86621904D01*
X205176190Y-86717142D01*
X205128571Y-86764761D01*
X205033333Y-86812380D01*
X204938095Y-86812380D01*
X204842857Y-86764761D01*
X204795238Y-86717142D01*
X204747619Y-86621904D01*
X204700000Y-86431428D01*
X204700000Y-86193333D01*
X204747619Y-86002857D01*
X204795238Y-85907619D01*
X204842857Y-85860000D01*
X204938095Y-85812380D01*
X191008095Y-75652380D02*
X191579523Y-75652380D01*
X191293809Y-76652380D02*
X191293809Y-75652380D01*
X191817619Y-75652380D02*
X192484285Y-76652380D01*
X192484285Y-75652380D02*
X191817619Y-76652380D01*
X191031904Y-104592380D02*
X191031904Y-103592380D01*
X191270000Y-103592380D01*
X191412857Y-103640000D01*
X191508095Y-103735238D01*
X191555714Y-103830476D01*
X191603333Y-104020952D01*
X191603333Y-104163809D01*
X191555714Y-104354285D01*
X191508095Y-104449523D01*
X191412857Y-104544761D01*
X191270000Y-104592380D01*
X191031904Y-104592380D01*
X192555714Y-104592380D02*
X191984285Y-104592380D01*
X192270000Y-104592380D02*
X192270000Y-103592380D01*
X192174761Y-103735238D01*
X192079523Y-103830476D01*
X191984285Y-103878095D01*
X191031904Y-86812380D02*
X191031904Y-85812380D01*
X191270000Y-85812380D01*
X191412857Y-85860000D01*
X191508095Y-85955238D01*
X191555714Y-86050476D01*
X191603333Y-86240952D01*
X191603333Y-86383809D01*
X191555714Y-86574285D01*
X191508095Y-86669523D01*
X191412857Y-86764761D01*
X191270000Y-86812380D01*
X191031904Y-86812380D01*
X192460476Y-85812380D02*
X192270000Y-85812380D01*
X192174761Y-85860000D01*
X192127142Y-85907619D01*
X192031904Y-86050476D01*
X191984285Y-86240952D01*
X191984285Y-86621904D01*
X192031904Y-86717142D01*
X192079523Y-86764761D01*
X192174761Y-86812380D01*
X192365238Y-86812380D01*
X192460476Y-86764761D01*
X192508095Y-86717142D01*
X192555714Y-86621904D01*
X192555714Y-86383809D01*
X192508095Y-86288571D01*
X192460476Y-86240952D01*
X192365238Y-86193333D01*
X192174761Y-86193333D01*
X192079523Y-86240952D01*
X192031904Y-86288571D01*
X191984285Y-86383809D01*
X213891904Y-78668571D02*
X214225238Y-78668571D01*
X214368095Y-79192380D02*
X213891904Y-79192380D01*
X213891904Y-78192380D01*
X214368095Y-78192380D01*
X214796666Y-79192380D02*
X214796666Y-78192380D01*
X215368095Y-79192380D01*
X215368095Y-78192380D01*
X191603333Y-79192380D02*
X191270000Y-78716190D01*
X191031904Y-79192380D02*
X191031904Y-78192380D01*
X191412857Y-78192380D01*
X191508095Y-78240000D01*
X191555714Y-78287619D01*
X191603333Y-78382857D01*
X191603333Y-78525714D01*
X191555714Y-78620952D01*
X191508095Y-78668571D01*
X191412857Y-78716190D01*
X191031904Y-78716190D01*
X191936666Y-78192380D02*
X192603333Y-79192380D01*
X192603333Y-78192380D02*
X191936666Y-79192380D01*
X191031904Y-89352380D02*
X191031904Y-88352380D01*
X191270000Y-88352380D01*
X191412857Y-88400000D01*
X191508095Y-88495238D01*
X191555714Y-88590476D01*
X191603333Y-88780952D01*
X191603333Y-88923809D01*
X191555714Y-89114285D01*
X191508095Y-89209523D01*
X191412857Y-89304761D01*
X191270000Y-89352380D01*
X191031904Y-89352380D01*
X192508095Y-88352380D02*
X192031904Y-88352380D01*
X191984285Y-88828571D01*
X192031904Y-88780952D01*
X192127142Y-88733333D01*
X192365238Y-88733333D01*
X192460476Y-88780952D01*
X192508095Y-88828571D01*
X192555714Y-88923809D01*
X192555714Y-89161904D01*
X192508095Y-89257142D01*
X192460476Y-89304761D01*
X192365238Y-89352380D01*
X192127142Y-89352380D01*
X192031904Y-89304761D01*
X191984285Y-89257142D01*
X191031904Y-84272380D02*
X191031904Y-83272380D01*
X191270000Y-83272380D01*
X191412857Y-83320000D01*
X191508095Y-83415238D01*
X191555714Y-83510476D01*
X191603333Y-83700952D01*
X191603333Y-83843809D01*
X191555714Y-84034285D01*
X191508095Y-84129523D01*
X191412857Y-84224761D01*
X191270000Y-84272380D01*
X191031904Y-84272380D01*
X191936666Y-83272380D02*
X192603333Y-83272380D01*
X192174761Y-84272380D01*
X191031904Y-99512380D02*
X191031904Y-98512380D01*
X191270000Y-98512380D01*
X191412857Y-98560000D01*
X191508095Y-98655238D01*
X191555714Y-98750476D01*
X191603333Y-98940952D01*
X191603333Y-99083809D01*
X191555714Y-99274285D01*
X191508095Y-99369523D01*
X191412857Y-99464761D01*
X191270000Y-99512380D01*
X191031904Y-99512380D01*
X191936666Y-98512380D02*
X192555714Y-98512380D01*
X192222380Y-98893333D01*
X192365238Y-98893333D01*
X192460476Y-98940952D01*
X192508095Y-98988571D01*
X192555714Y-99083809D01*
X192555714Y-99321904D01*
X192508095Y-99417142D01*
X192460476Y-99464761D01*
X192365238Y-99512380D01*
X192079523Y-99512380D01*
X191984285Y-99464761D01*
X191936666Y-99417142D01*
X213868095Y-99464761D02*
X214010952Y-99512380D01*
X214249047Y-99512380D01*
X214344285Y-99464761D01*
X214391904Y-99417142D01*
X214439523Y-99321904D01*
X214439523Y-99226666D01*
X214391904Y-99131428D01*
X214344285Y-99083809D01*
X214249047Y-99036190D01*
X214058571Y-98988571D01*
X213963333Y-98940952D01*
X213915714Y-98893333D01*
X213868095Y-98798095D01*
X213868095Y-98702857D01*
X213915714Y-98607619D01*
X213963333Y-98560000D01*
X214058571Y-98512380D01*
X214296666Y-98512380D01*
X214439523Y-98560000D01*
X214772857Y-98512380D02*
X215391904Y-98512380D01*
X215058571Y-98893333D01*
X215201428Y-98893333D01*
X215296666Y-98940952D01*
X215344285Y-98988571D01*
X215391904Y-99083809D01*
X215391904Y-99321904D01*
X215344285Y-99417142D01*
X215296666Y-99464761D01*
X215201428Y-99512380D01*
X214915714Y-99512380D01*
X214820476Y-99464761D01*
X214772857Y-99417142D01*
X213868095Y-94384761D02*
X214010952Y-94432380D01*
X214249047Y-94432380D01*
X214344285Y-94384761D01*
X214391904Y-94337142D01*
X214439523Y-94241904D01*
X214439523Y-94146666D01*
X214391904Y-94051428D01*
X214344285Y-94003809D01*
X214249047Y-93956190D01*
X214058571Y-93908571D01*
X213963333Y-93860952D01*
X213915714Y-93813333D01*
X213868095Y-93718095D01*
X213868095Y-93622857D01*
X213915714Y-93527619D01*
X213963333Y-93480000D01*
X214058571Y-93432380D01*
X214296666Y-93432380D01*
X214439523Y-93480000D01*
X215391904Y-94432380D02*
X214820476Y-94432380D01*
X215106190Y-94432380D02*
X215106190Y-93432380D01*
X215010952Y-93575238D01*
X214915714Y-93670476D01*
X214820476Y-93718095D01*
X213844285Y-86764761D02*
X213987142Y-86812380D01*
X214225238Y-86812380D01*
X214320476Y-86764761D01*
X214368095Y-86717142D01*
X214415714Y-86621904D01*
X214415714Y-86526666D01*
X214368095Y-86431428D01*
X214320476Y-86383809D01*
X214225238Y-86336190D01*
X214034761Y-86288571D01*
X213939523Y-86240952D01*
X213891904Y-86193333D01*
X213844285Y-86098095D01*
X213844285Y-86002857D01*
X213891904Y-85907619D01*
X213939523Y-85860000D01*
X214034761Y-85812380D01*
X214272857Y-85812380D01*
X214415714Y-85860000D01*
X214844285Y-86812380D02*
X214844285Y-85812380D01*
X215415714Y-86812380D02*
X214987142Y-86240952D01*
X215415714Y-85812380D02*
X214844285Y-86383809D01*
X213915714Y-106846666D02*
X214391904Y-106846666D01*
X213820476Y-107132380D02*
X214153809Y-106132380D01*
X214487142Y-107132380D01*
X215010952Y-106132380D02*
X215106190Y-106132380D01*
X215201428Y-106180000D01*
X215249047Y-106227619D01*
X215296666Y-106322857D01*
X215344285Y-106513333D01*
X215344285Y-106751428D01*
X215296666Y-106941904D01*
X215249047Y-107037142D01*
X215201428Y-107084761D01*
X215106190Y-107132380D01*
X215010952Y-107132380D01*
X214915714Y-107084761D01*
X214868095Y-107037142D01*
X214820476Y-106941904D01*
X214772857Y-106751428D01*
X214772857Y-106513333D01*
X214820476Y-106322857D01*
X214868095Y-106227619D01*
X214915714Y-106180000D01*
X215010952Y-106132380D01*
X214082380Y-76652380D02*
X213749047Y-76176190D01*
X213510952Y-76652380D02*
X213510952Y-75652380D01*
X213891904Y-75652380D01*
X213987142Y-75700000D01*
X214034761Y-75747619D01*
X214082380Y-75842857D01*
X214082380Y-75985714D01*
X214034761Y-76080952D01*
X213987142Y-76128571D01*
X213891904Y-76176190D01*
X213510952Y-76176190D01*
X214463333Y-76604761D02*
X214606190Y-76652380D01*
X214844285Y-76652380D01*
X214939523Y-76604761D01*
X214987142Y-76557142D01*
X215034761Y-76461904D01*
X215034761Y-76366666D01*
X214987142Y-76271428D01*
X214939523Y-76223809D01*
X214844285Y-76176190D01*
X214653809Y-76128571D01*
X214558571Y-76080952D01*
X214510952Y-76033333D01*
X214463333Y-75938095D01*
X214463333Y-75842857D01*
X214510952Y-75747619D01*
X214558571Y-75700000D01*
X214653809Y-75652380D01*
X214891904Y-75652380D01*
X215034761Y-75700000D01*
X215320476Y-75652380D02*
X215891904Y-75652380D01*
X215606190Y-76652380D02*
X215606190Y-75652380D01*
X213868095Y-96924761D02*
X214010952Y-96972380D01*
X214249047Y-96972380D01*
X214344285Y-96924761D01*
X214391904Y-96877142D01*
X214439523Y-96781904D01*
X214439523Y-96686666D01*
X214391904Y-96591428D01*
X214344285Y-96543809D01*
X214249047Y-96496190D01*
X214058571Y-96448571D01*
X213963333Y-96400952D01*
X213915714Y-96353333D01*
X213868095Y-96258095D01*
X213868095Y-96162857D01*
X213915714Y-96067619D01*
X213963333Y-96020000D01*
X214058571Y-95972380D01*
X214296666Y-95972380D01*
X214439523Y-96020000D01*
X214820476Y-96067619D02*
X214868095Y-96020000D01*
X214963333Y-95972380D01*
X215201428Y-95972380D01*
X215296666Y-96020000D01*
X215344285Y-96067619D01*
X215391904Y-96162857D01*
X215391904Y-96258095D01*
X215344285Y-96400952D01*
X214772857Y-96972380D01*
X215391904Y-96972380D01*
X214891904Y-83320000D02*
X214796666Y-83272380D01*
X214653809Y-83272380D01*
X214510952Y-83320000D01*
X214415714Y-83415238D01*
X214368095Y-83510476D01*
X214320476Y-83700952D01*
X214320476Y-83843809D01*
X214368095Y-84034285D01*
X214415714Y-84129523D01*
X214510952Y-84224761D01*
X214653809Y-84272380D01*
X214749047Y-84272380D01*
X214891904Y-84224761D01*
X214939523Y-84177142D01*
X214939523Y-83843809D01*
X214749047Y-83843809D01*
X214891904Y-73160000D02*
X214796666Y-73112380D01*
X214653809Y-73112380D01*
X214510952Y-73160000D01*
X214415714Y-73255238D01*
X214368095Y-73350476D01*
X214320476Y-73540952D01*
X214320476Y-73683809D01*
X214368095Y-73874285D01*
X214415714Y-73969523D01*
X214510952Y-74064761D01*
X214653809Y-74112380D01*
X214749047Y-74112380D01*
X214891904Y-74064761D01*
X214939523Y-74017142D01*
X214939523Y-73683809D01*
X214749047Y-73683809D01*
X192031904Y-73160000D02*
X191936666Y-73112380D01*
X191793809Y-73112380D01*
X191650952Y-73160000D01*
X191555714Y-73255238D01*
X191508095Y-73350476D01*
X191460476Y-73540952D01*
X191460476Y-73683809D01*
X191508095Y-73874285D01*
X191555714Y-73969523D01*
X191650952Y-74064761D01*
X191793809Y-74112380D01*
X191889047Y-74112380D01*
X192031904Y-74064761D01*
X192079523Y-74017142D01*
X192079523Y-73683809D01*
X191889047Y-73683809D01*
X191031904Y-107132380D02*
X191031904Y-106132380D01*
X191270000Y-106132380D01*
X191412857Y-106180000D01*
X191508095Y-106275238D01*
X191555714Y-106370476D01*
X191603333Y-106560952D01*
X191603333Y-106703809D01*
X191555714Y-106894285D01*
X191508095Y-106989523D01*
X191412857Y-107084761D01*
X191270000Y-107132380D01*
X191031904Y-107132380D01*
X192222380Y-106132380D02*
X192317619Y-106132380D01*
X192412857Y-106180000D01*
X192460476Y-106227619D01*
X192508095Y-106322857D01*
X192555714Y-106513333D01*
X192555714Y-106751428D01*
X192508095Y-106941904D01*
X192460476Y-107037142D01*
X192412857Y-107084761D01*
X192317619Y-107132380D01*
X192222380Y-107132380D01*
X192127142Y-107084761D01*
X192079523Y-107037142D01*
X192031904Y-106941904D01*
X191984285Y-106751428D01*
X191984285Y-106513333D01*
X192031904Y-106322857D01*
X192079523Y-106227619D01*
X192127142Y-106180000D01*
X192222380Y-106132380D01*
X213868095Y-80732380D02*
X214487142Y-80732380D01*
X214153809Y-81113333D01*
X214296666Y-81113333D01*
X214391904Y-81160952D01*
X214439523Y-81208571D01*
X214487142Y-81303809D01*
X214487142Y-81541904D01*
X214439523Y-81637142D01*
X214391904Y-81684761D01*
X214296666Y-81732380D01*
X214010952Y-81732380D01*
X213915714Y-81684761D01*
X213868095Y-81637142D01*
X214772857Y-80732380D02*
X215106190Y-81732380D01*
X215439523Y-80732380D01*
X214891904Y-103640000D02*
X214796666Y-103592380D01*
X214653809Y-103592380D01*
X214510952Y-103640000D01*
X214415714Y-103735238D01*
X214368095Y-103830476D01*
X214320476Y-104020952D01*
X214320476Y-104163809D01*
X214368095Y-104354285D01*
X214415714Y-104449523D01*
X214510952Y-104544761D01*
X214653809Y-104592380D01*
X214749047Y-104592380D01*
X214891904Y-104544761D01*
X214939523Y-104497142D01*
X214939523Y-104163809D01*
X214749047Y-104163809D01*
X213534761Y-70572380D02*
X213868095Y-71572380D01*
X214201428Y-70572380D01*
X214534761Y-71572380D02*
X214534761Y-70572380D01*
X215010952Y-71572380D02*
X215010952Y-70572380D01*
X215582380Y-71572380D01*
X215582380Y-70572380D01*
X191031904Y-81732380D02*
X191031904Y-80732380D01*
X191270000Y-80732380D01*
X191412857Y-80780000D01*
X191508095Y-80875238D01*
X191555714Y-80970476D01*
X191603333Y-81160952D01*
X191603333Y-81303809D01*
X191555714Y-81494285D01*
X191508095Y-81589523D01*
X191412857Y-81684761D01*
X191270000Y-81732380D01*
X191031904Y-81732380D01*
X192174761Y-81160952D02*
X192079523Y-81113333D01*
X192031904Y-81065714D01*
X191984285Y-80970476D01*
X191984285Y-80922857D01*
X192031904Y-80827619D01*
X192079523Y-80780000D01*
X192174761Y-80732380D01*
X192365238Y-80732380D01*
X192460476Y-80780000D01*
X192508095Y-80827619D01*
X192555714Y-80922857D01*
X192555714Y-80970476D01*
X192508095Y-81065714D01*
X192460476Y-81113333D01*
X192365238Y-81160952D01*
X192174761Y-81160952D01*
X192079523Y-81208571D01*
X192031904Y-81256190D01*
X191984285Y-81351428D01*
X191984285Y-81541904D01*
X192031904Y-81637142D01*
X192079523Y-81684761D01*
X192174761Y-81732380D01*
X192365238Y-81732380D01*
X192460476Y-81684761D01*
X192508095Y-81637142D01*
X192555714Y-81541904D01*
X192555714Y-81351428D01*
X192508095Y-81256190D01*
X192460476Y-81208571D01*
X192365238Y-81160952D01*
X191031904Y-102052380D02*
X191031904Y-101052380D01*
X191270000Y-101052380D01*
X191412857Y-101100000D01*
X191508095Y-101195238D01*
X191555714Y-101290476D01*
X191603333Y-101480952D01*
X191603333Y-101623809D01*
X191555714Y-101814285D01*
X191508095Y-101909523D01*
X191412857Y-102004761D01*
X191270000Y-102052380D01*
X191031904Y-102052380D01*
X191984285Y-101147619D02*
X192031904Y-101100000D01*
X192127142Y-101052380D01*
X192365238Y-101052380D01*
X192460476Y-101100000D01*
X192508095Y-101147619D01*
X192555714Y-101242857D01*
X192555714Y-101338095D01*
X192508095Y-101480952D01*
X191936666Y-102052380D01*
X192555714Y-102052380D01*
X213772857Y-101052380D02*
X214106190Y-102052380D01*
X214439523Y-101052380D01*
X214772857Y-101052380D02*
X214772857Y-101861904D01*
X214820476Y-101957142D01*
X214868095Y-102004761D01*
X214963333Y-102052380D01*
X215153809Y-102052380D01*
X215249047Y-102004761D01*
X215296666Y-101957142D01*
X215344285Y-101861904D01*
X215344285Y-101052380D01*
X191008095Y-93432380D02*
X191627142Y-93432380D01*
X191293809Y-93813333D01*
X191436666Y-93813333D01*
X191531904Y-93860952D01*
X191579523Y-93908571D01*
X191627142Y-94003809D01*
X191627142Y-94241904D01*
X191579523Y-94337142D01*
X191531904Y-94384761D01*
X191436666Y-94432380D01*
X191150952Y-94432380D01*
X191055714Y-94384761D01*
X191008095Y-94337142D01*
X191912857Y-93432380D02*
X192246190Y-94432380D01*
X192579523Y-93432380D01*
X192031904Y-90940000D02*
X191936666Y-90892380D01*
X191793809Y-90892380D01*
X191650952Y-90940000D01*
X191555714Y-91035238D01*
X191508095Y-91130476D01*
X191460476Y-91320952D01*
X191460476Y-91463809D01*
X191508095Y-91654285D01*
X191555714Y-91749523D01*
X191650952Y-91844761D01*
X191793809Y-91892380D01*
X191889047Y-91892380D01*
X192031904Y-91844761D01*
X192079523Y-91797142D01*
X192079523Y-91463809D01*
X191889047Y-91463809D01*
X213844285Y-91844761D02*
X213987142Y-91892380D01*
X214225238Y-91892380D01*
X214320476Y-91844761D01*
X214368095Y-91797142D01*
X214415714Y-91701904D01*
X214415714Y-91606666D01*
X214368095Y-91511428D01*
X214320476Y-91463809D01*
X214225238Y-91416190D01*
X214034761Y-91368571D01*
X213939523Y-91320952D01*
X213891904Y-91273333D01*
X213844285Y-91178095D01*
X213844285Y-91082857D01*
X213891904Y-90987619D01*
X213939523Y-90940000D01*
X214034761Y-90892380D01*
X214272857Y-90892380D01*
X214415714Y-90940000D01*
X215415714Y-91797142D02*
X215368095Y-91844761D01*
X215225238Y-91892380D01*
X215130000Y-91892380D01*
X214987142Y-91844761D01*
X214891904Y-91749523D01*
X214844285Y-91654285D01*
X214796666Y-91463809D01*
X214796666Y-91320952D01*
X214844285Y-91130476D01*
X214891904Y-91035238D01*
X214987142Y-90940000D01*
X215130000Y-90892380D01*
X215225238Y-90892380D01*
X215368095Y-90940000D01*
X215415714Y-90987619D01*
X191008095Y-70572380D02*
X191627142Y-70572380D01*
X191293809Y-70953333D01*
X191436666Y-70953333D01*
X191531904Y-71000952D01*
X191579523Y-71048571D01*
X191627142Y-71143809D01*
X191627142Y-71381904D01*
X191579523Y-71477142D01*
X191531904Y-71524761D01*
X191436666Y-71572380D01*
X191150952Y-71572380D01*
X191055714Y-71524761D01*
X191008095Y-71477142D01*
X191912857Y-70572380D02*
X192246190Y-71572380D01*
X192579523Y-70572380D01*
X191031904Y-96972380D02*
X191031904Y-95972380D01*
X191270000Y-95972380D01*
X191412857Y-96020000D01*
X191508095Y-96115238D01*
X191555714Y-96210476D01*
X191603333Y-96400952D01*
X191603333Y-96543809D01*
X191555714Y-96734285D01*
X191508095Y-96829523D01*
X191412857Y-96924761D01*
X191270000Y-96972380D01*
X191031904Y-96972380D01*
X192460476Y-96305714D02*
X192460476Y-96972380D01*
X192222380Y-95924761D02*
X191984285Y-96639047D01*
X192603333Y-96639047D01*
X213820476Y-89304761D02*
X213963333Y-89352380D01*
X214201428Y-89352380D01*
X214296666Y-89304761D01*
X214344285Y-89257142D01*
X214391904Y-89161904D01*
X214391904Y-89066666D01*
X214344285Y-88971428D01*
X214296666Y-88923809D01*
X214201428Y-88876190D01*
X214010952Y-88828571D01*
X213915714Y-88780952D01*
X213868095Y-88733333D01*
X213820476Y-88638095D01*
X213820476Y-88542857D01*
X213868095Y-88447619D01*
X213915714Y-88400000D01*
X214010952Y-88352380D01*
X214249047Y-88352380D01*
X214391904Y-88400000D01*
X215010952Y-88352380D02*
X215201428Y-88352380D01*
X215296666Y-88400000D01*
X215391904Y-88495238D01*
X215439523Y-88685714D01*
X215439523Y-89019047D01*
X215391904Y-89209523D01*
X215296666Y-89304761D01*
X215201428Y-89352380D01*
X215010952Y-89352380D01*
X214915714Y-89304761D01*
X214820476Y-89209523D01*
X214772857Y-89019047D01*
X214772857Y-88685714D01*
X214820476Y-88495238D01*
X214915714Y-88400000D01*
X215010952Y-88352380D01*
%TO.C,R2*%
X136163333Y-88472380D02*
X135830000Y-87996190D01*
X135591904Y-88472380D02*
X135591904Y-87472380D01*
X135972857Y-87472380D01*
X136068095Y-87520000D01*
X136115714Y-87567619D01*
X136163333Y-87662857D01*
X136163333Y-87805714D01*
X136115714Y-87900952D01*
X136068095Y-87948571D01*
X135972857Y-87996190D01*
X135591904Y-87996190D01*
X136544285Y-87567619D02*
X136591904Y-87520000D01*
X136687142Y-87472380D01*
X136925238Y-87472380D01*
X137020476Y-87520000D01*
X137068095Y-87567619D01*
X137115714Y-87662857D01*
X137115714Y-87758095D01*
X137068095Y-87900952D01*
X136496666Y-88472380D01*
X137115714Y-88472380D01*
%TO.C,R0*%
X136163333Y-78312380D02*
X135830000Y-77836190D01*
X135591904Y-78312380D02*
X135591904Y-77312380D01*
X135972857Y-77312380D01*
X136068095Y-77360000D01*
X136115714Y-77407619D01*
X136163333Y-77502857D01*
X136163333Y-77645714D01*
X136115714Y-77740952D01*
X136068095Y-77788571D01*
X135972857Y-77836190D01*
X135591904Y-77836190D01*
X136782380Y-77312380D02*
X136877619Y-77312380D01*
X136972857Y-77360000D01*
X137020476Y-77407619D01*
X137068095Y-77502857D01*
X137115714Y-77693333D01*
X137115714Y-77931428D01*
X137068095Y-78121904D01*
X137020476Y-78217142D01*
X136972857Y-78264761D01*
X136877619Y-78312380D01*
X136782380Y-78312380D01*
X136687142Y-78264761D01*
X136639523Y-78217142D01*
X136591904Y-78121904D01*
X136544285Y-77931428D01*
X136544285Y-77693333D01*
X136591904Y-77502857D01*
X136639523Y-77407619D01*
X136687142Y-77360000D01*
X136782380Y-77312380D01*
%TO.C,PWR+0*%
X132191428Y-61414380D02*
X132191428Y-60414380D01*
X132572380Y-60414380D01*
X132667619Y-60462000D01*
X132715238Y-60509619D01*
X132762857Y-60604857D01*
X132762857Y-60747714D01*
X132715238Y-60842952D01*
X132667619Y-60890571D01*
X132572380Y-60938190D01*
X132191428Y-60938190D01*
X133096190Y-60414380D02*
X133334285Y-61414380D01*
X133524761Y-60700095D01*
X133715238Y-61414380D01*
X133953333Y-60414380D01*
X134905714Y-61414380D02*
X134572380Y-60938190D01*
X134334285Y-61414380D02*
X134334285Y-60414380D01*
X134715238Y-60414380D01*
X134810476Y-60462000D01*
X134858095Y-60509619D01*
X134905714Y-60604857D01*
X134905714Y-60747714D01*
X134858095Y-60842952D01*
X134810476Y-60890571D01*
X134715238Y-60938190D01*
X134334285Y-60938190D01*
X135334285Y-61033428D02*
X136096190Y-61033428D01*
X135715238Y-61414380D02*
X135715238Y-60652476D01*
X136762857Y-60414380D02*
X136858095Y-60414380D01*
X136953333Y-60462000D01*
X137000952Y-60509619D01*
X137048571Y-60604857D01*
X137096190Y-60795333D01*
X137096190Y-61033428D01*
X137048571Y-61223904D01*
X137000952Y-61319142D01*
X136953333Y-61366761D01*
X136858095Y-61414380D01*
X136762857Y-61414380D01*
X136667619Y-61366761D01*
X136620000Y-61319142D01*
X136572380Y-61223904D01*
X136524761Y-61033428D01*
X136524761Y-60795333D01*
X136572380Y-60604857D01*
X136620000Y-60509619D01*
X136667619Y-60462000D01*
X136762857Y-60414380D01*
D11*
%TO.C,PWR-0*%
X156140000Y-60960000D02*
G75*
G03*
X156140000Y-60960000I-1200000J0D01*
G01*
%TO.C,R3*%
X163210000Y-75280000D02*
X159370000Y-75280000D01*
X159370000Y-75280000D02*
X159370000Y-77120000D01*
X163210000Y-77120000D02*
X163210000Y-75280000D01*
X164160000Y-76200000D02*
X163210000Y-76200000D01*
X159370000Y-77120000D02*
X163210000Y-77120000D01*
X158420000Y-76200000D02*
X159370000Y-76200000D01*
%TO.C,LED2*%
X211470000Y-125415000D02*
X211470000Y-128505000D01*
X217020000Y-126960462D02*
G75*
G03*
X211470000Y-125415170I-2990000J462D01*
G01*
X211470000Y-128504830D02*
G75*
G03*
X217020000Y-126959538I2560000J1544830D01*
G01*
X216530000Y-126960000D02*
G75*
G03*
X216530000Y-126960000I-2500000J0D01*
G01*
D12*
%TO.C,IC0*%
X169545000Y-85975000D02*
X175895000Y-85975000D01*
X169545000Y-66425000D02*
X175895000Y-66425000D01*
D13*
X167785000Y-67310000D02*
G75*
G03*
X167785000Y-67310000I-100000J0D01*
G01*
D11*
%TO.C,LED1*%
X201570000Y-125415000D02*
X201570000Y-128505000D01*
X201570000Y-128504830D02*
G75*
G03*
X207120000Y-126959538I2560000J1544830D01*
G01*
X207120000Y-126960462D02*
G75*
G03*
X201570000Y-125415170I-2990000J462D01*
G01*
X206630000Y-126960000D02*
G75*
G03*
X206630000Y-126960000I-2500000J0D01*
G01*
%TO.C,LED0*%
X190578500Y-128040000D02*
X190578500Y-128505000D01*
X190578500Y-125415000D02*
X190578500Y-125880000D01*
X195392979Y-125879571D02*
G75*
G03*
X190883816Y-125880000I-2254479J-1080429D01*
G01*
X190578500Y-128504830D02*
G75*
G03*
X195926315Y-128040827I2560000J1544830D01*
G01*
X195926315Y-125879173D02*
G75*
G03*
X190578500Y-125415170I-2787815J-1080827D01*
G01*
X190883816Y-128040000D02*
G75*
G03*
X195392979Y-128040429I2254684J1080000D01*
G01*
D12*
%TO.C,PSW0*%
X125000000Y-71880000D02*
X129000000Y-71880000D01*
X125000000Y-60280000D02*
X125000000Y-71880000D01*
X129000000Y-60280000D02*
X125000000Y-60280000D01*
X129000000Y-71880000D02*
X129000000Y-60280000D01*
D13*
X127100000Y-59580000D02*
G75*
G03*
X127100000Y-59580000I-100000J0D01*
G01*
D11*
%TO.C,VR0*%
X137120000Y-69951000D02*
X147360000Y-69951000D01*
X144091000Y-65310000D02*
X144091000Y-66820000D01*
X140390000Y-65310000D02*
X140390000Y-66820000D01*
X137120000Y-66820000D02*
X147360000Y-66820000D01*
X137120000Y-65310000D02*
X147360000Y-65310000D01*
X137120000Y-65310000D02*
X137120000Y-69951000D01*
X147360000Y-65310000D02*
X147360000Y-69951000D01*
%TO.C,R1*%
X133460000Y-81020000D02*
X134410000Y-81020000D01*
X138250000Y-80100000D02*
X134410000Y-80100000D01*
X139200000Y-81020000D02*
X138250000Y-81020000D01*
X134410000Y-80100000D02*
X134410000Y-81940000D01*
X134410000Y-81940000D02*
X138250000Y-81940000D01*
X138250000Y-81940000D02*
X138250000Y-80100000D01*
D10*
%TO.C,IC1*%
X122400000Y-131760000D02*
X122400000Y-91760000D01*
X182400000Y-91760000D02*
X182400000Y-131760000D01*
X182400000Y-131760000D02*
X122400000Y-131760000D01*
X122400000Y-91760000D02*
X182400000Y-91760000D01*
D11*
%TO.C,R4*%
X159370000Y-82200000D02*
X163210000Y-82200000D01*
X159370000Y-80360000D02*
X159370000Y-82200000D01*
X163210000Y-82200000D02*
X163210000Y-80360000D01*
X158420000Y-81280000D02*
X159370000Y-81280000D01*
X164160000Y-81280000D02*
X163210000Y-81280000D01*
X163210000Y-80360000D02*
X159370000Y-80360000D01*
D10*
%TO.C,CTRL0*%
X217950000Y-116860000D02*
X218450000Y-116860000D01*
X218450000Y-116860000D02*
X218450000Y-59860000D01*
X218450000Y-59860000D02*
X187950000Y-59860000D01*
X187950000Y-59860000D02*
X187950000Y-116860000D01*
X187950000Y-116860000D02*
X217950000Y-116860000D01*
X217696051Y-114300000D02*
G75*
G03*
X217696051Y-114300000I-1796051J0D01*
G01*
X192296051Y-114300000D02*
G75*
G03*
X192296051Y-114300000I-1796051J0D01*
G01*
X192296051Y-62230000D02*
G75*
G03*
X192296051Y-62230000I-1796051J0D01*
G01*
X217696051Y-62230000D02*
G75*
G03*
X217696051Y-62230000I-1796051J0D01*
G01*
D11*
%TO.C,R2*%
X134410000Y-87020000D02*
X138250000Y-87020000D01*
X133460000Y-86100000D02*
X134410000Y-86100000D01*
X138250000Y-87020000D02*
X138250000Y-85180000D01*
X139200000Y-86100000D02*
X138250000Y-86100000D01*
X134410000Y-85180000D02*
X134410000Y-87020000D01*
X138250000Y-85180000D02*
X134410000Y-85180000D01*
%TO.C,R0*%
X138250000Y-75020000D02*
X134410000Y-75020000D01*
X139200000Y-75940000D02*
X138250000Y-75940000D01*
X133460000Y-75940000D02*
X134410000Y-75940000D01*
X134410000Y-75020000D02*
X134410000Y-76860000D01*
X134410000Y-76860000D02*
X138250000Y-76860000D01*
X138250000Y-76860000D02*
X138250000Y-75020000D01*
%TO.C,PWR+0*%
X140900000Y-60960000D02*
G75*
G03*
X140900000Y-60960000I-1200000J0D01*
G01*
%TD*%
D14*
%TO.C,CTRL0*%
X217170000Y-106680000D03*
X217170000Y-104140000D03*
X217170000Y-101600000D03*
X217170000Y-99060000D03*
X217170000Y-96520000D03*
X217170000Y-93980000D03*
X217170000Y-91440000D03*
X217170000Y-88900000D03*
X217170000Y-86360000D03*
X217170000Y-83820000D03*
X217170000Y-81280000D03*
X217170000Y-78740000D03*
X217170000Y-76200000D03*
X217170000Y-73660000D03*
X217170000Y-71120000D03*
X189230000Y-71120000D03*
X189230000Y-73660000D03*
X189230000Y-76200000D03*
X189230000Y-78740000D03*
X189230000Y-81280000D03*
X189230000Y-83820000D03*
X189230000Y-86360000D03*
X189230000Y-88900000D03*
X189230000Y-91440000D03*
X189230000Y-93980000D03*
X189230000Y-96520000D03*
X189230000Y-99060000D03*
X189230000Y-101600000D03*
X189230000Y-104140000D03*
X189230000Y-106680000D03*
%TD*%
M02*
