%TF.GenerationSoftware,KiCad,Pcbnew,(6.0.11)*%
%TF.CreationDate,2023-02-17T23:10:36-08:00*%
%TF.ProjectId,badger,62616467-6572-42e6-9b69-6361645f7063,Original*%
%TF.SameCoordinates,Original*%
%TF.FileFunction,Drillmap*%
%TF.FilePolarity,Positive*%
%FSLAX45Y45*%
G04 Gerber Fmt 4.5, Leading zero omitted, Abs format (unit mm)*
G04 Created by KiCad (PCBNEW (6.0.11)) date 2023-02-17 23:10:36*
%MOMM*%
%LPD*%
G01*
G04 APERTURE LIST*
%ADD10C,0.200000*%
%ADD11C,0.040000*%
%ADD12C,0.070000*%
%ADD13C,0.076200*%
%ADD14C,0.078000*%
%ADD15C,0.090000*%
%ADD16C,0.100000*%
%ADD17C,0.110000*%
%ADD18C,0.350000*%
G04 APERTURE END LIST*
D10*
X12018000Y-5842000D02*
X22018000Y-5842000D01*
X22018000Y-5842000D02*
X22018000Y-13342000D01*
X22018000Y-13342000D02*
X12018000Y-13342000D01*
X12018000Y-13342000D02*
X12018000Y-5842000D01*
D11*
X17506000Y-9124000D02*
X17546000Y-9164000D01*
X17546000Y-9124000D02*
X17506000Y-9164000D01*
X18268000Y-9378000D02*
X18308000Y-9418000D01*
X18308000Y-9378000D02*
X18268000Y-9418000D01*
X18522000Y-12426000D02*
X18562000Y-12466000D01*
X18562000Y-12426000D02*
X18522000Y-12466000D01*
X19792000Y-7092000D02*
X19832000Y-7132000D01*
X19832000Y-7092000D02*
X19792000Y-7132000D01*
X20300000Y-8362000D02*
X20340000Y-8402000D01*
X20340000Y-8362000D02*
X20300000Y-8402000D01*
X20300000Y-8616000D02*
X20340000Y-8656000D01*
X20340000Y-8616000D02*
X20300000Y-8656000D01*
X20300000Y-8870000D02*
X20340000Y-8910000D01*
X20340000Y-8870000D02*
X20300000Y-8910000D01*
D12*
X13287000Y-7594000D02*
G75*
G03*
X13287000Y-7594000I-35000J0D01*
G01*
X13287000Y-8102000D02*
G75*
G03*
X13287000Y-8102000I-35000J0D01*
G01*
X13287000Y-8610000D02*
G75*
G03*
X13287000Y-8610000I-35000J0D01*
G01*
X14049000Y-7594000D02*
G75*
G03*
X14049000Y-7594000I-35000J0D01*
G01*
X14049000Y-8102000D02*
G75*
G03*
X14049000Y-8102000I-35000J0D01*
G01*
X14049000Y-8610000D02*
G75*
G03*
X14049000Y-8610000I-35000J0D01*
G01*
X15783000Y-7620000D02*
G75*
G03*
X15783000Y-7620000I-35000J0D01*
G01*
X15783000Y-8128000D02*
G75*
G03*
X15783000Y-8128000I-35000J0D01*
G01*
X16545000Y-7620000D02*
G75*
G03*
X16545000Y-7620000I-35000J0D01*
G01*
X16545000Y-8128000D02*
G75*
G03*
X16545000Y-8128000I-35000J0D01*
G01*
D13*
X18923000Y-7073900D02*
X18923000Y-7150100D01*
X18884900Y-7112000D02*
X18961100Y-7112000D01*
X18923000Y-7327900D02*
X18923000Y-7404100D01*
X18884900Y-7366000D02*
X18961100Y-7366000D01*
X18923000Y-7581900D02*
X18923000Y-7658100D01*
X18884900Y-7620000D02*
X18961100Y-7620000D01*
X18923000Y-7835900D02*
X18923000Y-7912100D01*
X18884900Y-7874000D02*
X18961100Y-7874000D01*
X18923000Y-8089900D02*
X18923000Y-8166100D01*
X18884900Y-8128000D02*
X18961100Y-8128000D01*
X18923000Y-8343900D02*
X18923000Y-8420100D01*
X18884900Y-8382000D02*
X18961100Y-8382000D01*
X18923000Y-8597900D02*
X18923000Y-8674100D01*
X18884900Y-8636000D02*
X18961100Y-8636000D01*
X18923000Y-8851900D02*
X18923000Y-8928100D01*
X18884900Y-8890000D02*
X18961100Y-8890000D01*
X18923000Y-9105900D02*
X18923000Y-9182100D01*
X18884900Y-9144000D02*
X18961100Y-9144000D01*
X18923000Y-9359900D02*
X18923000Y-9436100D01*
X18884900Y-9398000D02*
X18961100Y-9398000D01*
X18923000Y-9613900D02*
X18923000Y-9690100D01*
X18884900Y-9652000D02*
X18961100Y-9652000D01*
X18923000Y-9867900D02*
X18923000Y-9944100D01*
X18884900Y-9906000D02*
X18961100Y-9906000D01*
X18923000Y-10121900D02*
X18923000Y-10198100D01*
X18884900Y-10160000D02*
X18961100Y-10160000D01*
X18923000Y-10375900D02*
X18923000Y-10452100D01*
X18884900Y-10414000D02*
X18961100Y-10414000D01*
X18923000Y-10629900D02*
X18923000Y-10706100D01*
X18884900Y-10668000D02*
X18961100Y-10668000D01*
X21717000Y-7073900D02*
X21717000Y-7150100D01*
X21678900Y-7112000D02*
X21755100Y-7112000D01*
X21717000Y-7327900D02*
X21717000Y-7404100D01*
X21678900Y-7366000D02*
X21755100Y-7366000D01*
X21717000Y-7581900D02*
X21717000Y-7658100D01*
X21678900Y-7620000D02*
X21755100Y-7620000D01*
X21717000Y-7835900D02*
X21717000Y-7912100D01*
X21678900Y-7874000D02*
X21755100Y-7874000D01*
X21717000Y-8089900D02*
X21717000Y-8166100D01*
X21678900Y-8128000D02*
X21755100Y-8128000D01*
X21717000Y-8343900D02*
X21717000Y-8420100D01*
X21678900Y-8382000D02*
X21755100Y-8382000D01*
X21717000Y-8597900D02*
X21717000Y-8674100D01*
X21678900Y-8636000D02*
X21755100Y-8636000D01*
X21717000Y-8851900D02*
X21717000Y-8928100D01*
X21678900Y-8890000D02*
X21755100Y-8890000D01*
X21717000Y-9105900D02*
X21717000Y-9182100D01*
X21678900Y-9144000D02*
X21755100Y-9144000D01*
X21717000Y-9359900D02*
X21717000Y-9436100D01*
X21678900Y-9398000D02*
X21755100Y-9398000D01*
X21717000Y-9613900D02*
X21717000Y-9690100D01*
X21678900Y-9652000D02*
X21755100Y-9652000D01*
X21717000Y-9867900D02*
X21717000Y-9944100D01*
X21678900Y-9906000D02*
X21755100Y-9906000D01*
X21717000Y-10121900D02*
X21717000Y-10198100D01*
X21678900Y-10160000D02*
X21755100Y-10160000D01*
X21717000Y-10375900D02*
X21717000Y-10452100D01*
X21678900Y-10414000D02*
X21755100Y-10414000D01*
X21717000Y-10629900D02*
X21717000Y-10706100D01*
X21678900Y-10668000D02*
X21755100Y-10668000D01*
D14*
X16902577Y-6758577D02*
X16902577Y-6703423D01*
X16847423Y-6703423D01*
X16847423Y-6758577D01*
X16902577Y-6758577D01*
X16902577Y-7012577D02*
X16902577Y-6957423D01*
X16847423Y-6957423D01*
X16847423Y-7012577D01*
X16902577Y-7012577D01*
X16902577Y-7266577D02*
X16902577Y-7211423D01*
X16847423Y-7211423D01*
X16847423Y-7266577D01*
X16902577Y-7266577D01*
X16902577Y-7520577D02*
X16902577Y-7465423D01*
X16847423Y-7465423D01*
X16847423Y-7520577D01*
X16902577Y-7520577D01*
X16902577Y-7774577D02*
X16902577Y-7719423D01*
X16847423Y-7719423D01*
X16847423Y-7774577D01*
X16902577Y-7774577D01*
X16902577Y-8028577D02*
X16902577Y-7973423D01*
X16847423Y-7973423D01*
X16847423Y-8028577D01*
X16902577Y-8028577D01*
X16902577Y-8282577D02*
X16902577Y-8227423D01*
X16847423Y-8227423D01*
X16847423Y-8282577D01*
X16902577Y-8282577D01*
X16902577Y-8536577D02*
X16902577Y-8481423D01*
X16847423Y-8481423D01*
X16847423Y-8536577D01*
X16902577Y-8536577D01*
X17696577Y-6758577D02*
X17696577Y-6703423D01*
X17641423Y-6703423D01*
X17641423Y-6758577D01*
X17696577Y-6758577D01*
X17696577Y-7012577D02*
X17696577Y-6957423D01*
X17641423Y-6957423D01*
X17641423Y-7012577D01*
X17696577Y-7012577D01*
X17696577Y-7266577D02*
X17696577Y-7211423D01*
X17641423Y-7211423D01*
X17641423Y-7266577D01*
X17696577Y-7266577D01*
X17696577Y-7520577D02*
X17696577Y-7465423D01*
X17641423Y-7465423D01*
X17641423Y-7520577D01*
X17696577Y-7520577D01*
X17696577Y-7774577D02*
X17696577Y-7719423D01*
X17641423Y-7719423D01*
X17641423Y-7774577D01*
X17696577Y-7774577D01*
X17696577Y-8028577D02*
X17696577Y-7973423D01*
X17641423Y-7973423D01*
X17641423Y-8028577D01*
X17696577Y-8028577D01*
X17696577Y-8282577D02*
X17696577Y-8227423D01*
X17641423Y-8227423D01*
X17641423Y-8282577D01*
X17696577Y-8282577D01*
X17696577Y-8536577D02*
X17696577Y-8481423D01*
X17641423Y-8481423D01*
X17641423Y-8536577D01*
X17696577Y-8536577D01*
D15*
X12700000Y-6403000D02*
X12745000Y-6358000D01*
X12700000Y-6313000D01*
X12655000Y-6358000D01*
X12700000Y-6403000D01*
X12700000Y-6653000D02*
X12745000Y-6608000D01*
X12700000Y-6563000D01*
X12655000Y-6608000D01*
X12700000Y-6653000D01*
X12700000Y-6903000D02*
X12745000Y-6858000D01*
X12700000Y-6813000D01*
X12655000Y-6858000D01*
X12700000Y-6903000D01*
X18990000Y-12741000D02*
X19035000Y-12696000D01*
X18990000Y-12651000D01*
X18945000Y-12696000D01*
X18990000Y-12741000D01*
X19205900Y-12741000D02*
X19250900Y-12696000D01*
X19205900Y-12651000D01*
X19160900Y-12696000D01*
X19205900Y-12741000D01*
X19421800Y-12741000D02*
X19466800Y-12696000D01*
X19421800Y-12651000D01*
X19376800Y-12696000D01*
X19421800Y-12741000D01*
X19637700Y-12741000D02*
X19682700Y-12696000D01*
X19637700Y-12651000D01*
X19592700Y-12696000D01*
X19637700Y-12741000D01*
X20286000Y-12741000D02*
X20331000Y-12696000D01*
X20286000Y-12651000D01*
X20241000Y-12696000D01*
X20286000Y-12741000D01*
X20540000Y-12741000D02*
X20585000Y-12696000D01*
X20540000Y-12651000D01*
X20495000Y-12696000D01*
X20540000Y-12741000D01*
X21276000Y-12741000D02*
X21321000Y-12696000D01*
X21276000Y-12651000D01*
X21231000Y-12696000D01*
X21276000Y-12741000D01*
X21530000Y-12741000D02*
X21575000Y-12696000D01*
X21530000Y-12651000D01*
X21485000Y-12696000D01*
X21530000Y-12741000D01*
D16*
X17984000Y-10237000D02*
X18084000Y-10337000D01*
X18084000Y-10237000D02*
X17984000Y-10337000D01*
X18084000Y-10287000D02*
G75*
G03*
X18084000Y-10287000I-50000J0D01*
G01*
X17984000Y-10491000D02*
X18084000Y-10591000D01*
X18084000Y-10491000D02*
X17984000Y-10591000D01*
X18084000Y-10541000D02*
G75*
G03*
X18084000Y-10541000I-50000J0D01*
G01*
X17984000Y-10745000D02*
X18084000Y-10845000D01*
X18084000Y-10745000D02*
X17984000Y-10845000D01*
X18084000Y-10795000D02*
G75*
G03*
X18084000Y-10795000I-50000J0D01*
G01*
X17984000Y-10999000D02*
X18084000Y-11099000D01*
X18084000Y-10999000D02*
X17984000Y-11099000D01*
X18084000Y-11049000D02*
G75*
G03*
X18084000Y-11049000I-50000J0D01*
G01*
X17984000Y-11253000D02*
X18084000Y-11353000D01*
X18084000Y-11253000D02*
X17984000Y-11353000D01*
X18084000Y-11303000D02*
G75*
G03*
X18084000Y-11303000I-50000J0D01*
G01*
X17984000Y-11507000D02*
X18084000Y-11607000D01*
X18084000Y-11507000D02*
X17984000Y-11607000D01*
X18084000Y-11557000D02*
G75*
G03*
X18084000Y-11557000I-50000J0D01*
G01*
X17984000Y-11761000D02*
X18084000Y-11861000D01*
X18084000Y-11761000D02*
X17984000Y-11861000D01*
X18084000Y-11811000D02*
G75*
G03*
X18084000Y-11811000I-50000J0D01*
G01*
X17984000Y-12015000D02*
X18084000Y-12115000D01*
X18084000Y-12015000D02*
X17984000Y-12115000D01*
X18084000Y-12065000D02*
G75*
G03*
X18084000Y-12065000I-50000J0D01*
G01*
D17*
X13915000Y-6803000D02*
X14025000Y-6913000D01*
X14025000Y-6803000D02*
X13915000Y-6913000D01*
X13970000Y-6803000D02*
X13970000Y-6913000D01*
X13915000Y-6858000D02*
X14025000Y-6858000D01*
X14169000Y-6803000D02*
X14279000Y-6913000D01*
X14279000Y-6803000D02*
X14169000Y-6913000D01*
X14224000Y-6803000D02*
X14224000Y-6913000D01*
X14169000Y-6858000D02*
X14279000Y-6858000D01*
X14423000Y-6803000D02*
X14533000Y-6913000D01*
X14533000Y-6803000D02*
X14423000Y-6913000D01*
X14478000Y-6803000D02*
X14478000Y-6913000D01*
X14423000Y-6858000D02*
X14533000Y-6858000D01*
D18*
X12765000Y-9701000D02*
X13115000Y-10051000D01*
X13115000Y-9701000D02*
X12765000Y-10051000D01*
X13063745Y-9999745D02*
X13063745Y-9752255D01*
X12816255Y-9752255D01*
X12816255Y-9999745D01*
X13063745Y-9999745D01*
X12765000Y-12301000D02*
X13115000Y-12651000D01*
X13115000Y-12301000D02*
X12765000Y-12651000D01*
X13063745Y-12599745D02*
X13063745Y-12352255D01*
X12816255Y-12352255D01*
X12816255Y-12599745D01*
X13063745Y-12599745D01*
X16465000Y-9301000D02*
X16815000Y-9651000D01*
X16815000Y-9301000D02*
X16465000Y-9651000D01*
X16763745Y-9599745D02*
X16763745Y-9352255D01*
X16516255Y-9352255D01*
X16516255Y-9599745D01*
X16763745Y-9599745D01*
X16465000Y-12701000D02*
X16815000Y-13051000D01*
X16815000Y-12701000D02*
X16465000Y-13051000D01*
X16763745Y-12999745D02*
X16763745Y-12752255D01*
X16516255Y-12752255D01*
X16516255Y-12999745D01*
X16763745Y-12999745D01*
D10*
X12265619Y-13662476D02*
X12265619Y-13462476D01*
X12313238Y-13462476D01*
X12341809Y-13472000D01*
X12360857Y-13491048D01*
X12370381Y-13510095D01*
X12379905Y-13548190D01*
X12379905Y-13576762D01*
X12370381Y-13614857D01*
X12360857Y-13633905D01*
X12341809Y-13652952D01*
X12313238Y-13662476D01*
X12265619Y-13662476D01*
X12465619Y-13662476D02*
X12465619Y-13529143D01*
X12465619Y-13567238D02*
X12475143Y-13548190D01*
X12484667Y-13538667D01*
X12503714Y-13529143D01*
X12522762Y-13529143D01*
X12589428Y-13662476D02*
X12589428Y-13529143D01*
X12589428Y-13462476D02*
X12579905Y-13472000D01*
X12589428Y-13481524D01*
X12598952Y-13472000D01*
X12589428Y-13462476D01*
X12589428Y-13481524D01*
X12713238Y-13662476D02*
X12694190Y-13652952D01*
X12684667Y-13633905D01*
X12684667Y-13462476D01*
X12818000Y-13662476D02*
X12798952Y-13652952D01*
X12789428Y-13633905D01*
X12789428Y-13462476D01*
X13046571Y-13662476D02*
X13046571Y-13462476D01*
X13113238Y-13605333D01*
X13179905Y-13462476D01*
X13179905Y-13662476D01*
X13360857Y-13662476D02*
X13360857Y-13557714D01*
X13351333Y-13538667D01*
X13332286Y-13529143D01*
X13294190Y-13529143D01*
X13275143Y-13538667D01*
X13360857Y-13652952D02*
X13341809Y-13662476D01*
X13294190Y-13662476D01*
X13275143Y-13652952D01*
X13265619Y-13633905D01*
X13265619Y-13614857D01*
X13275143Y-13595809D01*
X13294190Y-13586286D01*
X13341809Y-13586286D01*
X13360857Y-13576762D01*
X13456095Y-13529143D02*
X13456095Y-13729143D01*
X13456095Y-13538667D02*
X13475143Y-13529143D01*
X13513238Y-13529143D01*
X13532286Y-13538667D01*
X13541809Y-13548190D01*
X13551333Y-13567238D01*
X13551333Y-13624381D01*
X13541809Y-13643428D01*
X13532286Y-13652952D01*
X13513238Y-13662476D01*
X13475143Y-13662476D01*
X13456095Y-13652952D01*
X13637048Y-13643428D02*
X13646571Y-13652952D01*
X13637048Y-13662476D01*
X13627524Y-13652952D01*
X13637048Y-13643428D01*
X13637048Y-13662476D01*
X13637048Y-13538667D02*
X13646571Y-13548190D01*
X13637048Y-13557714D01*
X13627524Y-13548190D01*
X13637048Y-13538667D01*
X13637048Y-13557714D01*
D11*
X11968000Y-13972000D02*
X12008000Y-14012000D01*
X12008000Y-13972000D02*
X11968000Y-14012000D01*
D10*
X12303714Y-13882476D02*
X12322762Y-13882476D01*
X12341809Y-13892000D01*
X12351333Y-13901524D01*
X12360857Y-13920571D01*
X12370381Y-13958667D01*
X12370381Y-14006286D01*
X12360857Y-14044381D01*
X12351333Y-14063428D01*
X12341809Y-14072952D01*
X12322762Y-14082476D01*
X12303714Y-14082476D01*
X12284667Y-14072952D01*
X12275143Y-14063428D01*
X12265619Y-14044381D01*
X12256095Y-14006286D01*
X12256095Y-13958667D01*
X12265619Y-13920571D01*
X12275143Y-13901524D01*
X12284667Y-13892000D01*
X12303714Y-13882476D01*
X12456095Y-14063428D02*
X12465619Y-14072952D01*
X12456095Y-14082476D01*
X12446571Y-14072952D01*
X12456095Y-14063428D01*
X12456095Y-14082476D01*
X12637048Y-13949143D02*
X12637048Y-14082476D01*
X12589428Y-13872952D02*
X12541809Y-14015809D01*
X12665619Y-14015809D01*
X12779905Y-13882476D02*
X12798952Y-13882476D01*
X12818000Y-13892000D01*
X12827524Y-13901524D01*
X12837048Y-13920571D01*
X12846571Y-13958667D01*
X12846571Y-14006286D01*
X12837048Y-14044381D01*
X12827524Y-14063428D01*
X12818000Y-14072952D01*
X12798952Y-14082476D01*
X12779905Y-14082476D01*
X12760857Y-14072952D01*
X12751333Y-14063428D01*
X12741809Y-14044381D01*
X12732286Y-14006286D01*
X12732286Y-13958667D01*
X12741809Y-13920571D01*
X12751333Y-13901524D01*
X12760857Y-13892000D01*
X12779905Y-13882476D01*
X12970381Y-13882476D02*
X12989428Y-13882476D01*
X13008476Y-13892000D01*
X13018000Y-13901524D01*
X13027524Y-13920571D01*
X13037048Y-13958667D01*
X13037048Y-14006286D01*
X13027524Y-14044381D01*
X13018000Y-14063428D01*
X13008476Y-14072952D01*
X12989428Y-14082476D01*
X12970381Y-14082476D01*
X12951333Y-14072952D01*
X12941809Y-14063428D01*
X12932286Y-14044381D01*
X12922762Y-14006286D01*
X12922762Y-13958667D01*
X12932286Y-13920571D01*
X12941809Y-13901524D01*
X12951333Y-13892000D01*
X12970381Y-13882476D01*
X13122762Y-14082476D02*
X13122762Y-13949143D01*
X13122762Y-13968190D02*
X13132286Y-13958667D01*
X13151333Y-13949143D01*
X13179905Y-13949143D01*
X13198952Y-13958667D01*
X13208476Y-13977714D01*
X13208476Y-14082476D01*
X13208476Y-13977714D02*
X13218000Y-13958667D01*
X13237048Y-13949143D01*
X13265619Y-13949143D01*
X13284667Y-13958667D01*
X13294190Y-13977714D01*
X13294190Y-14082476D01*
X13389428Y-14082476D02*
X13389428Y-13949143D01*
X13389428Y-13968190D02*
X13398952Y-13958667D01*
X13418000Y-13949143D01*
X13446571Y-13949143D01*
X13465619Y-13958667D01*
X13475143Y-13977714D01*
X13475143Y-14082476D01*
X13475143Y-13977714D02*
X13484667Y-13958667D01*
X13503714Y-13949143D01*
X13532286Y-13949143D01*
X13551333Y-13958667D01*
X13560857Y-13977714D01*
X13560857Y-14082476D01*
X13951333Y-13872952D02*
X13779905Y-14130095D01*
X14208476Y-13882476D02*
X14227524Y-13882476D01*
X14246571Y-13892000D01*
X14256095Y-13901524D01*
X14265619Y-13920571D01*
X14275143Y-13958667D01*
X14275143Y-14006286D01*
X14265619Y-14044381D01*
X14256095Y-14063428D01*
X14246571Y-14072952D01*
X14227524Y-14082476D01*
X14208476Y-14082476D01*
X14189428Y-14072952D01*
X14179905Y-14063428D01*
X14170381Y-14044381D01*
X14160857Y-14006286D01*
X14160857Y-13958667D01*
X14170381Y-13920571D01*
X14179905Y-13901524D01*
X14189428Y-13892000D01*
X14208476Y-13882476D01*
X14360857Y-14063428D02*
X14370381Y-14072952D01*
X14360857Y-14082476D01*
X14351333Y-14072952D01*
X14360857Y-14063428D01*
X14360857Y-14082476D01*
X14494190Y-13882476D02*
X14513238Y-13882476D01*
X14532286Y-13892000D01*
X14541809Y-13901524D01*
X14551333Y-13920571D01*
X14560857Y-13958667D01*
X14560857Y-14006286D01*
X14551333Y-14044381D01*
X14541809Y-14063428D01*
X14532286Y-14072952D01*
X14513238Y-14082476D01*
X14494190Y-14082476D01*
X14475143Y-14072952D01*
X14465619Y-14063428D01*
X14456095Y-14044381D01*
X14446571Y-14006286D01*
X14446571Y-13958667D01*
X14456095Y-13920571D01*
X14465619Y-13901524D01*
X14475143Y-13892000D01*
X14494190Y-13882476D01*
X14751333Y-14082476D02*
X14637048Y-14082476D01*
X14694190Y-14082476D02*
X14694190Y-13882476D01*
X14675143Y-13911048D01*
X14656095Y-13930095D01*
X14637048Y-13939619D01*
X14932286Y-13882476D02*
X14837048Y-13882476D01*
X14827524Y-13977714D01*
X14837048Y-13968190D01*
X14856095Y-13958667D01*
X14903714Y-13958667D01*
X14922762Y-13968190D01*
X14932286Y-13977714D01*
X14941809Y-13996762D01*
X14941809Y-14044381D01*
X14932286Y-14063428D01*
X14922762Y-14072952D01*
X14903714Y-14082476D01*
X14856095Y-14082476D01*
X14837048Y-14072952D01*
X14827524Y-14063428D01*
X15008476Y-13882476D02*
X15141809Y-13882476D01*
X15056095Y-14082476D01*
X15208476Y-13882476D02*
X15208476Y-13920571D01*
X15284667Y-13882476D02*
X15284667Y-13920571D01*
X15579905Y-14158667D02*
X15570381Y-14149143D01*
X15551333Y-14120571D01*
X15541809Y-14101524D01*
X15532286Y-14072952D01*
X15522762Y-14025333D01*
X15522762Y-13987238D01*
X15532286Y-13939619D01*
X15541809Y-13911048D01*
X15551333Y-13892000D01*
X15570381Y-13863428D01*
X15579905Y-13853905D01*
X15637048Y-13882476D02*
X15770381Y-13882476D01*
X15684667Y-14082476D01*
X15998952Y-14082476D02*
X15998952Y-13882476D01*
X16084667Y-14082476D02*
X16084667Y-13977714D01*
X16075143Y-13958667D01*
X16056095Y-13949143D01*
X16027524Y-13949143D01*
X16008476Y-13958667D01*
X15998952Y-13968190D01*
X16208476Y-14082476D02*
X16189428Y-14072952D01*
X16179905Y-14063428D01*
X16170381Y-14044381D01*
X16170381Y-13987238D01*
X16179905Y-13968190D01*
X16189428Y-13958667D01*
X16208476Y-13949143D01*
X16237048Y-13949143D01*
X16256095Y-13958667D01*
X16265619Y-13968190D01*
X16275143Y-13987238D01*
X16275143Y-14044381D01*
X16265619Y-14063428D01*
X16256095Y-14072952D01*
X16237048Y-14082476D01*
X16208476Y-14082476D01*
X16389428Y-14082476D02*
X16370381Y-14072952D01*
X16360857Y-14053905D01*
X16360857Y-13882476D01*
X16541809Y-14072952D02*
X16522762Y-14082476D01*
X16484667Y-14082476D01*
X16465619Y-14072952D01*
X16456095Y-14053905D01*
X16456095Y-13977714D01*
X16465619Y-13958667D01*
X16484667Y-13949143D01*
X16522762Y-13949143D01*
X16541809Y-13958667D01*
X16551333Y-13977714D01*
X16551333Y-13996762D01*
X16456095Y-14015809D01*
X16627524Y-14072952D02*
X16646571Y-14082476D01*
X16684667Y-14082476D01*
X16703714Y-14072952D01*
X16713238Y-14053905D01*
X16713238Y-14044381D01*
X16703714Y-14025333D01*
X16684667Y-14015809D01*
X16656095Y-14015809D01*
X16637048Y-14006286D01*
X16627524Y-13987238D01*
X16627524Y-13977714D01*
X16637048Y-13958667D01*
X16656095Y-13949143D01*
X16684667Y-13949143D01*
X16703714Y-13958667D01*
X16779905Y-14158667D02*
X16789429Y-14149143D01*
X16808476Y-14120571D01*
X16818000Y-14101524D01*
X16827524Y-14072952D01*
X16837048Y-14025333D01*
X16837048Y-13987238D01*
X16827524Y-13939619D01*
X16818000Y-13911048D01*
X16808476Y-13892000D01*
X16789429Y-13863428D01*
X16779905Y-13853905D01*
D12*
X12008000Y-14256000D02*
G75*
G03*
X12008000Y-14256000I-35000J0D01*
G01*
D10*
X12303714Y-14146476D02*
X12322762Y-14146476D01*
X12341809Y-14156000D01*
X12351333Y-14165524D01*
X12360857Y-14184571D01*
X12370381Y-14222667D01*
X12370381Y-14270286D01*
X12360857Y-14308381D01*
X12351333Y-14327428D01*
X12341809Y-14336952D01*
X12322762Y-14346476D01*
X12303714Y-14346476D01*
X12284667Y-14336952D01*
X12275143Y-14327428D01*
X12265619Y-14308381D01*
X12256095Y-14270286D01*
X12256095Y-14222667D01*
X12265619Y-14184571D01*
X12275143Y-14165524D01*
X12284667Y-14156000D01*
X12303714Y-14146476D01*
X12456095Y-14327428D02*
X12465619Y-14336952D01*
X12456095Y-14346476D01*
X12446571Y-14336952D01*
X12456095Y-14327428D01*
X12456095Y-14346476D01*
X12532286Y-14146476D02*
X12665619Y-14146476D01*
X12579905Y-14346476D01*
X12779905Y-14146476D02*
X12798952Y-14146476D01*
X12818000Y-14156000D01*
X12827524Y-14165524D01*
X12837048Y-14184571D01*
X12846571Y-14222667D01*
X12846571Y-14270286D01*
X12837048Y-14308381D01*
X12827524Y-14327428D01*
X12818000Y-14336952D01*
X12798952Y-14346476D01*
X12779905Y-14346476D01*
X12760857Y-14336952D01*
X12751333Y-14327428D01*
X12741809Y-14308381D01*
X12732286Y-14270286D01*
X12732286Y-14222667D01*
X12741809Y-14184571D01*
X12751333Y-14165524D01*
X12760857Y-14156000D01*
X12779905Y-14146476D01*
X12970381Y-14146476D02*
X12989428Y-14146476D01*
X13008476Y-14156000D01*
X13018000Y-14165524D01*
X13027524Y-14184571D01*
X13037048Y-14222667D01*
X13037048Y-14270286D01*
X13027524Y-14308381D01*
X13018000Y-14327428D01*
X13008476Y-14336952D01*
X12989428Y-14346476D01*
X12970381Y-14346476D01*
X12951333Y-14336952D01*
X12941809Y-14327428D01*
X12932286Y-14308381D01*
X12922762Y-14270286D01*
X12922762Y-14222667D01*
X12932286Y-14184571D01*
X12941809Y-14165524D01*
X12951333Y-14156000D01*
X12970381Y-14146476D01*
X13122762Y-14346476D02*
X13122762Y-14213143D01*
X13122762Y-14232190D02*
X13132286Y-14222667D01*
X13151333Y-14213143D01*
X13179905Y-14213143D01*
X13198952Y-14222667D01*
X13208476Y-14241714D01*
X13208476Y-14346476D01*
X13208476Y-14241714D02*
X13218000Y-14222667D01*
X13237048Y-14213143D01*
X13265619Y-14213143D01*
X13284667Y-14222667D01*
X13294190Y-14241714D01*
X13294190Y-14346476D01*
X13389428Y-14346476D02*
X13389428Y-14213143D01*
X13389428Y-14232190D02*
X13398952Y-14222667D01*
X13418000Y-14213143D01*
X13446571Y-14213143D01*
X13465619Y-14222667D01*
X13475143Y-14241714D01*
X13475143Y-14346476D01*
X13475143Y-14241714D02*
X13484667Y-14222667D01*
X13503714Y-14213143D01*
X13532286Y-14213143D01*
X13551333Y-14222667D01*
X13560857Y-14241714D01*
X13560857Y-14346476D01*
X13951333Y-14136952D02*
X13779905Y-14394095D01*
X14208476Y-14146476D02*
X14227524Y-14146476D01*
X14246571Y-14156000D01*
X14256095Y-14165524D01*
X14265619Y-14184571D01*
X14275143Y-14222667D01*
X14275143Y-14270286D01*
X14265619Y-14308381D01*
X14256095Y-14327428D01*
X14246571Y-14336952D01*
X14227524Y-14346476D01*
X14208476Y-14346476D01*
X14189428Y-14336952D01*
X14179905Y-14327428D01*
X14170381Y-14308381D01*
X14160857Y-14270286D01*
X14160857Y-14222667D01*
X14170381Y-14184571D01*
X14179905Y-14165524D01*
X14189428Y-14156000D01*
X14208476Y-14146476D01*
X14360857Y-14327428D02*
X14370381Y-14336952D01*
X14360857Y-14346476D01*
X14351333Y-14336952D01*
X14360857Y-14327428D01*
X14360857Y-14346476D01*
X14494190Y-14146476D02*
X14513238Y-14146476D01*
X14532286Y-14156000D01*
X14541809Y-14165524D01*
X14551333Y-14184571D01*
X14560857Y-14222667D01*
X14560857Y-14270286D01*
X14551333Y-14308381D01*
X14541809Y-14327428D01*
X14532286Y-14336952D01*
X14513238Y-14346476D01*
X14494190Y-14346476D01*
X14475143Y-14336952D01*
X14465619Y-14327428D01*
X14456095Y-14308381D01*
X14446571Y-14270286D01*
X14446571Y-14222667D01*
X14456095Y-14184571D01*
X14465619Y-14165524D01*
X14475143Y-14156000D01*
X14494190Y-14146476D01*
X14637048Y-14165524D02*
X14646571Y-14156000D01*
X14665619Y-14146476D01*
X14713238Y-14146476D01*
X14732286Y-14156000D01*
X14741809Y-14165524D01*
X14751333Y-14184571D01*
X14751333Y-14203619D01*
X14741809Y-14232190D01*
X14627524Y-14346476D01*
X14751333Y-14346476D01*
X14818000Y-14146476D02*
X14951333Y-14146476D01*
X14865619Y-14346476D01*
X15113238Y-14146476D02*
X15075143Y-14146476D01*
X15056095Y-14156000D01*
X15046571Y-14165524D01*
X15027524Y-14194095D01*
X15018000Y-14232190D01*
X15018000Y-14308381D01*
X15027524Y-14327428D01*
X15037048Y-14336952D01*
X15056095Y-14346476D01*
X15094190Y-14346476D01*
X15113238Y-14336952D01*
X15122762Y-14327428D01*
X15132286Y-14308381D01*
X15132286Y-14260762D01*
X15122762Y-14241714D01*
X15113238Y-14232190D01*
X15094190Y-14222667D01*
X15056095Y-14222667D01*
X15037048Y-14232190D01*
X15027524Y-14241714D01*
X15018000Y-14260762D01*
X15208476Y-14146476D02*
X15208476Y-14184571D01*
X15284667Y-14146476D02*
X15284667Y-14184571D01*
X15579905Y-14422667D02*
X15570381Y-14413143D01*
X15551333Y-14384571D01*
X15541809Y-14365524D01*
X15532286Y-14336952D01*
X15522762Y-14289333D01*
X15522762Y-14251238D01*
X15532286Y-14203619D01*
X15541809Y-14175048D01*
X15551333Y-14156000D01*
X15570381Y-14127428D01*
X15579905Y-14117905D01*
X15760857Y-14346476D02*
X15646571Y-14346476D01*
X15703714Y-14346476D02*
X15703714Y-14146476D01*
X15684667Y-14175048D01*
X15665619Y-14194095D01*
X15646571Y-14203619D01*
X15884667Y-14146476D02*
X15903714Y-14146476D01*
X15922762Y-14156000D01*
X15932286Y-14165524D01*
X15941809Y-14184571D01*
X15951333Y-14222667D01*
X15951333Y-14270286D01*
X15941809Y-14308381D01*
X15932286Y-14327428D01*
X15922762Y-14336952D01*
X15903714Y-14346476D01*
X15884667Y-14346476D01*
X15865619Y-14336952D01*
X15856095Y-14327428D01*
X15846571Y-14308381D01*
X15837048Y-14270286D01*
X15837048Y-14222667D01*
X15846571Y-14184571D01*
X15856095Y-14165524D01*
X15865619Y-14156000D01*
X15884667Y-14146476D01*
X16189428Y-14346476D02*
X16189428Y-14146476D01*
X16275143Y-14346476D02*
X16275143Y-14241714D01*
X16265619Y-14222667D01*
X16246571Y-14213143D01*
X16218000Y-14213143D01*
X16198952Y-14222667D01*
X16189428Y-14232190D01*
X16398952Y-14346476D02*
X16379905Y-14336952D01*
X16370381Y-14327428D01*
X16360857Y-14308381D01*
X16360857Y-14251238D01*
X16370381Y-14232190D01*
X16379905Y-14222667D01*
X16398952Y-14213143D01*
X16427524Y-14213143D01*
X16446571Y-14222667D01*
X16456095Y-14232190D01*
X16465619Y-14251238D01*
X16465619Y-14308381D01*
X16456095Y-14327428D01*
X16446571Y-14336952D01*
X16427524Y-14346476D01*
X16398952Y-14346476D01*
X16579905Y-14346476D02*
X16560857Y-14336952D01*
X16551333Y-14317905D01*
X16551333Y-14146476D01*
X16732286Y-14336952D02*
X16713238Y-14346476D01*
X16675143Y-14346476D01*
X16656095Y-14336952D01*
X16646571Y-14317905D01*
X16646571Y-14241714D01*
X16656095Y-14222667D01*
X16675143Y-14213143D01*
X16713238Y-14213143D01*
X16732286Y-14222667D01*
X16741809Y-14241714D01*
X16741809Y-14260762D01*
X16646571Y-14279809D01*
X16818000Y-14336952D02*
X16837048Y-14346476D01*
X16875143Y-14346476D01*
X16894190Y-14336952D01*
X16903714Y-14317905D01*
X16903714Y-14308381D01*
X16894190Y-14289333D01*
X16875143Y-14279809D01*
X16846571Y-14279809D01*
X16827524Y-14270286D01*
X16818000Y-14251238D01*
X16818000Y-14241714D01*
X16827524Y-14222667D01*
X16846571Y-14213143D01*
X16875143Y-14213143D01*
X16894190Y-14222667D01*
X16970381Y-14422667D02*
X16979905Y-14413143D01*
X16998952Y-14384571D01*
X17008476Y-14365524D01*
X17018000Y-14336952D01*
X17027524Y-14289333D01*
X17027524Y-14251238D01*
X17018000Y-14203619D01*
X17008476Y-14175048D01*
X16998952Y-14156000D01*
X16979905Y-14127428D01*
X16970381Y-14117905D01*
D13*
X11969900Y-14481900D02*
X11969900Y-14558100D01*
X11931800Y-14520000D02*
X12008000Y-14520000D01*
D10*
X12303714Y-14410476D02*
X12322762Y-14410476D01*
X12341809Y-14420000D01*
X12351333Y-14429524D01*
X12360857Y-14448571D01*
X12370381Y-14486667D01*
X12370381Y-14534286D01*
X12360857Y-14572381D01*
X12351333Y-14591428D01*
X12341809Y-14600952D01*
X12322762Y-14610476D01*
X12303714Y-14610476D01*
X12284667Y-14600952D01*
X12275143Y-14591428D01*
X12265619Y-14572381D01*
X12256095Y-14534286D01*
X12256095Y-14486667D01*
X12265619Y-14448571D01*
X12275143Y-14429524D01*
X12284667Y-14420000D01*
X12303714Y-14410476D01*
X12456095Y-14591428D02*
X12465619Y-14600952D01*
X12456095Y-14610476D01*
X12446571Y-14600952D01*
X12456095Y-14591428D01*
X12456095Y-14610476D01*
X12532286Y-14410476D02*
X12665619Y-14410476D01*
X12579905Y-14610476D01*
X12827524Y-14410476D02*
X12789428Y-14410476D01*
X12770381Y-14420000D01*
X12760857Y-14429524D01*
X12741809Y-14458095D01*
X12732286Y-14496190D01*
X12732286Y-14572381D01*
X12741809Y-14591428D01*
X12751333Y-14600952D01*
X12770381Y-14610476D01*
X12808476Y-14610476D01*
X12827524Y-14600952D01*
X12837048Y-14591428D01*
X12846571Y-14572381D01*
X12846571Y-14524762D01*
X12837048Y-14505714D01*
X12827524Y-14496190D01*
X12808476Y-14486667D01*
X12770381Y-14486667D01*
X12751333Y-14496190D01*
X12741809Y-14505714D01*
X12732286Y-14524762D01*
X12922762Y-14429524D02*
X12932286Y-14420000D01*
X12951333Y-14410476D01*
X12998952Y-14410476D01*
X13018000Y-14420000D01*
X13027524Y-14429524D01*
X13037048Y-14448571D01*
X13037048Y-14467619D01*
X13027524Y-14496190D01*
X12913238Y-14610476D01*
X13037048Y-14610476D01*
X13122762Y-14610476D02*
X13122762Y-14477143D01*
X13122762Y-14496190D02*
X13132286Y-14486667D01*
X13151333Y-14477143D01*
X13179905Y-14477143D01*
X13198952Y-14486667D01*
X13208476Y-14505714D01*
X13208476Y-14610476D01*
X13208476Y-14505714D02*
X13218000Y-14486667D01*
X13237048Y-14477143D01*
X13265619Y-14477143D01*
X13284667Y-14486667D01*
X13294190Y-14505714D01*
X13294190Y-14610476D01*
X13389428Y-14610476D02*
X13389428Y-14477143D01*
X13389428Y-14496190D02*
X13398952Y-14486667D01*
X13418000Y-14477143D01*
X13446571Y-14477143D01*
X13465619Y-14486667D01*
X13475143Y-14505714D01*
X13475143Y-14610476D01*
X13475143Y-14505714D02*
X13484667Y-14486667D01*
X13503714Y-14477143D01*
X13532286Y-14477143D01*
X13551333Y-14486667D01*
X13560857Y-14505714D01*
X13560857Y-14610476D01*
X13951333Y-14400952D02*
X13779905Y-14658095D01*
X14208476Y-14410476D02*
X14227524Y-14410476D01*
X14246571Y-14420000D01*
X14256095Y-14429524D01*
X14265619Y-14448571D01*
X14275143Y-14486667D01*
X14275143Y-14534286D01*
X14265619Y-14572381D01*
X14256095Y-14591428D01*
X14246571Y-14600952D01*
X14227524Y-14610476D01*
X14208476Y-14610476D01*
X14189428Y-14600952D01*
X14179905Y-14591428D01*
X14170381Y-14572381D01*
X14160857Y-14534286D01*
X14160857Y-14486667D01*
X14170381Y-14448571D01*
X14179905Y-14429524D01*
X14189428Y-14420000D01*
X14208476Y-14410476D01*
X14360857Y-14591428D02*
X14370381Y-14600952D01*
X14360857Y-14610476D01*
X14351333Y-14600952D01*
X14360857Y-14591428D01*
X14360857Y-14610476D01*
X14494190Y-14410476D02*
X14513238Y-14410476D01*
X14532286Y-14420000D01*
X14541809Y-14429524D01*
X14551333Y-14448571D01*
X14560857Y-14486667D01*
X14560857Y-14534286D01*
X14551333Y-14572381D01*
X14541809Y-14591428D01*
X14532286Y-14600952D01*
X14513238Y-14610476D01*
X14494190Y-14610476D01*
X14475143Y-14600952D01*
X14465619Y-14591428D01*
X14456095Y-14572381D01*
X14446571Y-14534286D01*
X14446571Y-14486667D01*
X14456095Y-14448571D01*
X14465619Y-14429524D01*
X14475143Y-14420000D01*
X14494190Y-14410476D01*
X14627524Y-14410476D02*
X14751333Y-14410476D01*
X14684667Y-14486667D01*
X14713238Y-14486667D01*
X14732286Y-14496190D01*
X14741809Y-14505714D01*
X14751333Y-14524762D01*
X14751333Y-14572381D01*
X14741809Y-14591428D01*
X14732286Y-14600952D01*
X14713238Y-14610476D01*
X14656095Y-14610476D01*
X14637048Y-14600952D01*
X14627524Y-14591428D01*
X14875143Y-14410476D02*
X14894190Y-14410476D01*
X14913238Y-14420000D01*
X14922762Y-14429524D01*
X14932286Y-14448571D01*
X14941809Y-14486667D01*
X14941809Y-14534286D01*
X14932286Y-14572381D01*
X14922762Y-14591428D01*
X14913238Y-14600952D01*
X14894190Y-14610476D01*
X14875143Y-14610476D01*
X14856095Y-14600952D01*
X14846571Y-14591428D01*
X14837048Y-14572381D01*
X14827524Y-14534286D01*
X14827524Y-14486667D01*
X14837048Y-14448571D01*
X14846571Y-14429524D01*
X14856095Y-14420000D01*
X14875143Y-14410476D01*
X15065619Y-14410476D02*
X15084667Y-14410476D01*
X15103714Y-14420000D01*
X15113238Y-14429524D01*
X15122762Y-14448571D01*
X15132286Y-14486667D01*
X15132286Y-14534286D01*
X15122762Y-14572381D01*
X15113238Y-14591428D01*
X15103714Y-14600952D01*
X15084667Y-14610476D01*
X15065619Y-14610476D01*
X15046571Y-14600952D01*
X15037048Y-14591428D01*
X15027524Y-14572381D01*
X15018000Y-14534286D01*
X15018000Y-14486667D01*
X15027524Y-14448571D01*
X15037048Y-14429524D01*
X15046571Y-14420000D01*
X15065619Y-14410476D01*
X15208476Y-14410476D02*
X15208476Y-14448571D01*
X15284667Y-14410476D02*
X15284667Y-14448571D01*
X15579905Y-14686667D02*
X15570381Y-14677143D01*
X15551333Y-14648571D01*
X15541809Y-14629524D01*
X15532286Y-14600952D01*
X15522762Y-14553333D01*
X15522762Y-14515238D01*
X15532286Y-14467619D01*
X15541809Y-14439048D01*
X15551333Y-14420000D01*
X15570381Y-14391428D01*
X15579905Y-14381905D01*
X15637048Y-14410476D02*
X15760857Y-14410476D01*
X15694190Y-14486667D01*
X15722762Y-14486667D01*
X15741809Y-14496190D01*
X15751333Y-14505714D01*
X15760857Y-14524762D01*
X15760857Y-14572381D01*
X15751333Y-14591428D01*
X15741809Y-14600952D01*
X15722762Y-14610476D01*
X15665619Y-14610476D01*
X15646571Y-14600952D01*
X15637048Y-14591428D01*
X15884667Y-14410476D02*
X15903714Y-14410476D01*
X15922762Y-14420000D01*
X15932286Y-14429524D01*
X15941809Y-14448571D01*
X15951333Y-14486667D01*
X15951333Y-14534286D01*
X15941809Y-14572381D01*
X15932286Y-14591428D01*
X15922762Y-14600952D01*
X15903714Y-14610476D01*
X15884667Y-14610476D01*
X15865619Y-14600952D01*
X15856095Y-14591428D01*
X15846571Y-14572381D01*
X15837048Y-14534286D01*
X15837048Y-14486667D01*
X15846571Y-14448571D01*
X15856095Y-14429524D01*
X15865619Y-14420000D01*
X15884667Y-14410476D01*
X16189428Y-14610476D02*
X16189428Y-14410476D01*
X16275143Y-14610476D02*
X16275143Y-14505714D01*
X16265619Y-14486667D01*
X16246571Y-14477143D01*
X16218000Y-14477143D01*
X16198952Y-14486667D01*
X16189428Y-14496190D01*
X16398952Y-14610476D02*
X16379905Y-14600952D01*
X16370381Y-14591428D01*
X16360857Y-14572381D01*
X16360857Y-14515238D01*
X16370381Y-14496190D01*
X16379905Y-14486667D01*
X16398952Y-14477143D01*
X16427524Y-14477143D01*
X16446571Y-14486667D01*
X16456095Y-14496190D01*
X16465619Y-14515238D01*
X16465619Y-14572381D01*
X16456095Y-14591428D01*
X16446571Y-14600952D01*
X16427524Y-14610476D01*
X16398952Y-14610476D01*
X16579905Y-14610476D02*
X16560857Y-14600952D01*
X16551333Y-14581905D01*
X16551333Y-14410476D01*
X16732286Y-14600952D02*
X16713238Y-14610476D01*
X16675143Y-14610476D01*
X16656095Y-14600952D01*
X16646571Y-14581905D01*
X16646571Y-14505714D01*
X16656095Y-14486667D01*
X16675143Y-14477143D01*
X16713238Y-14477143D01*
X16732286Y-14486667D01*
X16741809Y-14505714D01*
X16741809Y-14524762D01*
X16646571Y-14543809D01*
X16818000Y-14600952D02*
X16837048Y-14610476D01*
X16875143Y-14610476D01*
X16894190Y-14600952D01*
X16903714Y-14581905D01*
X16903714Y-14572381D01*
X16894190Y-14553333D01*
X16875143Y-14543809D01*
X16846571Y-14543809D01*
X16827524Y-14534286D01*
X16818000Y-14515238D01*
X16818000Y-14505714D01*
X16827524Y-14486667D01*
X16846571Y-14477143D01*
X16875143Y-14477143D01*
X16894190Y-14486667D01*
X16970381Y-14686667D02*
X16979905Y-14677143D01*
X16998952Y-14648571D01*
X17008476Y-14629524D01*
X17018000Y-14600952D01*
X17027524Y-14553333D01*
X17027524Y-14515238D01*
X17018000Y-14467619D01*
X17008476Y-14439048D01*
X16998952Y-14420000D01*
X16979905Y-14391428D01*
X16970381Y-14381905D01*
D14*
X11996577Y-14811577D02*
X11996577Y-14756423D01*
X11941423Y-14756423D01*
X11941423Y-14811577D01*
X11996577Y-14811577D01*
D10*
X12303714Y-14674476D02*
X12322762Y-14674476D01*
X12341809Y-14684000D01*
X12351333Y-14693524D01*
X12360857Y-14712571D01*
X12370381Y-14750667D01*
X12370381Y-14798286D01*
X12360857Y-14836381D01*
X12351333Y-14855428D01*
X12341809Y-14864952D01*
X12322762Y-14874476D01*
X12303714Y-14874476D01*
X12284667Y-14864952D01*
X12275143Y-14855428D01*
X12265619Y-14836381D01*
X12256095Y-14798286D01*
X12256095Y-14750667D01*
X12265619Y-14712571D01*
X12275143Y-14693524D01*
X12284667Y-14684000D01*
X12303714Y-14674476D01*
X12456095Y-14855428D02*
X12465619Y-14864952D01*
X12456095Y-14874476D01*
X12446571Y-14864952D01*
X12456095Y-14855428D01*
X12456095Y-14874476D01*
X12532286Y-14674476D02*
X12665619Y-14674476D01*
X12579905Y-14874476D01*
X12770381Y-14760190D02*
X12751333Y-14750667D01*
X12741809Y-14741143D01*
X12732286Y-14722095D01*
X12732286Y-14712571D01*
X12741809Y-14693524D01*
X12751333Y-14684000D01*
X12770381Y-14674476D01*
X12808476Y-14674476D01*
X12827524Y-14684000D01*
X12837048Y-14693524D01*
X12846571Y-14712571D01*
X12846571Y-14722095D01*
X12837048Y-14741143D01*
X12827524Y-14750667D01*
X12808476Y-14760190D01*
X12770381Y-14760190D01*
X12751333Y-14769714D01*
X12741809Y-14779238D01*
X12732286Y-14798286D01*
X12732286Y-14836381D01*
X12741809Y-14855428D01*
X12751333Y-14864952D01*
X12770381Y-14874476D01*
X12808476Y-14874476D01*
X12827524Y-14864952D01*
X12837048Y-14855428D01*
X12846571Y-14836381D01*
X12846571Y-14798286D01*
X12837048Y-14779238D01*
X12827524Y-14769714D01*
X12808476Y-14760190D01*
X12970381Y-14674476D02*
X12989428Y-14674476D01*
X13008476Y-14684000D01*
X13018000Y-14693524D01*
X13027524Y-14712571D01*
X13037048Y-14750667D01*
X13037048Y-14798286D01*
X13027524Y-14836381D01*
X13018000Y-14855428D01*
X13008476Y-14864952D01*
X12989428Y-14874476D01*
X12970381Y-14874476D01*
X12951333Y-14864952D01*
X12941809Y-14855428D01*
X12932286Y-14836381D01*
X12922762Y-14798286D01*
X12922762Y-14750667D01*
X12932286Y-14712571D01*
X12941809Y-14693524D01*
X12951333Y-14684000D01*
X12970381Y-14674476D01*
X13122762Y-14874476D02*
X13122762Y-14741143D01*
X13122762Y-14760190D02*
X13132286Y-14750667D01*
X13151333Y-14741143D01*
X13179905Y-14741143D01*
X13198952Y-14750667D01*
X13208476Y-14769714D01*
X13208476Y-14874476D01*
X13208476Y-14769714D02*
X13218000Y-14750667D01*
X13237048Y-14741143D01*
X13265619Y-14741143D01*
X13284667Y-14750667D01*
X13294190Y-14769714D01*
X13294190Y-14874476D01*
X13389428Y-14874476D02*
X13389428Y-14741143D01*
X13389428Y-14760190D02*
X13398952Y-14750667D01*
X13418000Y-14741143D01*
X13446571Y-14741143D01*
X13465619Y-14750667D01*
X13475143Y-14769714D01*
X13475143Y-14874476D01*
X13475143Y-14769714D02*
X13484667Y-14750667D01*
X13503714Y-14741143D01*
X13532286Y-14741143D01*
X13551333Y-14750667D01*
X13560857Y-14769714D01*
X13560857Y-14874476D01*
X13951333Y-14664952D02*
X13779905Y-14922095D01*
X14208476Y-14674476D02*
X14227524Y-14674476D01*
X14246571Y-14684000D01*
X14256095Y-14693524D01*
X14265619Y-14712571D01*
X14275143Y-14750667D01*
X14275143Y-14798286D01*
X14265619Y-14836381D01*
X14256095Y-14855428D01*
X14246571Y-14864952D01*
X14227524Y-14874476D01*
X14208476Y-14874476D01*
X14189428Y-14864952D01*
X14179905Y-14855428D01*
X14170381Y-14836381D01*
X14160857Y-14798286D01*
X14160857Y-14750667D01*
X14170381Y-14712571D01*
X14179905Y-14693524D01*
X14189428Y-14684000D01*
X14208476Y-14674476D01*
X14360857Y-14855428D02*
X14370381Y-14864952D01*
X14360857Y-14874476D01*
X14351333Y-14864952D01*
X14360857Y-14855428D01*
X14360857Y-14874476D01*
X14494190Y-14674476D02*
X14513238Y-14674476D01*
X14532286Y-14684000D01*
X14541809Y-14693524D01*
X14551333Y-14712571D01*
X14560857Y-14750667D01*
X14560857Y-14798286D01*
X14551333Y-14836381D01*
X14541809Y-14855428D01*
X14532286Y-14864952D01*
X14513238Y-14874476D01*
X14494190Y-14874476D01*
X14475143Y-14864952D01*
X14465619Y-14855428D01*
X14456095Y-14836381D01*
X14446571Y-14798286D01*
X14446571Y-14750667D01*
X14456095Y-14712571D01*
X14465619Y-14693524D01*
X14475143Y-14684000D01*
X14494190Y-14674476D01*
X14627524Y-14674476D02*
X14751333Y-14674476D01*
X14684667Y-14750667D01*
X14713238Y-14750667D01*
X14732286Y-14760190D01*
X14741809Y-14769714D01*
X14751333Y-14788762D01*
X14751333Y-14836381D01*
X14741809Y-14855428D01*
X14732286Y-14864952D01*
X14713238Y-14874476D01*
X14656095Y-14874476D01*
X14637048Y-14864952D01*
X14627524Y-14855428D01*
X14875143Y-14674476D02*
X14894190Y-14674476D01*
X14913238Y-14684000D01*
X14922762Y-14693524D01*
X14932286Y-14712571D01*
X14941809Y-14750667D01*
X14941809Y-14798286D01*
X14932286Y-14836381D01*
X14922762Y-14855428D01*
X14913238Y-14864952D01*
X14894190Y-14874476D01*
X14875143Y-14874476D01*
X14856095Y-14864952D01*
X14846571Y-14855428D01*
X14837048Y-14836381D01*
X14827524Y-14798286D01*
X14827524Y-14750667D01*
X14837048Y-14712571D01*
X14846571Y-14693524D01*
X14856095Y-14684000D01*
X14875143Y-14674476D01*
X15008476Y-14674476D02*
X15141809Y-14674476D01*
X15056095Y-14874476D01*
X15208476Y-14674476D02*
X15208476Y-14712571D01*
X15284667Y-14674476D02*
X15284667Y-14712571D01*
X15579905Y-14950667D02*
X15570381Y-14941143D01*
X15551333Y-14912571D01*
X15541809Y-14893524D01*
X15532286Y-14864952D01*
X15522762Y-14817333D01*
X15522762Y-14779238D01*
X15532286Y-14731619D01*
X15541809Y-14703048D01*
X15551333Y-14684000D01*
X15570381Y-14655428D01*
X15579905Y-14645905D01*
X15760857Y-14874476D02*
X15646571Y-14874476D01*
X15703714Y-14874476D02*
X15703714Y-14674476D01*
X15684667Y-14703048D01*
X15665619Y-14722095D01*
X15646571Y-14731619D01*
X15932286Y-14674476D02*
X15894190Y-14674476D01*
X15875143Y-14684000D01*
X15865619Y-14693524D01*
X15846571Y-14722095D01*
X15837048Y-14760190D01*
X15837048Y-14836381D01*
X15846571Y-14855428D01*
X15856095Y-14864952D01*
X15875143Y-14874476D01*
X15913238Y-14874476D01*
X15932286Y-14864952D01*
X15941809Y-14855428D01*
X15951333Y-14836381D01*
X15951333Y-14788762D01*
X15941809Y-14769714D01*
X15932286Y-14760190D01*
X15913238Y-14750667D01*
X15875143Y-14750667D01*
X15856095Y-14760190D01*
X15846571Y-14769714D01*
X15837048Y-14788762D01*
X16189428Y-14874476D02*
X16189428Y-14674476D01*
X16275143Y-14874476D02*
X16275143Y-14769714D01*
X16265619Y-14750667D01*
X16246571Y-14741143D01*
X16218000Y-14741143D01*
X16198952Y-14750667D01*
X16189428Y-14760190D01*
X16398952Y-14874476D02*
X16379905Y-14864952D01*
X16370381Y-14855428D01*
X16360857Y-14836381D01*
X16360857Y-14779238D01*
X16370381Y-14760190D01*
X16379905Y-14750667D01*
X16398952Y-14741143D01*
X16427524Y-14741143D01*
X16446571Y-14750667D01*
X16456095Y-14760190D01*
X16465619Y-14779238D01*
X16465619Y-14836381D01*
X16456095Y-14855428D01*
X16446571Y-14864952D01*
X16427524Y-14874476D01*
X16398952Y-14874476D01*
X16579905Y-14874476D02*
X16560857Y-14864952D01*
X16551333Y-14845905D01*
X16551333Y-14674476D01*
X16732286Y-14864952D02*
X16713238Y-14874476D01*
X16675143Y-14874476D01*
X16656095Y-14864952D01*
X16646571Y-14845905D01*
X16646571Y-14769714D01*
X16656095Y-14750667D01*
X16675143Y-14741143D01*
X16713238Y-14741143D01*
X16732286Y-14750667D01*
X16741809Y-14769714D01*
X16741809Y-14788762D01*
X16646571Y-14807809D01*
X16818000Y-14864952D02*
X16837048Y-14874476D01*
X16875143Y-14874476D01*
X16894190Y-14864952D01*
X16903714Y-14845905D01*
X16903714Y-14836381D01*
X16894190Y-14817333D01*
X16875143Y-14807809D01*
X16846571Y-14807809D01*
X16827524Y-14798286D01*
X16818000Y-14779238D01*
X16818000Y-14769714D01*
X16827524Y-14750667D01*
X16846571Y-14741143D01*
X16875143Y-14741143D01*
X16894190Y-14750667D01*
X16970381Y-14950667D02*
X16979905Y-14941143D01*
X16998952Y-14912571D01*
X17008476Y-14893524D01*
X17018000Y-14864952D01*
X17027524Y-14817333D01*
X17027524Y-14779238D01*
X17018000Y-14731619D01*
X17008476Y-14703048D01*
X16998952Y-14684000D01*
X16979905Y-14655428D01*
X16970381Y-14645905D01*
D15*
X11963000Y-15093000D02*
X12008000Y-15048000D01*
X11963000Y-15003000D01*
X11918000Y-15048000D01*
X11963000Y-15093000D01*
D10*
X12303714Y-14938476D02*
X12322762Y-14938476D01*
X12341809Y-14948000D01*
X12351333Y-14957524D01*
X12360857Y-14976571D01*
X12370381Y-15014667D01*
X12370381Y-15062286D01*
X12360857Y-15100381D01*
X12351333Y-15119428D01*
X12341809Y-15128952D01*
X12322762Y-15138476D01*
X12303714Y-15138476D01*
X12284667Y-15128952D01*
X12275143Y-15119428D01*
X12265619Y-15100381D01*
X12256095Y-15062286D01*
X12256095Y-15014667D01*
X12265619Y-14976571D01*
X12275143Y-14957524D01*
X12284667Y-14948000D01*
X12303714Y-14938476D01*
X12456095Y-15119428D02*
X12465619Y-15128952D01*
X12456095Y-15138476D01*
X12446571Y-15128952D01*
X12456095Y-15119428D01*
X12456095Y-15138476D01*
X12560857Y-15138476D02*
X12598952Y-15138476D01*
X12618000Y-15128952D01*
X12627524Y-15119428D01*
X12646571Y-15090857D01*
X12656095Y-15052762D01*
X12656095Y-14976571D01*
X12646571Y-14957524D01*
X12637048Y-14948000D01*
X12618000Y-14938476D01*
X12579905Y-14938476D01*
X12560857Y-14948000D01*
X12551333Y-14957524D01*
X12541809Y-14976571D01*
X12541809Y-15024190D01*
X12551333Y-15043238D01*
X12560857Y-15052762D01*
X12579905Y-15062286D01*
X12618000Y-15062286D01*
X12637048Y-15052762D01*
X12646571Y-15043238D01*
X12656095Y-15024190D01*
X12779905Y-14938476D02*
X12798952Y-14938476D01*
X12818000Y-14948000D01*
X12827524Y-14957524D01*
X12837048Y-14976571D01*
X12846571Y-15014667D01*
X12846571Y-15062286D01*
X12837048Y-15100381D01*
X12827524Y-15119428D01*
X12818000Y-15128952D01*
X12798952Y-15138476D01*
X12779905Y-15138476D01*
X12760857Y-15128952D01*
X12751333Y-15119428D01*
X12741809Y-15100381D01*
X12732286Y-15062286D01*
X12732286Y-15014667D01*
X12741809Y-14976571D01*
X12751333Y-14957524D01*
X12760857Y-14948000D01*
X12779905Y-14938476D01*
X12970381Y-14938476D02*
X12989428Y-14938476D01*
X13008476Y-14948000D01*
X13018000Y-14957524D01*
X13027524Y-14976571D01*
X13037048Y-15014667D01*
X13037048Y-15062286D01*
X13027524Y-15100381D01*
X13018000Y-15119428D01*
X13008476Y-15128952D01*
X12989428Y-15138476D01*
X12970381Y-15138476D01*
X12951333Y-15128952D01*
X12941809Y-15119428D01*
X12932286Y-15100381D01*
X12922762Y-15062286D01*
X12922762Y-15014667D01*
X12932286Y-14976571D01*
X12941809Y-14957524D01*
X12951333Y-14948000D01*
X12970381Y-14938476D01*
X13122762Y-15138476D02*
X13122762Y-15005143D01*
X13122762Y-15024190D02*
X13132286Y-15014667D01*
X13151333Y-15005143D01*
X13179905Y-15005143D01*
X13198952Y-15014667D01*
X13208476Y-15033714D01*
X13208476Y-15138476D01*
X13208476Y-15033714D02*
X13218000Y-15014667D01*
X13237048Y-15005143D01*
X13265619Y-15005143D01*
X13284667Y-15014667D01*
X13294190Y-15033714D01*
X13294190Y-15138476D01*
X13389428Y-15138476D02*
X13389428Y-15005143D01*
X13389428Y-15024190D02*
X13398952Y-15014667D01*
X13418000Y-15005143D01*
X13446571Y-15005143D01*
X13465619Y-15014667D01*
X13475143Y-15033714D01*
X13475143Y-15138476D01*
X13475143Y-15033714D02*
X13484667Y-15014667D01*
X13503714Y-15005143D01*
X13532286Y-15005143D01*
X13551333Y-15014667D01*
X13560857Y-15033714D01*
X13560857Y-15138476D01*
X13951333Y-14928952D02*
X13779905Y-15186095D01*
X14208476Y-14938476D02*
X14227524Y-14938476D01*
X14246571Y-14948000D01*
X14256095Y-14957524D01*
X14265619Y-14976571D01*
X14275143Y-15014667D01*
X14275143Y-15062286D01*
X14265619Y-15100381D01*
X14256095Y-15119428D01*
X14246571Y-15128952D01*
X14227524Y-15138476D01*
X14208476Y-15138476D01*
X14189428Y-15128952D01*
X14179905Y-15119428D01*
X14170381Y-15100381D01*
X14160857Y-15062286D01*
X14160857Y-15014667D01*
X14170381Y-14976571D01*
X14179905Y-14957524D01*
X14189428Y-14948000D01*
X14208476Y-14938476D01*
X14360857Y-15119428D02*
X14370381Y-15128952D01*
X14360857Y-15138476D01*
X14351333Y-15128952D01*
X14360857Y-15119428D01*
X14360857Y-15138476D01*
X14494190Y-14938476D02*
X14513238Y-14938476D01*
X14532286Y-14948000D01*
X14541809Y-14957524D01*
X14551333Y-14976571D01*
X14560857Y-15014667D01*
X14560857Y-15062286D01*
X14551333Y-15100381D01*
X14541809Y-15119428D01*
X14532286Y-15128952D01*
X14513238Y-15138476D01*
X14494190Y-15138476D01*
X14475143Y-15128952D01*
X14465619Y-15119428D01*
X14456095Y-15100381D01*
X14446571Y-15062286D01*
X14446571Y-15014667D01*
X14456095Y-14976571D01*
X14465619Y-14957524D01*
X14475143Y-14948000D01*
X14494190Y-14938476D01*
X14627524Y-14938476D02*
X14751333Y-14938476D01*
X14684667Y-15014667D01*
X14713238Y-15014667D01*
X14732286Y-15024190D01*
X14741809Y-15033714D01*
X14751333Y-15052762D01*
X14751333Y-15100381D01*
X14741809Y-15119428D01*
X14732286Y-15128952D01*
X14713238Y-15138476D01*
X14656095Y-15138476D01*
X14637048Y-15128952D01*
X14627524Y-15119428D01*
X14932286Y-14938476D02*
X14837048Y-14938476D01*
X14827524Y-15033714D01*
X14837048Y-15024190D01*
X14856095Y-15014667D01*
X14903714Y-15014667D01*
X14922762Y-15024190D01*
X14932286Y-15033714D01*
X14941809Y-15052762D01*
X14941809Y-15100381D01*
X14932286Y-15119428D01*
X14922762Y-15128952D01*
X14903714Y-15138476D01*
X14856095Y-15138476D01*
X14837048Y-15128952D01*
X14827524Y-15119428D01*
X15113238Y-15005143D02*
X15113238Y-15138476D01*
X15065619Y-14928952D02*
X15018000Y-15071809D01*
X15141809Y-15071809D01*
X15208476Y-14938476D02*
X15208476Y-14976571D01*
X15284667Y-14938476D02*
X15284667Y-14976571D01*
X15579905Y-15214667D02*
X15570381Y-15205143D01*
X15551333Y-15176571D01*
X15541809Y-15157524D01*
X15532286Y-15128952D01*
X15522762Y-15081333D01*
X15522762Y-15043238D01*
X15532286Y-14995619D01*
X15541809Y-14967048D01*
X15551333Y-14948000D01*
X15570381Y-14919428D01*
X15579905Y-14909905D01*
X15760857Y-15138476D02*
X15646571Y-15138476D01*
X15703714Y-15138476D02*
X15703714Y-14938476D01*
X15684667Y-14967048D01*
X15665619Y-14986095D01*
X15646571Y-14995619D01*
X15951333Y-15138476D02*
X15837048Y-15138476D01*
X15894190Y-15138476D02*
X15894190Y-14938476D01*
X15875143Y-14967048D01*
X15856095Y-14986095D01*
X15837048Y-14995619D01*
X16189428Y-15138476D02*
X16189428Y-14938476D01*
X16275143Y-15138476D02*
X16275143Y-15033714D01*
X16265619Y-15014667D01*
X16246571Y-15005143D01*
X16218000Y-15005143D01*
X16198952Y-15014667D01*
X16189428Y-15024190D01*
X16398952Y-15138476D02*
X16379905Y-15128952D01*
X16370381Y-15119428D01*
X16360857Y-15100381D01*
X16360857Y-15043238D01*
X16370381Y-15024190D01*
X16379905Y-15014667D01*
X16398952Y-15005143D01*
X16427524Y-15005143D01*
X16446571Y-15014667D01*
X16456095Y-15024190D01*
X16465619Y-15043238D01*
X16465619Y-15100381D01*
X16456095Y-15119428D01*
X16446571Y-15128952D01*
X16427524Y-15138476D01*
X16398952Y-15138476D01*
X16579905Y-15138476D02*
X16560857Y-15128952D01*
X16551333Y-15109905D01*
X16551333Y-14938476D01*
X16732286Y-15128952D02*
X16713238Y-15138476D01*
X16675143Y-15138476D01*
X16656095Y-15128952D01*
X16646571Y-15109905D01*
X16646571Y-15033714D01*
X16656095Y-15014667D01*
X16675143Y-15005143D01*
X16713238Y-15005143D01*
X16732286Y-15014667D01*
X16741809Y-15033714D01*
X16741809Y-15052762D01*
X16646571Y-15071809D01*
X16818000Y-15128952D02*
X16837048Y-15138476D01*
X16875143Y-15138476D01*
X16894190Y-15128952D01*
X16903714Y-15109905D01*
X16903714Y-15100381D01*
X16894190Y-15081333D01*
X16875143Y-15071809D01*
X16846571Y-15071809D01*
X16827524Y-15062286D01*
X16818000Y-15043238D01*
X16818000Y-15033714D01*
X16827524Y-15014667D01*
X16846571Y-15005143D01*
X16875143Y-15005143D01*
X16894190Y-15014667D01*
X16970381Y-15214667D02*
X16979905Y-15205143D01*
X16998952Y-15176571D01*
X17008476Y-15157524D01*
X17018000Y-15128952D01*
X17027524Y-15081333D01*
X17027524Y-15043238D01*
X17018000Y-14995619D01*
X17008476Y-14967048D01*
X16998952Y-14948000D01*
X16979905Y-14919428D01*
X16970381Y-14909905D01*
D16*
X11908000Y-15262000D02*
X12008000Y-15362000D01*
X12008000Y-15262000D02*
X11908000Y-15362000D01*
X12008000Y-15312000D02*
G75*
G03*
X12008000Y-15312000I-50000J0D01*
G01*
D10*
X12370381Y-15402476D02*
X12256095Y-15402476D01*
X12313238Y-15402476D02*
X12313238Y-15202476D01*
X12294190Y-15231048D01*
X12275143Y-15250095D01*
X12256095Y-15259619D01*
X12456095Y-15383428D02*
X12465619Y-15392952D01*
X12456095Y-15402476D01*
X12446571Y-15392952D01*
X12456095Y-15383428D01*
X12456095Y-15402476D01*
X12589428Y-15202476D02*
X12608476Y-15202476D01*
X12627524Y-15212000D01*
X12637048Y-15221524D01*
X12646571Y-15240571D01*
X12656095Y-15278667D01*
X12656095Y-15326286D01*
X12646571Y-15364381D01*
X12637048Y-15383428D01*
X12627524Y-15392952D01*
X12608476Y-15402476D01*
X12589428Y-15402476D01*
X12570381Y-15392952D01*
X12560857Y-15383428D01*
X12551333Y-15364381D01*
X12541809Y-15326286D01*
X12541809Y-15278667D01*
X12551333Y-15240571D01*
X12560857Y-15221524D01*
X12570381Y-15212000D01*
X12589428Y-15202476D01*
X12779905Y-15202476D02*
X12798952Y-15202476D01*
X12818000Y-15212000D01*
X12827524Y-15221524D01*
X12837048Y-15240571D01*
X12846571Y-15278667D01*
X12846571Y-15326286D01*
X12837048Y-15364381D01*
X12827524Y-15383428D01*
X12818000Y-15392952D01*
X12798952Y-15402476D01*
X12779905Y-15402476D01*
X12760857Y-15392952D01*
X12751333Y-15383428D01*
X12741809Y-15364381D01*
X12732286Y-15326286D01*
X12732286Y-15278667D01*
X12741809Y-15240571D01*
X12751333Y-15221524D01*
X12760857Y-15212000D01*
X12779905Y-15202476D01*
X12970381Y-15202476D02*
X12989428Y-15202476D01*
X13008476Y-15212000D01*
X13018000Y-15221524D01*
X13027524Y-15240571D01*
X13037048Y-15278667D01*
X13037048Y-15326286D01*
X13027524Y-15364381D01*
X13018000Y-15383428D01*
X13008476Y-15392952D01*
X12989428Y-15402476D01*
X12970381Y-15402476D01*
X12951333Y-15392952D01*
X12941809Y-15383428D01*
X12932286Y-15364381D01*
X12922762Y-15326286D01*
X12922762Y-15278667D01*
X12932286Y-15240571D01*
X12941809Y-15221524D01*
X12951333Y-15212000D01*
X12970381Y-15202476D01*
X13122762Y-15402476D02*
X13122762Y-15269143D01*
X13122762Y-15288190D02*
X13132286Y-15278667D01*
X13151333Y-15269143D01*
X13179905Y-15269143D01*
X13198952Y-15278667D01*
X13208476Y-15297714D01*
X13208476Y-15402476D01*
X13208476Y-15297714D02*
X13218000Y-15278667D01*
X13237048Y-15269143D01*
X13265619Y-15269143D01*
X13284667Y-15278667D01*
X13294190Y-15297714D01*
X13294190Y-15402476D01*
X13389428Y-15402476D02*
X13389428Y-15269143D01*
X13389428Y-15288190D02*
X13398952Y-15278667D01*
X13418000Y-15269143D01*
X13446571Y-15269143D01*
X13465619Y-15278667D01*
X13475143Y-15297714D01*
X13475143Y-15402476D01*
X13475143Y-15297714D02*
X13484667Y-15278667D01*
X13503714Y-15269143D01*
X13532286Y-15269143D01*
X13551333Y-15278667D01*
X13560857Y-15297714D01*
X13560857Y-15402476D01*
X13951333Y-15192952D02*
X13779905Y-15450095D01*
X14208476Y-15202476D02*
X14227524Y-15202476D01*
X14246571Y-15212000D01*
X14256095Y-15221524D01*
X14265619Y-15240571D01*
X14275143Y-15278667D01*
X14275143Y-15326286D01*
X14265619Y-15364381D01*
X14256095Y-15383428D01*
X14246571Y-15392952D01*
X14227524Y-15402476D01*
X14208476Y-15402476D01*
X14189428Y-15392952D01*
X14179905Y-15383428D01*
X14170381Y-15364381D01*
X14160857Y-15326286D01*
X14160857Y-15278667D01*
X14170381Y-15240571D01*
X14179905Y-15221524D01*
X14189428Y-15212000D01*
X14208476Y-15202476D01*
X14360857Y-15383428D02*
X14370381Y-15392952D01*
X14360857Y-15402476D01*
X14351333Y-15392952D01*
X14360857Y-15383428D01*
X14360857Y-15402476D01*
X14494190Y-15202476D02*
X14513238Y-15202476D01*
X14532286Y-15212000D01*
X14541809Y-15221524D01*
X14551333Y-15240571D01*
X14560857Y-15278667D01*
X14560857Y-15326286D01*
X14551333Y-15364381D01*
X14541809Y-15383428D01*
X14532286Y-15392952D01*
X14513238Y-15402476D01*
X14494190Y-15402476D01*
X14475143Y-15392952D01*
X14465619Y-15383428D01*
X14456095Y-15364381D01*
X14446571Y-15326286D01*
X14446571Y-15278667D01*
X14456095Y-15240571D01*
X14465619Y-15221524D01*
X14475143Y-15212000D01*
X14494190Y-15202476D01*
X14627524Y-15202476D02*
X14751333Y-15202476D01*
X14684667Y-15278667D01*
X14713238Y-15278667D01*
X14732286Y-15288190D01*
X14741809Y-15297714D01*
X14751333Y-15316762D01*
X14751333Y-15364381D01*
X14741809Y-15383428D01*
X14732286Y-15392952D01*
X14713238Y-15402476D01*
X14656095Y-15402476D01*
X14637048Y-15392952D01*
X14627524Y-15383428D01*
X14846571Y-15402476D02*
X14884667Y-15402476D01*
X14903714Y-15392952D01*
X14913238Y-15383428D01*
X14932286Y-15354857D01*
X14941809Y-15316762D01*
X14941809Y-15240571D01*
X14932286Y-15221524D01*
X14922762Y-15212000D01*
X14903714Y-15202476D01*
X14865619Y-15202476D01*
X14846571Y-15212000D01*
X14837048Y-15221524D01*
X14827524Y-15240571D01*
X14827524Y-15288190D01*
X14837048Y-15307238D01*
X14846571Y-15316762D01*
X14865619Y-15326286D01*
X14903714Y-15326286D01*
X14922762Y-15316762D01*
X14932286Y-15307238D01*
X14941809Y-15288190D01*
X15113238Y-15269143D02*
X15113238Y-15402476D01*
X15065619Y-15192952D02*
X15018000Y-15335809D01*
X15141809Y-15335809D01*
X15208476Y-15202476D02*
X15208476Y-15240571D01*
X15284667Y-15202476D02*
X15284667Y-15240571D01*
X15579905Y-15478667D02*
X15570381Y-15469143D01*
X15551333Y-15440571D01*
X15541809Y-15421524D01*
X15532286Y-15392952D01*
X15522762Y-15345333D01*
X15522762Y-15307238D01*
X15532286Y-15259619D01*
X15541809Y-15231048D01*
X15551333Y-15212000D01*
X15570381Y-15183428D01*
X15579905Y-15173905D01*
X15684667Y-15288190D02*
X15665619Y-15278667D01*
X15656095Y-15269143D01*
X15646571Y-15250095D01*
X15646571Y-15240571D01*
X15656095Y-15221524D01*
X15665619Y-15212000D01*
X15684667Y-15202476D01*
X15722762Y-15202476D01*
X15741809Y-15212000D01*
X15751333Y-15221524D01*
X15760857Y-15240571D01*
X15760857Y-15250095D01*
X15751333Y-15269143D01*
X15741809Y-15278667D01*
X15722762Y-15288190D01*
X15684667Y-15288190D01*
X15665619Y-15297714D01*
X15656095Y-15307238D01*
X15646571Y-15326286D01*
X15646571Y-15364381D01*
X15656095Y-15383428D01*
X15665619Y-15392952D01*
X15684667Y-15402476D01*
X15722762Y-15402476D01*
X15741809Y-15392952D01*
X15751333Y-15383428D01*
X15760857Y-15364381D01*
X15760857Y-15326286D01*
X15751333Y-15307238D01*
X15741809Y-15297714D01*
X15722762Y-15288190D01*
X15998952Y-15402476D02*
X15998952Y-15202476D01*
X16084667Y-15402476D02*
X16084667Y-15297714D01*
X16075143Y-15278667D01*
X16056095Y-15269143D01*
X16027524Y-15269143D01*
X16008476Y-15278667D01*
X15998952Y-15288190D01*
X16208476Y-15402476D02*
X16189428Y-15392952D01*
X16179905Y-15383428D01*
X16170381Y-15364381D01*
X16170381Y-15307238D01*
X16179905Y-15288190D01*
X16189428Y-15278667D01*
X16208476Y-15269143D01*
X16237048Y-15269143D01*
X16256095Y-15278667D01*
X16265619Y-15288190D01*
X16275143Y-15307238D01*
X16275143Y-15364381D01*
X16265619Y-15383428D01*
X16256095Y-15392952D01*
X16237048Y-15402476D01*
X16208476Y-15402476D01*
X16389428Y-15402476D02*
X16370381Y-15392952D01*
X16360857Y-15373905D01*
X16360857Y-15202476D01*
X16541809Y-15392952D02*
X16522762Y-15402476D01*
X16484667Y-15402476D01*
X16465619Y-15392952D01*
X16456095Y-15373905D01*
X16456095Y-15297714D01*
X16465619Y-15278667D01*
X16484667Y-15269143D01*
X16522762Y-15269143D01*
X16541809Y-15278667D01*
X16551333Y-15297714D01*
X16551333Y-15316762D01*
X16456095Y-15335809D01*
X16627524Y-15392952D02*
X16646571Y-15402476D01*
X16684667Y-15402476D01*
X16703714Y-15392952D01*
X16713238Y-15373905D01*
X16713238Y-15364381D01*
X16703714Y-15345333D01*
X16684667Y-15335809D01*
X16656095Y-15335809D01*
X16637048Y-15326286D01*
X16627524Y-15307238D01*
X16627524Y-15297714D01*
X16637048Y-15278667D01*
X16656095Y-15269143D01*
X16684667Y-15269143D01*
X16703714Y-15278667D01*
X16779905Y-15478667D02*
X16789429Y-15469143D01*
X16808476Y-15440571D01*
X16818000Y-15421524D01*
X16827524Y-15392952D01*
X16837048Y-15345333D01*
X16837048Y-15307238D01*
X16827524Y-15259619D01*
X16818000Y-15231048D01*
X16808476Y-15212000D01*
X16789429Y-15183428D01*
X16779905Y-15173905D01*
D17*
X11898000Y-15521000D02*
X12008000Y-15631000D01*
X12008000Y-15521000D02*
X11898000Y-15631000D01*
X11953000Y-15521000D02*
X11953000Y-15631000D01*
X11898000Y-15576000D02*
X12008000Y-15576000D01*
D10*
X12370381Y-15666476D02*
X12256095Y-15666476D01*
X12313238Y-15666476D02*
X12313238Y-15466476D01*
X12294190Y-15495048D01*
X12275143Y-15514095D01*
X12256095Y-15523619D01*
X12456095Y-15647428D02*
X12465619Y-15656952D01*
X12456095Y-15666476D01*
X12446571Y-15656952D01*
X12456095Y-15647428D01*
X12456095Y-15666476D01*
X12656095Y-15666476D02*
X12541809Y-15666476D01*
X12598952Y-15666476D02*
X12598952Y-15466476D01*
X12579905Y-15495048D01*
X12560857Y-15514095D01*
X12541809Y-15523619D01*
X12779905Y-15466476D02*
X12798952Y-15466476D01*
X12818000Y-15476000D01*
X12827524Y-15485524D01*
X12837048Y-15504571D01*
X12846571Y-15542667D01*
X12846571Y-15590286D01*
X12837048Y-15628381D01*
X12827524Y-15647428D01*
X12818000Y-15656952D01*
X12798952Y-15666476D01*
X12779905Y-15666476D01*
X12760857Y-15656952D01*
X12751333Y-15647428D01*
X12741809Y-15628381D01*
X12732286Y-15590286D01*
X12732286Y-15542667D01*
X12741809Y-15504571D01*
X12751333Y-15485524D01*
X12760857Y-15476000D01*
X12779905Y-15466476D01*
X12970381Y-15466476D02*
X12989428Y-15466476D01*
X13008476Y-15476000D01*
X13018000Y-15485524D01*
X13027524Y-15504571D01*
X13037048Y-15542667D01*
X13037048Y-15590286D01*
X13027524Y-15628381D01*
X13018000Y-15647428D01*
X13008476Y-15656952D01*
X12989428Y-15666476D01*
X12970381Y-15666476D01*
X12951333Y-15656952D01*
X12941809Y-15647428D01*
X12932286Y-15628381D01*
X12922762Y-15590286D01*
X12922762Y-15542667D01*
X12932286Y-15504571D01*
X12941809Y-15485524D01*
X12951333Y-15476000D01*
X12970381Y-15466476D01*
X13122762Y-15666476D02*
X13122762Y-15533143D01*
X13122762Y-15552190D02*
X13132286Y-15542667D01*
X13151333Y-15533143D01*
X13179905Y-15533143D01*
X13198952Y-15542667D01*
X13208476Y-15561714D01*
X13208476Y-15666476D01*
X13208476Y-15561714D02*
X13218000Y-15542667D01*
X13237048Y-15533143D01*
X13265619Y-15533143D01*
X13284667Y-15542667D01*
X13294190Y-15561714D01*
X13294190Y-15666476D01*
X13389428Y-15666476D02*
X13389428Y-15533143D01*
X13389428Y-15552190D02*
X13398952Y-15542667D01*
X13418000Y-15533143D01*
X13446571Y-15533143D01*
X13465619Y-15542667D01*
X13475143Y-15561714D01*
X13475143Y-15666476D01*
X13475143Y-15561714D02*
X13484667Y-15542667D01*
X13503714Y-15533143D01*
X13532286Y-15533143D01*
X13551333Y-15542667D01*
X13560857Y-15561714D01*
X13560857Y-15666476D01*
X13951333Y-15456952D02*
X13779905Y-15714095D01*
X14208476Y-15466476D02*
X14227524Y-15466476D01*
X14246571Y-15476000D01*
X14256095Y-15485524D01*
X14265619Y-15504571D01*
X14275143Y-15542667D01*
X14275143Y-15590286D01*
X14265619Y-15628381D01*
X14256095Y-15647428D01*
X14246571Y-15656952D01*
X14227524Y-15666476D01*
X14208476Y-15666476D01*
X14189428Y-15656952D01*
X14179905Y-15647428D01*
X14170381Y-15628381D01*
X14160857Y-15590286D01*
X14160857Y-15542667D01*
X14170381Y-15504571D01*
X14179905Y-15485524D01*
X14189428Y-15476000D01*
X14208476Y-15466476D01*
X14360857Y-15647428D02*
X14370381Y-15656952D01*
X14360857Y-15666476D01*
X14351333Y-15656952D01*
X14360857Y-15647428D01*
X14360857Y-15666476D01*
X14494190Y-15466476D02*
X14513238Y-15466476D01*
X14532286Y-15476000D01*
X14541809Y-15485524D01*
X14551333Y-15504571D01*
X14560857Y-15542667D01*
X14560857Y-15590286D01*
X14551333Y-15628381D01*
X14541809Y-15647428D01*
X14532286Y-15656952D01*
X14513238Y-15666476D01*
X14494190Y-15666476D01*
X14475143Y-15656952D01*
X14465619Y-15647428D01*
X14456095Y-15628381D01*
X14446571Y-15590286D01*
X14446571Y-15542667D01*
X14456095Y-15504571D01*
X14465619Y-15485524D01*
X14475143Y-15476000D01*
X14494190Y-15466476D01*
X14732286Y-15533143D02*
X14732286Y-15666476D01*
X14684667Y-15456952D02*
X14637048Y-15599809D01*
X14760857Y-15599809D01*
X14818000Y-15466476D02*
X14941809Y-15466476D01*
X14875143Y-15542667D01*
X14903714Y-15542667D01*
X14922762Y-15552190D01*
X14932286Y-15561714D01*
X14941809Y-15580762D01*
X14941809Y-15628381D01*
X14932286Y-15647428D01*
X14922762Y-15656952D01*
X14903714Y-15666476D01*
X14846571Y-15666476D01*
X14827524Y-15656952D01*
X14818000Y-15647428D01*
X15008476Y-15466476D02*
X15132286Y-15466476D01*
X15065619Y-15542667D01*
X15094190Y-15542667D01*
X15113238Y-15552190D01*
X15122762Y-15561714D01*
X15132286Y-15580762D01*
X15132286Y-15628381D01*
X15122762Y-15647428D01*
X15113238Y-15656952D01*
X15094190Y-15666476D01*
X15037048Y-15666476D01*
X15018000Y-15656952D01*
X15008476Y-15647428D01*
X15208476Y-15466476D02*
X15208476Y-15504571D01*
X15284667Y-15466476D02*
X15284667Y-15504571D01*
X15579905Y-15742667D02*
X15570381Y-15733143D01*
X15551333Y-15704571D01*
X15541809Y-15685524D01*
X15532286Y-15656952D01*
X15522762Y-15609333D01*
X15522762Y-15571238D01*
X15532286Y-15523619D01*
X15541809Y-15495048D01*
X15551333Y-15476000D01*
X15570381Y-15447428D01*
X15579905Y-15437905D01*
X15637048Y-15466476D02*
X15760857Y-15466476D01*
X15694190Y-15542667D01*
X15722762Y-15542667D01*
X15741809Y-15552190D01*
X15751333Y-15561714D01*
X15760857Y-15580762D01*
X15760857Y-15628381D01*
X15751333Y-15647428D01*
X15741809Y-15656952D01*
X15722762Y-15666476D01*
X15665619Y-15666476D01*
X15646571Y-15656952D01*
X15637048Y-15647428D01*
X15998952Y-15666476D02*
X15998952Y-15466476D01*
X16084667Y-15666476D02*
X16084667Y-15561714D01*
X16075143Y-15542667D01*
X16056095Y-15533143D01*
X16027524Y-15533143D01*
X16008476Y-15542667D01*
X15998952Y-15552190D01*
X16208476Y-15666476D02*
X16189428Y-15656952D01*
X16179905Y-15647428D01*
X16170381Y-15628381D01*
X16170381Y-15571238D01*
X16179905Y-15552190D01*
X16189428Y-15542667D01*
X16208476Y-15533143D01*
X16237048Y-15533143D01*
X16256095Y-15542667D01*
X16265619Y-15552190D01*
X16275143Y-15571238D01*
X16275143Y-15628381D01*
X16265619Y-15647428D01*
X16256095Y-15656952D01*
X16237048Y-15666476D01*
X16208476Y-15666476D01*
X16389428Y-15666476D02*
X16370381Y-15656952D01*
X16360857Y-15637905D01*
X16360857Y-15466476D01*
X16541809Y-15656952D02*
X16522762Y-15666476D01*
X16484667Y-15666476D01*
X16465619Y-15656952D01*
X16456095Y-15637905D01*
X16456095Y-15561714D01*
X16465619Y-15542667D01*
X16484667Y-15533143D01*
X16522762Y-15533143D01*
X16541809Y-15542667D01*
X16551333Y-15561714D01*
X16551333Y-15580762D01*
X16456095Y-15599809D01*
X16627524Y-15656952D02*
X16646571Y-15666476D01*
X16684667Y-15666476D01*
X16703714Y-15656952D01*
X16713238Y-15637905D01*
X16713238Y-15628381D01*
X16703714Y-15609333D01*
X16684667Y-15599809D01*
X16656095Y-15599809D01*
X16637048Y-15590286D01*
X16627524Y-15571238D01*
X16627524Y-15561714D01*
X16637048Y-15542667D01*
X16656095Y-15533143D01*
X16684667Y-15533143D01*
X16703714Y-15542667D01*
X16779905Y-15742667D02*
X16789429Y-15733143D01*
X16808476Y-15704571D01*
X16818000Y-15685524D01*
X16827524Y-15656952D01*
X16837048Y-15609333D01*
X16837048Y-15571238D01*
X16827524Y-15523619D01*
X16818000Y-15495048D01*
X16808476Y-15476000D01*
X16789429Y-15447428D01*
X16779905Y-15437905D01*
X11808000Y-15740000D02*
X12008000Y-15940000D01*
X12008000Y-15740000D02*
X11808000Y-15940000D01*
X11978711Y-15910711D02*
X11978711Y-15769289D01*
X11837289Y-15769289D01*
X11837289Y-15910711D01*
X11978711Y-15910711D01*
X12246571Y-15730476D02*
X12370381Y-15730476D01*
X12303714Y-15806667D01*
X12332286Y-15806667D01*
X12351333Y-15816190D01*
X12360857Y-15825714D01*
X12370381Y-15844762D01*
X12370381Y-15892381D01*
X12360857Y-15911428D01*
X12351333Y-15920952D01*
X12332286Y-15930476D01*
X12275143Y-15930476D01*
X12256095Y-15920952D01*
X12246571Y-15911428D01*
X12456095Y-15911428D02*
X12465619Y-15920952D01*
X12456095Y-15930476D01*
X12446571Y-15920952D01*
X12456095Y-15911428D01*
X12456095Y-15930476D01*
X12646571Y-15730476D02*
X12551333Y-15730476D01*
X12541809Y-15825714D01*
X12551333Y-15816190D01*
X12570381Y-15806667D01*
X12618000Y-15806667D01*
X12637048Y-15816190D01*
X12646571Y-15825714D01*
X12656095Y-15844762D01*
X12656095Y-15892381D01*
X12646571Y-15911428D01*
X12637048Y-15920952D01*
X12618000Y-15930476D01*
X12570381Y-15930476D01*
X12551333Y-15920952D01*
X12541809Y-15911428D01*
X12779905Y-15730476D02*
X12798952Y-15730476D01*
X12818000Y-15740000D01*
X12827524Y-15749524D01*
X12837048Y-15768571D01*
X12846571Y-15806667D01*
X12846571Y-15854286D01*
X12837048Y-15892381D01*
X12827524Y-15911428D01*
X12818000Y-15920952D01*
X12798952Y-15930476D01*
X12779905Y-15930476D01*
X12760857Y-15920952D01*
X12751333Y-15911428D01*
X12741809Y-15892381D01*
X12732286Y-15854286D01*
X12732286Y-15806667D01*
X12741809Y-15768571D01*
X12751333Y-15749524D01*
X12760857Y-15740000D01*
X12779905Y-15730476D01*
X12970381Y-15730476D02*
X12989428Y-15730476D01*
X13008476Y-15740000D01*
X13018000Y-15749524D01*
X13027524Y-15768571D01*
X13037048Y-15806667D01*
X13037048Y-15854286D01*
X13027524Y-15892381D01*
X13018000Y-15911428D01*
X13008476Y-15920952D01*
X12989428Y-15930476D01*
X12970381Y-15930476D01*
X12951333Y-15920952D01*
X12941809Y-15911428D01*
X12932286Y-15892381D01*
X12922762Y-15854286D01*
X12922762Y-15806667D01*
X12932286Y-15768571D01*
X12941809Y-15749524D01*
X12951333Y-15740000D01*
X12970381Y-15730476D01*
X13122762Y-15930476D02*
X13122762Y-15797143D01*
X13122762Y-15816190D02*
X13132286Y-15806667D01*
X13151333Y-15797143D01*
X13179905Y-15797143D01*
X13198952Y-15806667D01*
X13208476Y-15825714D01*
X13208476Y-15930476D01*
X13208476Y-15825714D02*
X13218000Y-15806667D01*
X13237048Y-15797143D01*
X13265619Y-15797143D01*
X13284667Y-15806667D01*
X13294190Y-15825714D01*
X13294190Y-15930476D01*
X13389428Y-15930476D02*
X13389428Y-15797143D01*
X13389428Y-15816190D02*
X13398952Y-15806667D01*
X13418000Y-15797143D01*
X13446571Y-15797143D01*
X13465619Y-15806667D01*
X13475143Y-15825714D01*
X13475143Y-15930476D01*
X13475143Y-15825714D02*
X13484667Y-15806667D01*
X13503714Y-15797143D01*
X13532286Y-15797143D01*
X13551333Y-15806667D01*
X13560857Y-15825714D01*
X13560857Y-15930476D01*
X13951333Y-15720952D02*
X13779905Y-15978095D01*
X14208476Y-15730476D02*
X14227524Y-15730476D01*
X14246571Y-15740000D01*
X14256095Y-15749524D01*
X14265619Y-15768571D01*
X14275143Y-15806667D01*
X14275143Y-15854286D01*
X14265619Y-15892381D01*
X14256095Y-15911428D01*
X14246571Y-15920952D01*
X14227524Y-15930476D01*
X14208476Y-15930476D01*
X14189428Y-15920952D01*
X14179905Y-15911428D01*
X14170381Y-15892381D01*
X14160857Y-15854286D01*
X14160857Y-15806667D01*
X14170381Y-15768571D01*
X14179905Y-15749524D01*
X14189428Y-15740000D01*
X14208476Y-15730476D01*
X14360857Y-15911428D02*
X14370381Y-15920952D01*
X14360857Y-15930476D01*
X14351333Y-15920952D01*
X14360857Y-15911428D01*
X14360857Y-15930476D01*
X14560857Y-15930476D02*
X14446571Y-15930476D01*
X14503714Y-15930476D02*
X14503714Y-15730476D01*
X14484667Y-15759048D01*
X14465619Y-15778095D01*
X14446571Y-15787619D01*
X14627524Y-15730476D02*
X14751333Y-15730476D01*
X14684667Y-15806667D01*
X14713238Y-15806667D01*
X14732286Y-15816190D01*
X14741809Y-15825714D01*
X14751333Y-15844762D01*
X14751333Y-15892381D01*
X14741809Y-15911428D01*
X14732286Y-15920952D01*
X14713238Y-15930476D01*
X14656095Y-15930476D01*
X14637048Y-15920952D01*
X14627524Y-15911428D01*
X14818000Y-15730476D02*
X14951333Y-15730476D01*
X14865619Y-15930476D01*
X15056095Y-15816190D02*
X15037048Y-15806667D01*
X15027524Y-15797143D01*
X15018000Y-15778095D01*
X15018000Y-15768571D01*
X15027524Y-15749524D01*
X15037048Y-15740000D01*
X15056095Y-15730476D01*
X15094190Y-15730476D01*
X15113238Y-15740000D01*
X15122762Y-15749524D01*
X15132286Y-15768571D01*
X15132286Y-15778095D01*
X15122762Y-15797143D01*
X15113238Y-15806667D01*
X15094190Y-15816190D01*
X15056095Y-15816190D01*
X15037048Y-15825714D01*
X15027524Y-15835238D01*
X15018000Y-15854286D01*
X15018000Y-15892381D01*
X15027524Y-15911428D01*
X15037048Y-15920952D01*
X15056095Y-15930476D01*
X15094190Y-15930476D01*
X15113238Y-15920952D01*
X15122762Y-15911428D01*
X15132286Y-15892381D01*
X15132286Y-15854286D01*
X15122762Y-15835238D01*
X15113238Y-15825714D01*
X15094190Y-15816190D01*
X15208476Y-15730476D02*
X15208476Y-15768571D01*
X15284667Y-15730476D02*
X15284667Y-15768571D01*
X15579905Y-16006667D02*
X15570381Y-15997143D01*
X15551333Y-15968571D01*
X15541809Y-15949524D01*
X15532286Y-15920952D01*
X15522762Y-15873333D01*
X15522762Y-15835238D01*
X15532286Y-15787619D01*
X15541809Y-15759048D01*
X15551333Y-15740000D01*
X15570381Y-15711428D01*
X15579905Y-15701905D01*
X15741809Y-15797143D02*
X15741809Y-15930476D01*
X15694190Y-15720952D02*
X15646571Y-15863809D01*
X15770381Y-15863809D01*
X15998952Y-15930476D02*
X15998952Y-15730476D01*
X16084667Y-15930476D02*
X16084667Y-15825714D01*
X16075143Y-15806667D01*
X16056095Y-15797143D01*
X16027524Y-15797143D01*
X16008476Y-15806667D01*
X15998952Y-15816190D01*
X16208476Y-15930476D02*
X16189428Y-15920952D01*
X16179905Y-15911428D01*
X16170381Y-15892381D01*
X16170381Y-15835238D01*
X16179905Y-15816190D01*
X16189428Y-15806667D01*
X16208476Y-15797143D01*
X16237048Y-15797143D01*
X16256095Y-15806667D01*
X16265619Y-15816190D01*
X16275143Y-15835238D01*
X16275143Y-15892381D01*
X16265619Y-15911428D01*
X16256095Y-15920952D01*
X16237048Y-15930476D01*
X16208476Y-15930476D01*
X16389428Y-15930476D02*
X16370381Y-15920952D01*
X16360857Y-15901905D01*
X16360857Y-15730476D01*
X16541809Y-15920952D02*
X16522762Y-15930476D01*
X16484667Y-15930476D01*
X16465619Y-15920952D01*
X16456095Y-15901905D01*
X16456095Y-15825714D01*
X16465619Y-15806667D01*
X16484667Y-15797143D01*
X16522762Y-15797143D01*
X16541809Y-15806667D01*
X16551333Y-15825714D01*
X16551333Y-15844762D01*
X16456095Y-15863809D01*
X16627524Y-15920952D02*
X16646571Y-15930476D01*
X16684667Y-15930476D01*
X16703714Y-15920952D01*
X16713238Y-15901905D01*
X16713238Y-15892381D01*
X16703714Y-15873333D01*
X16684667Y-15863809D01*
X16656095Y-15863809D01*
X16637048Y-15854286D01*
X16627524Y-15835238D01*
X16627524Y-15825714D01*
X16637048Y-15806667D01*
X16656095Y-15797143D01*
X16684667Y-15797143D01*
X16703714Y-15806667D01*
X16779905Y-16006667D02*
X16789429Y-15997143D01*
X16808476Y-15968571D01*
X16818000Y-15949524D01*
X16827524Y-15920952D01*
X16837048Y-15873333D01*
X16837048Y-15835238D01*
X16827524Y-15787619D01*
X16818000Y-15759048D01*
X16808476Y-15740000D01*
X16789429Y-15711428D01*
X16779905Y-15701905D01*
M02*
