M48
; DRILL file {KiCad (6.0.11)} date Fri Feb 17 23:10:37 2023
; FORMAT={-:-/ absolute / inch / decimal}
; #@! TF.CreationDate,2023-02-17T23:10:37-08:00
; #@! TF.GenerationSoftware,Kicad,Pcbnew,(6.0.11)
; #@! TF.FileFunction,Plated,1,2,PTH
FMAT,2
INCH
; #@! TA.AperFunction,Plated,PTH,ViaDrill
T1C0.0157
; #@! TA.AperFunction,Plated,PTH,ComponentDrill
T2C0.0276
; #@! TA.AperFunction,Plated,PTH,ComponentDrill
T3C0.0300
; #@! TA.AperFunction,Plated,PTH,ComponentDrill
T4C0.0307
; #@! TA.AperFunction,Plated,PTH,ComponentDrill
T5C0.0354
; #@! TA.AperFunction,Plated,PTH,ComponentDrill
T6C0.0394
; #@! TA.AperFunction,Plated,PTH,ComponentDrill
T7C0.0433
; #@! TA.AperFunction,Plated,PTH,ComponentDrill
T8C0.1378
%
G90
G05
T1
X6.9Y-3.6
X7.2Y-3.7
X7.3Y-4.9
X7.8Y-2.8
X8.0Y-3.3
X8.0Y-3.4
X8.0Y-3.5
T2
X5.2173Y-2.9898
X5.2173Y-3.1898
X5.2173Y-3.3898
X5.5173Y-2.9898
X5.5173Y-3.1898
X5.5173Y-3.3898
X6.2Y-3.0
X6.2Y-3.2
X6.5Y-3.0
X6.5Y-3.2
T3
X7.45Y-2.8
X7.45Y-2.9
X7.45Y-3.0
X7.45Y-3.1
X7.45Y-3.2
X7.45Y-3.3
X7.45Y-3.4
X7.45Y-3.5
X7.45Y-3.6
X7.45Y-3.7
X7.45Y-3.8
X7.45Y-3.9
X7.45Y-4.0
X7.45Y-4.1
X7.45Y-4.2
X8.55Y-2.8
X8.55Y-2.9
X8.55Y-3.0
X8.55Y-3.1
X8.55Y-3.2
X8.55Y-3.3
X8.55Y-3.4
X8.55Y-3.5
X8.55Y-3.6
X8.55Y-3.7
X8.55Y-3.8
X8.55Y-3.9
X8.55Y-4.0
X8.55Y-4.1
X8.55Y-4.2
T4
X6.6437Y-2.65
X6.6437Y-2.75
X6.6437Y-2.85
X6.6437Y-2.95
X6.6437Y-3.05
X6.6437Y-3.15
X6.6437Y-3.25
X6.6437Y-3.35
X6.9563Y-2.65
X6.9563Y-2.75
X6.9563Y-2.85
X6.9563Y-2.95
X6.9563Y-3.05
X6.9563Y-3.15
X6.9563Y-3.25
X6.9563Y-3.35
T5
X5.0Y-2.5031
X5.0Y-2.6016
X5.0Y-2.7
X7.4764Y-4.9984
X7.5614Y-4.9984
X7.6464Y-4.9984
X7.7314Y-4.9984
X7.9866Y-4.9984
X8.0866Y-4.9984
X8.3764Y-4.9984
X8.4764Y-4.9984
T6
X7.1Y-4.05
X7.1Y-4.15
X7.1Y-4.25
X7.1Y-4.35
X7.1Y-4.45
X7.1Y-4.55
X7.1Y-4.65
X7.1Y-4.75
T7
X5.5Y-2.7
X5.6Y-2.7
X5.7Y-2.7
T8
X5.0945Y-3.8882
X5.0945Y-4.9118
X6.5512Y-3.7307
X6.5512Y-5.0693
T0
M30
