%TF.GenerationSoftware,KiCad,Pcbnew,(6.0.11)*%
%TF.CreationDate,2023-02-17T23:10:17-08:00*%
%TF.ProjectId,badger,62616467-6572-42e6-9b69-6361645f7063,Original*%
%TF.SameCoordinates,Original*%
%TF.FileFunction,Soldermask,Top*%
%TF.FilePolarity,Negative*%
%FSLAX46Y46*%
G04 Gerber Fmt 4.6, Leading zero omitted, Abs format (unit mm)*
G04 Created by KiCad (PCBNEW (6.0.11)) date 2023-02-17 23:10:17*
%MOMM*%
%LPD*%
G01*
G04 APERTURE LIST*
%ADD10C,2.000000*%
%ADD11C,1.400000*%
%ADD12O,1.400000X1.400000*%
%ADD13R,1.800000X1.800000*%
%ADD14C,1.800000*%
%ADD15R,1.130000X1.130000*%
%ADD16C,1.130000*%
%ADD17R,1.408000X1.408000*%
%ADD18C,1.408000*%
%ADD19R,1.905000X2.000000*%
%ADD20O,1.905000X2.000000*%
%ADD21C,6.000000*%
%ADD22C,1.700000*%
%ADD23C,1.524000*%
G04 APERTURE END LIST*
D10*
%TO.C,PWR-0*%
X154940000Y-60960000D03*
%TD*%
D11*
%TO.C,R3*%
X165100000Y-76200000D03*
D12*
X157480000Y-76200000D03*
%TD*%
D13*
%TO.C,LED2*%
X212760000Y-126960000D03*
D14*
X215300000Y-126960000D03*
%TD*%
D15*
%TO.C,IC0*%
X168750000Y-67310000D03*
D16*
X168750000Y-69850000D03*
X168750000Y-72390000D03*
X168750000Y-74930000D03*
X168750000Y-77470000D03*
X168750000Y-80010000D03*
X168750000Y-82550000D03*
X168750000Y-85090000D03*
X176690000Y-85090000D03*
X176690000Y-82550000D03*
X176690000Y-80010000D03*
X176690000Y-77470000D03*
X176690000Y-74930000D03*
X176690000Y-72390000D03*
X176690000Y-69850000D03*
X176690000Y-67310000D03*
%TD*%
D13*
%TO.C,LED1*%
X202860000Y-126960000D03*
D14*
X205400000Y-126960000D03*
%TD*%
%TO.C,LED0*%
X189900000Y-126960000D03*
D13*
X192059000Y-126960000D03*
D14*
X194218000Y-126960000D03*
X196377000Y-126960000D03*
%TD*%
D17*
%TO.C,PSW0*%
X127000000Y-63580000D03*
D18*
X127000000Y-66080000D03*
X127000000Y-68580000D03*
%TD*%
D19*
%TO.C,VR0*%
X139700000Y-68580000D03*
D20*
X142240000Y-68580000D03*
X144780000Y-68580000D03*
%TD*%
D11*
%TO.C,R1*%
X140140000Y-81020000D03*
D12*
X132520000Y-81020000D03*
%TD*%
D21*
%TO.C,IC1*%
X166400000Y-94760000D03*
X129400000Y-98760000D03*
X129400000Y-124760000D03*
X166400000Y-128760000D03*
D22*
X180340000Y-120650000D03*
X180340000Y-118110000D03*
X180340000Y-115570000D03*
X180340000Y-113030000D03*
X180340000Y-110490000D03*
X180340000Y-107950000D03*
X180340000Y-105410000D03*
X180340000Y-102870000D03*
%TD*%
D11*
%TO.C,R4*%
X165100000Y-81280000D03*
D12*
X157480000Y-81280000D03*
%TD*%
D23*
%TO.C,CTRL0*%
X217170000Y-106680000D03*
X217170000Y-104140000D03*
X217170000Y-101600000D03*
X217170000Y-99060000D03*
X217170000Y-96520000D03*
X217170000Y-93980000D03*
X217170000Y-91440000D03*
X217170000Y-88900000D03*
X217170000Y-86360000D03*
X217170000Y-83820000D03*
X217170000Y-81280000D03*
X217170000Y-78740000D03*
X217170000Y-76200000D03*
X217170000Y-73660000D03*
X217170000Y-71120000D03*
X189230000Y-71120000D03*
X189230000Y-73660000D03*
X189230000Y-76200000D03*
X189230000Y-78740000D03*
X189230000Y-81280000D03*
X189230000Y-83820000D03*
X189230000Y-86360000D03*
X189230000Y-88900000D03*
X189230000Y-91440000D03*
X189230000Y-93980000D03*
X189230000Y-96520000D03*
X189230000Y-99060000D03*
X189230000Y-101600000D03*
X189230000Y-104140000D03*
X189230000Y-106680000D03*
%TD*%
D11*
%TO.C,R2*%
X140140000Y-86100000D03*
D12*
X132520000Y-86100000D03*
%TD*%
D11*
%TO.C,R0*%
X140140000Y-75940000D03*
D12*
X132520000Y-75940000D03*
%TD*%
D10*
%TO.C,PWR+0*%
X139700000Y-60960000D03*
%TD*%
M02*
